{
.appVersion = "1246";
DisplayStrings = (
S
);
classes = (
{
automatic = 1;
code = "A Aacute Acircumflex Adieresis Agrave Atilde B C Cacute Ccaron Ccedilla D E Eacute Ecaron Ecircumflex Edieresis Egrave F G H I Iacute Icircumflex Idieresis Igrave J K L M N O Oacute Ocircumflex Odieresis Ograve P Q R S T U Uacute Ucircumflex Udieresis Ugrave V W X Y Z B.salt G.salt K.salt";
name = Uppercase;
},
{
automatic = 1;
code = "A Aacute Acircumflex Adieresis Agrave Atilde B C Cacute Ccaron Ccedilla D E Eacute Ecaron Ecircumflex Edieresis Egrave F G H I Iacute Icircumflex Idieresis Igrave J K L M N O Oacute Ocircumflex Odieresis Ograve P Q R S T U Uacute Ucircumflex Udieresis Ugrave V W X Y Z B.salt G.salt K.salt a b c d e f g h i j k l m n o p q r s germandbls t u v w x y z zero one two three four five six seven eight nine period comma colon semicolon exclam question bullet asterisk numbersign slash backslash parenleft parenright braceleft braceright bracketleft bracketright hyphen endash emdash underscore quotesinglbase quotedblbase quotedblleft quotedblright quoteleft quoteright quotereversed guillemetleft guillemetright guilsinglleft guilsinglright quotedbl quotesingle space plus minus multiply divide equal greater less upArrow rightArrow downArrow leftArrow at dieresis grave acute circumflex caron ring tilde cedilla quotedblreversed";
name = All;
}
);
copyright = "Copyright 2019 The Inter project authors, Niklas Sonnenschein";
customParameters = (
{
name = openTypeHeadFlags;
value = (
0,
1,
3,
4
);
},
{
name = openTypeHeadLowestRecPPEM;
value = 6;
},
{
name = openTypeNameLicense;
value = "OFL 1.1 (SIL Open Font License, Version 1.1)";
},
{
name = openTypeNameLicenseURL;
value = "http://scripts.sil.org/OFL";
},
{
name = openTypeNameSampleText;
value = "";
},
{
name = codePageRanges;
value = (
"1252",
"1250",
"1251",
"1253",
"1254",
"1257",
"1258"
);
},
{
name = openTypeOS2Panose;
value = (
2,
11,
5,
2,
3,
0,
0,
0,
0,
4
);
},
{
name = fsType;
value = (
);
},
{

glyphs = (
{
glyphname = A;
lastChange = "2019-07-05 23:13:05 +0000";
layers = (
{
anchors = (
{
name = bottom;
position = "{952, 0}";
},
{
name = top;
position = "{952, 2304}";
}
);
layerId = "4005C4E1-7659-4C5E-9D78-13D17D50B24B";
paths = (
{
closed = 1;
nodes = (
"944 1724 LINE",
"960 1724 LINE",
"1572 0 LINE",
"1832 0 LINE",
"1080 2048 LINE",
"824 2048 LINE",
"72 0 LINE",
"332 0 LINE"
);
},
{
closed = 1;
nodes = (
"428 580 LINE",
"1476 580 LINE",
"1476 800 LINE",
"428 800 LINE"
);
}
);
width = 1904;
},
{
anchors = (
{
name = bottom;
position = "{1452, 0}";
},
{
name = top;
position = "{1452, 2304}";
}
);
layerId = "CC8C8B2E-19C7-4699-A4BA-C120989B4E7F";
paths = (
{
closed = 1;
nodes = (
"944 1724 LINE",
"1960 1724 LINE",
"2572 0 LINE",
"2832 0 LINE",
"2080 2048 LINE",
"824 2048 LINE",
"72 0 LINE",
"332 0 LINE"
);
},
{
closed = 1;
nodes = (
"428 580 LINE",
"2476 580 LINE",
"2476 800 LINE",
"428 800 LINE"
);
}
);
width = 2904;
},
{
anchors = (
{
name = bottom;
position = "{868, 0}";
},
{
name = top;
position = "{868, 2304}";
}
);
layerId = "C0526DEC-9643-4CF7-8966-9E991C4F7D8C";
paths = (
{
closed = 1;
nodes = (
"864 1968 LINE",
"872 1968 LINE",
"1576 0 LINE",
"1644 0 LINE",
"912 2048 LINE",
"824 2048 LINE",
"92 0 LINE",
"160 0 LINE"
);
},
{
closed = 1;
nodes = (
"392 692 LINE",
"1344 692 LINE",
"1344 756 LINE",
"392 756 LINE"
);
}
);
width = 1736;
},
{
anchors = (
{
name = bottom;
position = "{1368, 0}";
},
{
name = top;
position = "{1368, 2304}";
}
);
layerId = "4AC57EC0-C61C-4EDF-B407-033FA33D6AD3";
paths = (
{
closed = 1;
nodes = (
"864 1968 LINE",
"1872 1968 LINE",
"2576 0 LINE",
"2644 0 LINE",
"1912 2048 LINE",
"824 2048 LINE",
"92 0 LINE",
"160 0 LINE"
);
},
{
closed = 1;
nodes = (
"392 692 LINE",
"2344 692 LINE",
"2344 756 LINE",
"392 756 LINE"
);
}
);
width = 2736;
},
{
anchors = (
{
name = bottom;
position = "{1120, 0}";
},
{
name = top;
position = "{1120, 2304}";
}
);
layerId = "C8AA7CDC-6A04-46C8-87C6-418EC6DD01BE";
paths = (
{
closed = 1;
nodes = (
"1112 1484 LINE",
"1128 1484 LINE",
"1576 0 LINE",
"2176 0 LINE",
"1500 2048 LINE",
"740 2048 LINE",
"64 0 LINE",
"664 0 LINE"
);
},
{
closed = 1;
nodes = (
"552 392 LINE",
"1680 392 LINE",
"1680 808 LINE",
"552 808 LINE"
);
}
);
width = 2240;
},
{
anchors = (
{
name = bottom;
position = "{1870, 0}";
},
{
name = top;
position = "{1870, 2304}";
}
);
layerId = "9DB0CBB1-7450-4B3A-8CA7-A9658A1D8B6A";
paths = (
{
closed = 1;
nodes = (
"1112 1484 LINE",
"2628 1484 LINE",
"3076 0 LINE",
"3676 0 LINE",
"3000 2048 LINE",
"740 2048 LINE",
"64 0 LINE",
"664 0 LINE"
);
},
{
closed = 1;
nodes = (
"552 392 LINE",
"3180 392 LINE",
"3180 808 LINE",
"552 808 LINE"
);
}
);
width = 3740;
}
);
unicode = 0041;
},
{
glyphname = B;
lastChange = "2019-07-05 23:13:50 +0000";
layers = (
{
layerId = "4005C4E1-7659-4C5E-9D78-13D17D50B24B";
paths = (
{
closed = 1;
nodes = (
"988 0 LINE SMOOTH",
"1472 0 OFFCURVE",
"1672 236 OFFCURVE",
"1672 544 CURVE SMOOTH",
"1672 868 OFFCURVE",
"1448 1044 OFFCURVE",
"1260 1056 CURVE",
"1260 1076 LINE",
"1436 1124 OFFCURVE",
"1592 1240 OFFCURVE",
"1592 1504 CURVE SMOOTH",
"1592 1804 OFFCURVE",
"1392 2048 OFFCURVE",
"964 2048 CURVE SMOOTH",
"248 2048 LINE",
"248 0 LINE"
);
},
{
closed = 1;
nodes = (
"496 932 LINE",
"1000 932 LINE SMOOTH",
"1268 932 OFFCURVE",
"1436 752 OFFCURVE",
"1436 544 CURVE SMOOTH",
"1436 364 OFFCURVE",
"1312 220 OFFCURVE",
"988 220 CURVE SMOOTH",
"496 220 LINE"
);
},
{
closed = 1;
nodes = (
"496 1828 LINE",
"964 1828 LINE SMOOTH",
"1236 1828 OFFCURVE",
"1356 1684 OFFCURVE",
"1356 1504 CURVE SMOOTH",
"1356 1288 OFFCURVE",
"1180 1148 OFFCURVE",
"956 1148 CURVE SMOOTH",
"496 1148 LINE"
);
}
);
width = 1832;
},
{
layerId = "CC8C8B2E-19C7-4699-A4BA-C120989B4E7F";
paths = (
{
closed = 1;
nodes = (
"1986 0 LINE SMOOTH",
"2470 0 OFFCURVE",
"2670 236 OFFCURVE",
"2670 544 CURVE SMOOTH",
"2670 868 OFFCURVE",
"2446 1044 OFFCURVE",
"2258 1056 CURVE",
"2258 1076 LINE",
"2434 1124 OFFCURVE",
"2590 1240 OFFCURVE",
"2590 1504 CURVE SMOOTH",
"2590 1804 OFFCURVE",
"2390 2048 OFFCURVE",
"1962 2048 CURVE SMOOTH",
"248 2048 LINE",
"248 0 LINE"
);
},
{
closed = 1;
nodes = (
"496 932 LINE",
"1998 932 LINE SMOOTH",
"2266 932 OFFCURVE",
"2434 752 OFFCURVE",
"2434 544 CURVE SMOOTH",
"2434 364 OFFCURVE",
"2310 220 OFFCURVE",
"1986 220 CURVE SMOOTH",
"496 220 LINE"
);
},
{
closed = 1;
nodes = (
"496 1828 LINE",
"1962 1828 LINE SMOOTH",
"2234 1828 OFFCURVE",
"2354 1684 OFFCURVE",
"2354 1504 CURVE SMOOTH",
"2354 1288 OFFCURVE",
"2178 1148 OFFCURVE",
"1954 1148 CURVE SMOOTH",
"496 1148 LINE"
);
}
);
width = 2832;
},
{
layerId = "C8AA7CDC-6A04-46C8-87C6-418EC6DD01BE";
paths = (
{
closed = 1;
nodes = (
"1096 0 LINE SMOOTH",
"1541 0 OFFCURVE",
"1816 243 OFFCURVE",
"1816 580 CURVE SMOOTH",
"1816 869 OFFCURVE",
"1603 1058 OFFCURVE",
"1340 1068 CURVE",
"1340 1088 LINE",
"1577 1135 OFFCURVE",
"1736 1310 OFFCURVE",
"1736 1536 CURVE SMOOTH",
"1736 1848 OFFCURVE",
"1488 2048 OFFCURVE",
"1020 2048 CURVE SMOOTH",
"132 2048 LINE",
"132 0 LINE"
);
},
{
closed = 1;
nodes = (
"688 876 LINE",
"956 876 LINE SMOOTH",
"1125 876 OFFCURVE",
"1228 796 OFFCURVE",
"1228 652 CURVE SMOOTH",
"1228 515 OFFCURVE",
"1135 444 OFFCURVE",
"948 444 CURVE SMOOTH",
"688 444 LINE"
);
},
{
closed = 1;
nodes = (
"688 1612 LINE",
"924 1612 LINE SMOOTH",
"1062 1612 OFFCURVE",
"1164 1542 OFFCURVE",
"1164 1416 CURVE SMOOTH",
"1164 1290 OFFCURVE",
"1062 1220 OFFCURVE",
"916 1220 CURVE SMOOTH",
"688 1220 LINE"
);
}
);
width = 1880;
},
{
layerId = "C0526DEC-9643-4CF7-8966-9E991C4F7D8C";
paths = (
{
closed = 1;
nodes = (
"1028 0 LINE SMOOTH",
"1380 0 OFFCURVE",
"1588 208 OFFCURVE",
"1588 524 CURVE SMOOTH",
"1588 809 OFFCURVE",
"1418 1017 OFFCURVE",
"1196 1036 CURVE",
"1196 1044 LINE",
"1394 1094 OFFCURVE",
"1508 1287 OFFCURVE",
"1508 1528 CURVE SMOOTH",
"1508 1851 OFFCURVE",
"1304 2048 OFFCURVE",
"960 2048 CURVE SMOOTH",
"320 2048 LINE",
"320 0 LINE"
);
},
{
closed = 1;
nodes = (
"384 1008 LINE",
"1028 1008 LINE SMOOTH",
"1317 1008 OFFCURVE",
"1524 808 OFFCURVE",
"1524 524 CURVE SMOOTH",
"1524 248 OFFCURVE",
"1328 64 OFFCURVE",
"1028 64 CURVE SMOOTH",
"384 64 LINE"
);
},
{
closed = 1;
nodes = (
"384 1984 LINE",
"960 1984 LINE SMOOTH",
"1258 1984 OFFCURVE",
"1444 1819 OFFCURVE",
"1444 1528 CURVE SMOOTH",
"1444 1284 OFFCURVE",
"1307 1072 OFFCURVE",
"1028 1072 CURVE SMOOTH",
"384 1072 LINE"
);
}
);
width = 1804;
},
{
layerId = "9DB0CBB1-7450-4B3A-8CA7-A9658A1D8B6A";
paths = (
{
closed = 1;
nodes = (
"2596 0 LINE SMOOTH",
"3041 0 OFFCURVE",
"3316 243 OFFCURVE",
"3316 580 CURVE SMOOTH",
"3316 869 OFFCURVE",
"3103 1058 OFFCURVE",
"2840 1068 CURVE",
"2840 1088 LINE",
"3077 1135 OFFCURVE",
"3236 1310 OFFCURVE",
"3236 1536 CURVE SMOOTH",
"3236 1848 OFFCURVE",
"2988 2048 OFFCURVE",
"2520 2048 CURVE SMOOTH",
"132 2048 LINE",
"132 0 LINE"
);
},
{
closed = 1;
nodes = (
"688 876 LINE",
"2456 876 LINE SMOOTH",
"2625 876 OFFCURVE",
"2728 796 OFFCURVE",
"2728 652 CURVE SMOOTH",
"2728 515 OFFCURVE",
"2635 444 OFFCURVE",
"2448 444 CURVE SMOOTH",
"688 444 LINE"
);
},
{
closed = 1;
nodes = (
"688 1612 LINE",
"2424 1612 LINE SMOOTH",
"2562 1612 OFFCURVE",
"2664 1542 OFFCURVE",
"2664 1416 CURVE SMOOTH",
"2664 1290 OFFCURVE",
"2562 1220 OFFCURVE",
"2416 1220 CURVE SMOOTH",
"688 1220 LINE"
);
}
);
width = 3380;
},
{
layerId = "4AC57EC0-C61C-4EDF-B407-033FA33D6AD3";
paths = (
{
closed = 1;
nodes = (
"2028 0 LINE SMOOTH",
"2379 0 OFFCURVE",
"2587 207 OFFCURVE",
"2588 524 CURVE SMOOTH",
"2589 808 OFFCURVE",
"2417 1016 OFFCURVE",
"2196 1036 CURVE",
"2196 1044 LINE",
"2393 1093 OFFCURVE",
"2507 1286 OFFCURVE",
"2508 1528 CURVE SMOOTH",
"2509 1850 OFFCURVE",
"2303 2048 OFFCURVE",
"1960 2048 CURVE SMOOTH",
"320 2048 LINE",
"320 0 LINE"
);
},
{
closed = 1;
nodes = (
"384 1008 LINE",
"2028 1008 LINE SMOOTH",
"2316 1008 OFFCURVE",
"2523 807 OFFCURVE",
"2524 524 CURVE SMOOTH",
"2525 247 OFFCURVE",
"2327 64 OFFCURVE",
"2028 64 CURVE SMOOTH",
"384 64 LINE"
);
},
{
closed = 1;
nodes = (
"384 1984 LINE",
"1960 1984 LINE SMOOTH",
"2257 1984 OFFCURVE",
"2443 1818 OFFCURVE",
"2444 1528 CURVE SMOOTH",
"2445 1283 OFFCURVE",
"2306 1072 OFFCURVE",
"2028 1072 CURVE SMOOTH",
"384 1072 LINE"
);
}
);
width = 2804;
}
);
unicode = 0042;
},
{
glyphname = C;
lastChange = "2019-07-05 23:18:37 +0000";
layers = (
{
anchors = (
{
name = cedilla;
position = "{1066, 0}";
},
{
name = top;
position = "{1066, 2304}";
}
);
layerId = "4005C4E1-7659-4C5E-9D78-13D17D50B24B";
paths = (
{
closed = 1;
nodes = (
"548 -28 OFFCURVE",
"168 376 OFFCURVE",
"168 1024 CURVE",
"168 1672 OFFCURVE",
"548 2076 OFFCURVE",
"1072 2076 CURVE SMOOTH",
"1074 2076 LINE",
"1486 2077 OFFCURVE",
"1822 1829 OFFCURVE",
"1898 1408 CURVE",
"1650 1408 LINE",
"1590 1693 OFFCURVE",
"1346 1844 OFFCURVE",
"1074 1844 CURVE SMOOTH",
"1072 1844 LINE",
"700 1844 OFFCURVE",
"408 1556 OFFCURVE",
"408 1024 CURVE",
"408 492 OFFCURVE",
"700 204 OFFCURVE",
"1072 204 CURVE SMOOTH",
"1074 204 LINE",
"1346 206 OFFCURVE",
"1590 358 OFFCURVE",
"1650 640 CURVE",
"1898 640 LINE",
"1822 222 OFFCURVE",
"1486 -28 OFFCURVE",
"1074 -28 CURVE SMOOTH",
"1072 -28 LINE"
);
}
);
width = 2048;
},
{
anchors = (
{
name = cedilla;
position = "{1524, 0}";
},
{
name = top;
position = "{1524, 2304}";
}
);
layerId = "CC8C8B2E-19C7-4699-A4BA-C120989B4E7F";
paths = (
{
closed = 1;
nodes = (
"548 -28 OFFCURVE",
"168 376 OFFCURVE",
"168 1024 CURVE",
"168 1672 OFFCURVE",
"548 2076 OFFCURVE",
"1072 2076 CURVE SMOOTH",
"2074 2076 LINE",
"2487 2077 OFFCURVE",
"2823 1829 OFFCURVE",
"2898 1408 CURVE",
"2650 1408 LINE",
"2591 1693 OFFCURVE",
"2347 1844 OFFCURVE",
"2074 1844 CURVE SMOOTH",
"1072 1844 LINE",
"700 1844 OFFCURVE",
"408 1556 OFFCURVE",
"408 1024 CURVE",
"408 492 OFFCURVE",
"700 204 OFFCURVE",
"1072 204 CURVE SMOOTH",
"2074 204 LINE",
"2347 206 OFFCURVE",
"2591 358 OFFCURVE",
"2650 640 CURVE",
"2898 640 LINE",
"2823 222 OFFCURVE",
"2487 -28 OFFCURVE",
"2074 -28 CURVE SMOOTH",
"1072 -28 LINE"
);
}
);
width = 3048;
},
{
anchors = (
{
name = cedilla;
position = "{1518, 0}";
},
{
name = top;
position = "{1518, 2304}";
}
);
layerId = "4AC57EC0-C61C-4EDF-B407-033FA33D6AD3";
paths = (
{
closed = 1;
nodes = (
"547 -29 OFFCURVE",
"203 395 OFFCURVE",
"204 1024 CURVE SMOOTH",
"205 1651 OFFCURVE",
"547 2075 OFFCURVE",
"1052 2076 CURVE",
"2054 2076 LINE SMOOTH",
"2535 2076 OFFCURVE",
"2787 1700 OFFCURVE",
"2838 1408 CURVE",
"2770 1408 LINE",
"2719 1680 OFFCURVE",
"2471 2012 OFFCURVE",
"2054 2012 CURVE",
"1052 2012 LINE SMOOTH",
"631 2012 OFFCURVE",
"267 1659 OFFCURVE",
"268 1024 CURVE SMOOTH",
"269 379 OFFCURVE",
"631 36 OFFCURVE",
"1052 36 CURVE SMOOTH",
"2054 36 LINE",
"2470 36 OFFCURVE",
"2718 364 OFFCURVE",
"2770 640 CURVE",
"2838 640 LINE",
"2786 352 OFFCURVE",
"2535 -28 OFFCURVE",
"2054 -28 CURVE SMOOTH",
"1052 -28 LINE"
);
}
);
width = 3036;
},
{
anchors = (
{
name = cedilla;
position = "{1112, 0}";
},
{
name = top;
position = "{1112, 2304}";
}
);
layerId = "C8AA7CDC-6A04-46C8-87C6-418EC6DD01BE";
paths = (
{
closed = 1;
nodes = (
"548 -28 OFFCURVE",
"124 344 OFFCURVE",
"124 1024 CURVE",
"124 1708 OFFCURVE",
"560 2076 OFFCURVE",
"1112 2076 CURVE SMOOTH",
"1136 2076 LINE",
"1654 2077 OFFCURVE",
"2026 1789 OFFCURVE",
"2068 1280 CURVE",
"1504 1280 LINE",
"1490 1467 OFFCURVE",
"1368 1592 OFFCURVE",
"1152 1592 CURVE SMOOTH",
"1128 1592 LINE",
"848 1592 OFFCURVE",
"696 1380 OFFCURVE",
"696 1024 CURVE",
"696 648 OFFCURVE",
"854 456 OFFCURVE",
"1124 456 CURVE SMOOTH",
"1148 456 LINE",
"1354 457 OFFCURVE",
"1478 567 OFFCURVE",
"1504 740 CURVE",
"2068 736 LINE",
"2042 389 OFFCURVE",
"1738 -27 OFFCURVE",
"1136 -28 CURVE",
"1112 -28 LINE"
);
}
);
width = 2164;
},
{
anchors = (
{
name = cedilla;
position = "{1832, 0}";
},
{
name = top;
position = "{1832, 2304}";
}
);
layerId = "9DB0CBB1-7450-4B3A-8CA7-A9658A1D8B6A";
paths = (
{
closed = 1;
nodes = (
"548 -28 OFFCURVE",
"124 344 OFFCURVE",
"124 1024 CURVE",
"124 1708 OFFCURVE",
"560 2076 OFFCURVE",
"1112 2076 CURVE SMOOTH",
"2612 2076 LINE",
"3130 2077 OFFCURVE",
"3502 1789 OFFCURVE",
"3544 1280 CURVE",
"2980 1280 LINE",
"2966 1467 OFFCURVE",
"2844 1592 OFFCURVE",
"2628 1592 CURVE SMOOTH",
"1128 1592 LINE",
"848 1592 OFFCURVE",
"696 1380 OFFCURVE",
"696 1024 CURVE",
"696 648 OFFCURVE",
"854 456 OFFCURVE",
"1124 456 CURVE SMOOTH",
"2624 456 LINE",
"2830 457 OFFCURVE",
"2954 567 OFFCURVE",
"2980 740 CURVE",
"3544 736 LINE",
"3518 389 OFFCURVE",
"3214 -27 OFFCURVE",
"2612 -28 CURVE",
"1112 -28 LINE"
);
}
);
width = 3664;
},
{
anchors = (
{
name = cedilla;
position = "{1052, 0}";
},
{
name = top;
position = "{1052, 2304}";
}
);
layerId = "C0526DEC-9643-4CF7-8966-9E991C4F7D8C";
paths = (
{
closed = 1;
nodes = (
"548 -27 OFFCURVE",
"204 397 OFFCURVE",
"204 1024 CURVE SMOOTH",
"204 1653 OFFCURVE",
"548 2077 OFFCURVE",
"1052 2076 CURVE",
"1054 2076 LINE SMOOTH",
"1536 2076 OFFCURVE",
"1788 1701 OFFCURVE",
"1838 1408 CURVE",
"1770 1408 LINE",
"1720 1681 OFFCURVE",
"1472 2013 OFFCURVE",
"1054 2012 CURVE",
"1052 2012 LINE SMOOTH",
"632 2012 OFFCURVE",
"268 1661 OFFCURVE",
"268 1024 CURVE SMOOTH",
"268 381 OFFCURVE",
"632 36 OFFCURVE",
"1052 36 CURVE SMOOTH",
"1054 36 LINE",
"1471 37 OFFCURVE",
"1719 365 OFFCURVE",
"1770 640 CURVE",
"1838 640 LINE",
"1787 353 OFFCURVE",
"1536 -28 OFFCURVE",
"1054 -28 CURVE SMOOTH",
"1052 -28 LINE"
);
}
);
width = 2036;
}
);
unicode = 0043;
},
{
glyphname = D;
lastChange = "2019-07-05 23:20:45 +0000";
layers = (
{
layerId = "4005C4E1-7659-4C5E-9D78-13D17D50B24B";
paths = (
{
closed = 1;
nodes = (
"1504 0 OFFCURVE",
"1856 388 OFFCURVE",
"1856 1028 CURVE SMOOTH",
"1856 1664 OFFCURVE",
"1504 2048 OFFCURVE",
"908 2048 CURVE SMOOTH",
"376 2048 LINE",
"376 1828 LINE",
"892 1828 LINE SMOOTH",
"1372 1828 OFFCURVE",
"1616 1524 OFFCURVE",
"1616 1028 CURVE SMOOTH",
"1616 528 OFFCURVE",
"1372 220 OFFCURVE",
"864 220 CURVE SMOOTH",
"388 220 LINE",
"388 0 LINE",
"880 0 LINE SMOOTH"
);
},
{
closed = 1;
nodes = (
"248 2048 LINE",
"248 0 LINE",
"496 0 LINE",
"496 2048 LINE"
);
}
);
width = 2024;
},
{
layerId = "CC8C8B2E-19C7-4699-A4BA-C120989B4E7F";
paths = (
{
closed = 1;
nodes = (
"2504 0 OFFCURVE",
"2856 388 OFFCURVE",
"2856 1028 CURVE SMOOTH",
"2856 1664 OFFCURVE",
"2504 2048 OFFCURVE",
"1908 2048 CURVE SMOOTH",
"376 2048 LINE",
"376 1828 LINE",
"1892 1828 LINE SMOOTH",
"2372 1828 OFFCURVE",
"2616 1524 OFFCURVE",
"2616 1028 CURVE SMOOTH",
"2616 528 OFFCURVE",
"2372 220 OFFCURVE",
"1864 220 CURVE SMOOTH",
"388 220 LINE",
"388 0 LINE",
"1880 0 LINE SMOOTH"
);
},
{
closed = 1;
nodes = (
"248 2048 LINE",
"248 0 LINE",
"496 0 LINE",
"496 2048 LINE"
);
}
);
width = 3024;
},
{
layerId = "4AC57EC0-C61C-4EDF-B407-033FA33D6AD3";
paths = (
{
closed = 1;
nodes = (
"2457 0 OFFCURVE",
"2806 378 OFFCURVE",
"2808 1032 CURVE SMOOTH",
"2810 1669 OFFCURVE",
"2473 2048 OFFCURVE",
"1908 2048 CURVE SMOOTH",
"352 2048 LINE",
"352 1984 LINE",
"1908 1984 LINE SMOOTH",
"2439 1984 OFFCURVE",
"2742 1629 OFFCURVE",
"2744 1032 CURVE SMOOTH",
"2746 425 OFFCURVE",
"2424 64 OFFCURVE",
"1856 64 CURVE SMOOTH",
"352 64 LINE",
"352 0 LINE",
"1856 0 LINE SMOOTH"
);
},
{
closed = 1;
nodes = (
"320 2048 LINE",
"320 0 LINE",
"384 0 LINE",
"384 2048 LINE"
);
}
);
width = 3012;
},
{
layerId = "C8AA7CDC-6A04-46C8-87C6-418EC6DD01BE";
paths = (
{
closed = 1;
nodes = (
"1544 0 OFFCURVE",
"1940 384 OFFCURVE",
"1940 1024 CURVE",
"1940 1664 OFFCURVE",
"1544 2048 OFFCURVE",
"912 2048 CURVE",
"352 2048 LINE",
"352 1576 LINE",
"884 1576 LINE",
"1204 1576 OFFCURVE",
"1380 1452 OFFCURVE",
"1380 1024 CURVE",
"1380 596 OFFCURVE",
"1204 472 OFFCURVE",
"900 472 CURVE",
"360 472 LINE",
"360 0 LINE",
"920 0 LINE"
);
},
{
closed = 1;
nodes = (
"132 2048 LINE",
"132 0 LINE",
"688 0 LINE",
"688 2048 LINE"
);
}
);
width = 2064;
},
{
layerId = "9DB0CBB1-7450-4B3A-8CA7-A9658A1D8B6A";
paths = (
{
closed = 1;
nodes = (
"3044 1 OFFCURVE",
"3440 385 OFFCURVE",
"3440 1024 CURVE",
"3440 1665 OFFCURVE",
"3044 2049 OFFCURVE",
"2412 2048 CURVE",
"352 2048 LINE",
"352 1576 LINE",
"2384 1576 LINE",
"2704 1577 OFFCURVE",
"2880 1453 OFFCURVE",
"2880 1024 CURVE",
"2880 597 OFFCURVE",
"2704 473 OFFCURVE",
"2400 472 CURVE",
"360 472 LINE",
"360 0 LINE",
"2420 0 LINE"
);
},
{
closed = 1;
nodes = (
"132 2048 LINE",
"132 0 LINE",
"688 0 LINE",
"688 2048 LINE"
);
}
);
width = 3564;
},
{
layerId = "C0526DEC-9643-4CF7-8966-9E991C4F7D8C";
paths = (
{
closed = 1;
nodes = (
"1457 0 OFFCURVE",
"1806 378 OFFCURVE",
"1808 1032 CURVE SMOOTH",
"1809 1669 OFFCURVE",
"1473 2048 OFFCURVE",
"908 2048 CURVE SMOOTH",
"352 2048 LINE",
"352 1984 LINE",
"908 1984 LINE SMOOTH",
"1439 1984 OFFCURVE",
"1742 1629 OFFCURVE",
"1744 1032 CURVE SMOOTH",
"1746 425 OFFCURVE",
"1424 64 OFFCURVE",
"856 64 CURVE SMOOTH",
"352 64 LINE",
"352 0 LINE",
"856 0 LINE SMOOTH"
);
},
{
closed = 1;
nodes = (
"320 2048 LINE",
"320 0 LINE",
"384 0 LINE",
"384 2048 LINE"
);
}
);
width = 2012;
}
);
unicode = 0044;
},
{
glyphname = E;
lastChange = "2019-07-05 23:24:18 +0000";
layers = (
{
anchors = (
{
name = top;
position = "{872, 2304}";
}
);
layerId = "4005C4E1-7659-4C5E-9D78-13D17D50B24B";
paths = (
{
closed = 1;
nodes = (
"1500 0 LINE",
"1500 220 LINE",
"496 220 LINE",
"496 916 LINE",
"1420 916 LINE",
"1420 1136 LINE",
"496 1136 LINE",
"496 1828 LINE",
"1484 1828 LINE",
"1484 2048 LINE",
"248 2048 LINE",
"248 0 LINE"
);
}
);
width = 1684;
},
{
anchors = (
{
name = top;
position = "{1430, 2304}";
}
);
layerId = "CC8C8B2E-19C7-4699-A4BA-C120989B4E7F";
paths = (
{
closed = 1;
nodes = (
"2500 0 LINE",
"2500 220 LINE",
"496 220 LINE",
"496 916 LINE",
"2420 916 LINE",
"2420 1136 LINE",
"496 1136 LINE",
"496 1828 LINE",
"2484 1828 LINE",
"2484 2048 LINE",
"248 2048 LINE",
"248 0 LINE"
);
}
);
width = 2684;
},
{
anchors = (
{
name = top;
position = "{1384, 2304}";
}
);
layerId = "4AC57EC0-C61C-4EDF-B407-033FA33D6AD3";
paths = (
{
closed = 1;
nodes = (
"2440 0 LINE",
"2440 64 LINE",
"384 64 LINE",
"384 992 LINE",
"2352 992 LINE",
"2352 1056 LINE",
"384 1056 LINE",
"384 1984 LINE",
"2412 1984 LINE",
"2412 2048 LINE",
"320 2048 LINE",
"320 0 LINE"
);
}
);
width = 2644;
},
{
anchors = (
{
name = top;
position = "{912, 2304}";
}
);
layerId = "C8AA7CDC-6A04-46C8-87C6-418EC6DD01BE";
paths = (
{
closed = 1;
nodes = (
"1604 0 LINE",
"1604 448 LINE",
"688 448 LINE",
"688 800 LINE",
"1532 800 LINE",
"1532 1248 LINE",
"688 1248 LINE",
"688 1600 LINE",
"1608 1600 LINE",
"1608 2048 LINE",
"132 2048 LINE",
"132 0 LINE"
);
}
);
width = 1752;
},
{
anchors = (
{
name = top;
position = "{1716, 2304}";
}
);
layerId = "9DB0CBB1-7450-4B3A-8CA7-A9658A1D8B6A";
paths = (
{
closed = 1;
nodes = (
"3104 0 LINE",
"3104 448 LINE",
"688 448 LINE",
"688 800 LINE",
"3032 800 LINE",
"3032 1248 LINE",
"688 1248 LINE",
"688 1600 LINE",
"3108 1600 LINE",
"3108 2048 LINE",
"132 2048 LINE",
"132 0 LINE"
);
}
);
width = 3252;
},
{
anchors = (
{
name = top;
position = "{872, 2304}";
}
);
layerId = "C0526DEC-9643-4CF7-8966-9E991C4F7D8C";
paths = (
{
closed = 1;
nodes = (
"1440 0 LINE",
"1440 64 LINE",
"384 64 LINE",
"384 992 LINE",
"1352 992 LINE",
"1352 1056 LINE",
"384 1056 LINE",
"384 1984 LINE",
"1412 1984 LINE",
"1412 2048 LINE",
"320 2048 LINE",
"320 0 LINE"
);
}
);
width = 1644;
}
);
unicode = 0045;
},
{
glyphname = F;
lastChange = "2019-07-05 23:26:03 +0000";
layers = (
{
layerId = "4005C4E1-7659-4C5E-9D78-13D17D50B24B";
paths = (
{
closed = 1;
nodes = (
"496 0 LINE",
"496 916 LINE",
"1384 916 LINE",
"1384 1136 LINE",
"496 1136 LINE",
"496 1828 LINE",
"1476 1828 LINE",
"1476 2048 LINE",
"248 2048 LINE",
"248 0 LINE"
);
}
);
width = 1652;
},
{
layerId = "CC8C8B2E-19C7-4699-A4BA-C120989B4E7F";
paths = (
{
closed = 1;
nodes = (
"496 0 LINE",
"496 916 LINE",
"2384 916 LINE",
"2384 1136 LINE",
"496 1136 LINE",
"496 1828 LINE",
"2476 1828 LINE",
"2476 2048 LINE",
"248 2048 LINE",
"248 0 LINE"
);
}
);
width = 2652;
},
{
layerId = "4AC57EC0-C61C-4EDF-B407-033FA33D6AD3";
paths = (
{
closed = 1;
nodes = (
"384 0 LINE",
"384 992 LINE",
"2324 992 LINE",
"2324 1056 LINE",
"384 1056 LINE",
"384 1984 LINE",
"2420 1984 LINE",
"2420 2048 LINE",
"320 2048 LINE",
"320 0 LINE"
);
}
);
width = 2648;
},
{
layerId = "C8AA7CDC-6A04-46C8-87C6-418EC6DD01BE";
paths = (
{
closed = 1;
nodes = (
"688 0 LINE",
"688 800 LINE",
"1484 800 LINE",
"1484 1248 LINE",
"688 1248 LINE",
"688 1600 LINE",
"1572 1600 LINE",
"1572 2048 LINE",
"132 2048 LINE",
"132 0 LINE"
);
}
);
width = 1644;
},
{
layerId = "9DB0CBB1-7450-4B3A-8CA7-A9658A1D8B6A";
paths = (
{
closed = 1;
nodes = (
"688 0 LINE",
"688 800 LINE",
"2984 800 LINE",
"2984 1248 LINE",
"688 1248 LINE",
"688 1600 LINE",
"3072 1600 LINE",
"3072 2048 LINE",
"132 2048 LINE",
"132 0 LINE"
);
}
);
width = 3144;
},
{
layerId = "C0526DEC-9643-4CF7-8966-9E991C4F7D8C";
paths = (
{
closed = 1;
nodes = (
"384 0 LINE",
"384 992 LINE",
"1324 992 LINE",
"1324 1056 LINE",
"384 1056 LINE",
"384 1984 LINE",
"1420 1984 LINE",
"1420 2048 LINE",
"320 2048 LINE",
"320 0 LINE"
);
}
);
width = 1648;
}
);
unicode = 0046;
},
{
glyphname = G;
lastChange = "2019-07-06 09:50:58 +0000";
layers = (
{
layerId = "4005C4E1-7659-4C5E-9D78-13D17D50B24B";
paths = (
{
closed = 1;
nodes = (
"1363 1843 OFFCURVE",
"1563 1677 OFFCURVE",
"1650 1408 CURVE",
"1906 1408 LINE",
"1831 1803 OFFCURVE",
"1499 2076 OFFCURVE",
"1066 2076 CURVE SMOOTH",
"1064 2076 LINE",
"539 2076 OFFCURVE",
"168 1672 OFFCURVE",
"168 1024 CURVE SMOOTH",
"168 376 OFFCURVE",
"536 -28 OFFCURVE",
"1080 -28 CURVE SMOOTH",
"1082 -28 LINE",
"1571 -29 OFFCURVE",
"1918 297 OFFCURVE",
"1918 804 CURVE SMOOTH",
"1918 1024 LINE",
"1138 1024 LINE",
"1138 804 LINE",
"1754 804 LINE",
"1678 820 LINE",
"1679 443 OFFCURVE",
"1435 204 OFFCURVE",
"1082 204 CURVE SMOOTH",
"1080 204 LINE",
"700 204 OFFCURVE",
"408 492 OFFCURVE",
"408 1024 CURVE SMOOTH",
"408 1556 OFFCURVE",
"700 1844 OFFCURVE",
"1064 1844 CURVE SMOOTH",
"1066 1844 LINE"
);
}
);
width = 2092;
},
{
layerId = "CC8C8B2E-19C7-4699-A4BA-C120989B4E7F";
paths = (
{
closed = 1;
nodes = (
"2361 1843 OFFCURVE",
"2561 1677 OFFCURVE",
"2648 1408 CURVE",
"2904 1408 LINE",
"2829 1803 OFFCURVE",
"2497 2076 OFFCURVE",
"2064 2076 CURVE SMOOTH",
"1064 2076 LINE",
"539 2076 OFFCURVE",
"168 1672 OFFCURVE",
"168 1024 CURVE SMOOTH",
"168 376 OFFCURVE",
"536 -28 OFFCURVE",
"1080 -28 CURVE SMOOTH",
"2080 -28 LINE",
"2569 -29 OFFCURVE",
"2916 297 OFFCURVE",
"2916 804 CURVE SMOOTH",
"2916 1024 LINE",
"2136 1024 LINE",
"2136 804 LINE",
"2752 804 LINE",
"2676 820 LINE",
"2677 443 OFFCURVE",
"2433 204 OFFCURVE",
"2080 204 CURVE SMOOTH",
"1080 204 LINE",
"700 204 OFFCURVE",
"408 492 OFFCURVE",
"408 1024 CURVE SMOOTH",
"408 1556 OFFCURVE",
"700 1844 OFFCURVE",
"1064 1844 CURVE SMOOTH",
"2064 1844 LINE"
);
}
);
width = 3092;
},
{
layerId = "4AC57EC0-C61C-4EDF-B407-033FA33D6AD3";
paths = (
{
closed = 1;
nodes = (
"2474 2012 OFFCURVE",
"2724 1688 OFFCURVE",
"2772 1408 CURVE",
"2836 1408 LINE",
"2788 1700 OFFCURVE",
"2532 2076 OFFCURVE",
"2052 2076 CURVE SMOOTH",
"1052 2076 LINE",
"544 2076 OFFCURVE",
"204 1654 OFFCURVE",
"204 1024 CURVE SMOOTH",
"204 398 OFFCURVE",
"540 -28 OFFCURVE",
"1060 -28 CURVE SMOOTH",
"2060 -28 LINE",
"2520 -28 OFFCURVE",
"2852 304 OFFCURVE",
"2852 864 CURVE SMOOTH",
"2852 928 LINE",
"2080 928 LINE",
"2080 864 LINE",
"2816 864 LINE",
"2788 888 LINE",
"2796 352 OFFCURVE",
"2488 36 OFFCURVE",
"2060 36 CURVE SMOOTH",
"1060 36 LINE",
"576 36 OFFCURVE",
"268 440 OFFCURVE",
"268 1024 CURVE SMOOTH",
"268 1616 OFFCURVE",
"582 2012 OFFCURVE",
"1052 2012 CURVE SMOOTH",
"2052 2012 LINE"
);
}
);
width = 3080;
},
{
layerId = "C8AA7CDC-6A04-46C8-87C6-418EC6DD01BE";
paths = (
{
closed = 1;
nodes = (
"1311 1592 OFFCURVE",
"1429 1512 OFFCURVE",
"1464 1372 CURVE",
"2026 1372 LINE",
"1983 1784 OFFCURVE",
"1609 2076 OFFCURVE",
"1126 2076 CURVE SMOOTH",
"1124 2076 LINE",
"572 2076 OFFCURVE",
"124 1696 OFFCURVE",
"124 1020 CURVE SMOOTH",
"124 372 OFFCURVE",
"530 -28 OFFCURVE",
"1128 -28 CURVE SMOOTH",
"1130 -28 LINE",
"1665 -28 OFFCURVE",
"2050 300 OFFCURVE",
"2050 860 CURVE SMOOTH",
"2050 1144 LINE",
"1142 1144 LINE",
"1142 748 LINE",
"1610 748 LINE",
"1514 758 LINE",
"1513 574 OFFCURVE",
"1387 456 OFFCURVE",
"1134 456 CURVE SMOOTH",
"1132 456 LINE",
"844 456 OFFCURVE",
"696 668 OFFCURVE",
"696 1028 CURVE SMOOTH",
"696 1384 OFFCURVE",
"856 1592 OFFCURVE",
"1136 1592 CURVE SMOOTH",
"1138 1592 LINE"
);
}
);
width = 2176;
},
{
layerId = "9DB0CBB1-7450-4B3A-8CA7-A9658A1D8B6A";
paths = (
{
closed = 1;
nodes = (
"2810 1592 OFFCURVE",
"2928 1512 OFFCURVE",
"2962 1372 CURVE",
"3524 1372 LINE",
"3482 1784 OFFCURVE",
"3108 2076 OFFCURVE",
"2624 2076 CURVE SMOOTH",
"1124 2076 LINE",
"572 2076 OFFCURVE",
"124 1696 OFFCURVE",
"124 1020 CURVE SMOOTH",
"124 372 OFFCURVE",
"530 -28 OFFCURVE",
"1128 -28 CURVE SMOOTH",
"2628 -28 LINE",
"3164 -28 OFFCURVE",
"3548 300 OFFCURVE",
"3548 860 CURVE SMOOTH",
"3548 1144 LINE",
"2640 1144 LINE",
"2640 748 LINE",
"3108 748 LINE",
"3012 758 LINE",
"3012 574 OFFCURVE",
"2886 456 OFFCURVE",
"2632 456 CURVE SMOOTH",
"1132 456 LINE",
"844 456 OFFCURVE",
"696 668 OFFCURVE",
"696 1028 CURVE SMOOTH",
"696 1384 OFFCURVE",
"856 1592 OFFCURVE",
"1136 1592 CURVE SMOOTH",
"2636 1592 LINE"
);
}
);
width = 3676;
},
{
layerId = "C0526DEC-9643-4CF7-8966-9E991C4F7D8C";
paths = (
{
closed = 1;
nodes = (
"1475 2012 OFFCURVE",
"1725 1688 OFFCURVE",
"1774 1408 CURVE",
"1838 1408 LINE",
"1789 1700 OFFCURVE",
"1533 2076 OFFCURVE",
"1054 2076 CURVE SMOOTH",
"1052 2076 LINE",
"544 2076 OFFCURVE",
"204 1654 OFFCURVE",
"204 1024 CURVE SMOOTH",
"204 398 OFFCURVE",
"540 -28 OFFCURVE",
"1060 -28 CURVE SMOOTH",
"1062 -28 LINE",
"1521 -28 OFFCURVE",
"1854 304 OFFCURVE",
"1854 864 CURVE SMOOTH",
"1854 928 LINE",
"1082 928 LINE",
"1082 864 LINE",
"1818 864 LINE",
"1790 888 LINE",
"1797 352 OFFCURVE",
"1489 36 OFFCURVE",
"1062 36 CURVE SMOOTH",
"1060 36 LINE",
"576 36 OFFCURVE",
"268 440 OFFCURVE",
"268 1024 CURVE SMOOTH",
"268 1616 OFFCURVE",
"582 2012 OFFCURVE",
"1052 2012 CURVE SMOOTH",
"1054 2012 LINE"
);
}
);
width = 2080;
}
);
unicode = 0047;
},
{
glyphname = H;
lastChange = "2019-07-05 23:34:23 +0000";
layers = (
{
layerId = "4005C4E1-7659-4C5E-9D78-13D17D50B24B";
paths = (
{
closed = 1;
nodes = (
"496 0 LINE",
"496 916 LINE",
"1588 916 LINE",
"1588 0 LINE",
"1836 0 LINE",
"1836 2048 LINE",
"1588 2048 LINE",
"1588 1136 LINE",
"496 1136 LINE",
"496 2048 LINE",
"248 2048 LINE",
"248 0 LINE"
);
}
);
width = 2084;
},
{
layerId = "CC8C8B2E-19C7-4699-A4BA-C120989B4E7F";
paths = (
{
closed = 1;
nodes = (
"496 0 LINE",
"496 916 LINE",
"2552 916 LINE",
"2552 0 LINE",
"2800 0 LINE",
"2800 2048 LINE",
"2552 2048 LINE",
"2552 1136 LINE",
"496 1136 LINE",
"496 2048 LINE",
"248 2048 LINE",
"248 0 LINE"
);
}
);
width = 3048;
},
{
layerId = "4AC57EC0-C61C-4EDF-B407-033FA33D6AD3";
paths = (
{
closed = 1;
nodes = (
"384 0 LINE",
"384 992 LINE",
"2688 992 LINE",
"2688 0 LINE",
"2752 0 LINE",
"2752 2048 LINE",
"2688 2048 LINE",
"2688 1056 LINE",
"384 1056 LINE",
"384 2048 LINE",
"320 2048 LINE",
"320 0 LINE"
);
}
);
width = 3072;
},
{
layerId = "C8AA7CDC-6A04-46C8-87C6-418EC6DD01BE";
paths = (
{
closed = 1;
nodes = (
"688 0 LINE",
"688 800 LINE",
"1424 800 LINE",
"1424 0 LINE",
"1980 0 LINE",
"1980 2048 LINE",
"1424 2048 LINE",
"1424 1248 LINE",
"688 1248 LINE",
"688 2048 LINE",
"132 2048 LINE",
"132 0 LINE"
);
}
);
width = 2112;
},
{
layerId = "9DB0CBB1-7450-4B3A-8CA7-A9658A1D8B6A";
paths = (
{
closed = 1;
nodes = (
"688 0 LINE",
"688 800 LINE",
"2924 800 LINE",
"2924 0 LINE",
"3480 0 LINE",
"3480 2048 LINE",
"2924 2048 LINE",
"2924 1248 LINE",
"688 1248 LINE",
"688 2048 LINE",
"132 2048 LINE",
"132 0 LINE"
);
}
);
width = 3612;
},
{
layerId = "C0526DEC-9643-4CF7-8966-9E991C4F7D8C";
paths = (
{
closed = 1;
nodes = (
"384 0 LINE",
"384 992 LINE",
"1688 992 LINE",
"1688 0 LINE",
"1752 0 LINE",
"1752 2048 LINE",
"1688 2048 LINE",
"1688 1056 LINE",
"384 1056 LINE",
"384 2048 LINE",
"320 2048 LINE",
"320 0 LINE"
);
}
);
width = 2072;
}
);
unicode = 0048;
},
{
glyphname = I;
lastChange = "2019-07-05 23:36:09 +0000";
layers = (
{
anchors = (
{
name = top;
position = "{372, 2304}";
}
);
layerId = "4005C4E1-7659-4C5E-9D78-13D17D50B24B";
paths = (
{
closed = 1;
nodes = (
"248 2048 LINE",
"248 0 LINE",
"496 0 LINE",
"496 2048 LINE"
);
}
);
width = 744;
},
{
anchors = (
{
name = top;
position = "{372, 2304}";
}
);
layerId = "CC8C8B2E-19C7-4699-A4BA-C120989B4E7F";
paths = (
{
closed = 1;
nodes = (
"248 2048 LINE",
"248 0 LINE",
"496 0 LINE",
"496 2048 LINE"
);
}
);
width = 744;
},
{
anchors = (
{
name = top;
position = "{352, 2304}";
}
);
layerId = "4AC57EC0-C61C-4EDF-B407-033FA33D6AD3";
paths = (
{
closed = 1;
nodes = (
"320 2048 LINE",
"320 0 LINE",
"384 0 LINE",
"384 2048 LINE"
);
}
);
width = 704;
},
{
anchors = (
{
name = top;
position = "{410, 2304}";
}
);
layerId = "C8AA7CDC-6A04-46C8-87C6-418EC6DD01BE";
paths = (
{
closed = 1;
nodes = (
"132 2048 LINE",
"132 0 LINE",
"688 0 LINE",
"688 2048 LINE"
);
}
);
width = 820;
},
{
anchors = (
{
name = top;
position = "{410, 2304}";
}
);
layerId = "9DB0CBB1-7450-4B3A-8CA7-A9658A1D8B6A";
paths = (
{
closed = 1;
nodes = (
"132 2048 LINE",
"132 0 LINE",
"688 0 LINE",
"688 2048 LINE"
);
}
);
width = 820;
},
{
anchors = (
{
name = top;
position = "{352, 2304}";
}
);
layerId = "C0526DEC-9643-4CF7-8966-9E991C4F7D8C";
paths = (
{
closed = 1;
nodes = (
"320 2048 LINE",
"320 0 LINE",
"384 0 LINE",
"384 2048 LINE"
);
}
);
width = 704;
}
);
unicode = 0049;
},
{
glyphname = J;
lastChange = "2019-07-05 23:37:29 +0000";
layers = (
{
layerId = "4005C4E1-7659-4C5E-9D78-13D17D50B24B";
paths = (
{
closed = 1;
nodes = (
"1032 584 LINE",
"1032 329 OFFCURVE",
"910 192 OFFCURVE",
"696 192 CURVE SMOOTH",
"501 192 OFFCURVE",
"360 306 OFFCURVE",
"360 480 CURVE",
"116 480 LINE",
"116 165 OFFCURVE",
"360 -28 OFFCURVE",
"696 -28 CURVE SMOOTH",
"1052 -28 OFFCURVE",
"1280 191 OFFCURVE",
"1280 584 CURVE",
"1280 2048 LINE",
"1032 2048 LINE"
);
}
);
width = 1528;
},
{
layerId = "CC8C8B2E-19C7-4699-A4BA-C120989B4E7F";
paths = (
{
closed = 1;
nodes = (
"1032 584 LINE",
"1032 329 OFFCURVE",
"910 192 OFFCURVE",
"696 192 CURVE SMOOTH",
"501 192 OFFCURVE",
"360 306 OFFCURVE",
"360 480 CURVE",
"116 480 LINE",
"116 165 OFFCURVE",
"360 -28 OFFCURVE",
"696 -28 CURVE SMOOTH",
"1052 -28 OFFCURVE",
"1280 191 OFFCURVE",
"1280 584 CURVE",
"1280 2048 LINE",
"1032 2048 LINE"
);
}
);
width = 1528;
},
{
layerId = "4AC57EC0-C61C-4EDF-B407-033FA33D6AD3";
paths = (
{
closed = 1;
nodes = (
"1080 544 LINE SMOOTH",
"1078 164 OFFCURVE",
"872 36 OFFCURVE",
"648 36 CURVE SMOOTH",
"404 36 OFFCURVE",
"214 184 OFFCURVE",
"216 384 CURVE",
"152 384 LINE",
"150 148 OFFCURVE",
"366 -28 OFFCURVE",
"648 -28 CURVE SMOOTH",
"910 -28 OFFCURVE",
"1142 128 OFFCURVE",
"1144 544 CURVE SMOOTH",
"1144 2048 LINE",
"1080 2048 LINE"
);
}
);
width = 1464;
},
{
layerId = "C8AA7CDC-6A04-46C8-87C6-418EC6DD01BE";
paths = (
{
closed = 1;
nodes = (
"976 644 LINE",
"974 486 OFFCURVE",
"908 404 OFFCURVE",
"784 404 CURVE SMOOTH",
"662 404 OFFCURVE",
"594 485 OFFCURVE",
"588 640 CURVE",
"32 640 LINE",
"30 168 OFFCURVE",
"354 -28 OFFCURVE",
"748 -28 CURVE SMOOTH",
"1202 -28 OFFCURVE",
"1522 244 OFFCURVE",
"1524 644 CURVE",
"1524 2048 LINE",
"976 2048 LINE"
);
}
);
width = 1656;
},
{
layerId = "9DB0CBB1-7450-4B3A-8CA7-A9658A1D8B6A";
paths = (
{
closed = 1;
nodes = (
"976 644 LINE",
"974 486 OFFCURVE",
"908 404 OFFCURVE",
"784 404 CURVE SMOOTH",
"662 404 OFFCURVE",
"594 485 OFFCURVE",
"588 640 CURVE",
"32 640 LINE",
"30 168 OFFCURVE",
"354 -28 OFFCURVE",
"748 -28 CURVE SMOOTH",
"1202 -28 OFFCURVE",
"1522 244 OFFCURVE",
"1524 644 CURVE",
"1524 2048 LINE",
"976 2048 LINE"
);
}
);
width = 1656;
},
{
layerId = "C0526DEC-9643-4CF7-8966-9E991C4F7D8C";
paths = (
{
closed = 1;
nodes = (
"1080 544 LINE SMOOTH",
"1078 164 OFFCURVE",
"872 36 OFFCURVE",
"648 36 CURVE SMOOTH",
"404 36 OFFCURVE",
"214 184 OFFCURVE",
"216 384 CURVE",
"152 384 LINE",
"150 148 OFFCURVE",
"366 -28 OFFCURVE",
"648 -28 CURVE SMOOTH",
"910 -28 OFFCURVE",
"1142 128 OFFCURVE",
"1144 544 CURVE SMOOTH",
"1144 2048 LINE",
"1080 2048 LINE"
);
}
);
width = 1464;
}
);
unicode = 004A;
},
{
glyphname = K;
lastChange = "2019-07-05 23:43:44 +0000";
layers = (
{
layerId = "4005C4E1-7659-4C5E-9D78-13D17D50B24B";
paths = (
{
closed = 1;
nodes = (
"496 0 LINE",
"496 664 LINE",
"752 952 LINE",
"1464 0 LINE",
"1764 0 LINE",
"904 1124 LINE",
"1764 2048 LINE",
"1440 2048 LINE",
"520 1032 LINE",
"496 1032 LINE",
"496 2048 LINE",
"248 2048 LINE",
"248 0 LINE"
);
}
);
width = 1836;
},
{
layerId = "CC8C8B2E-19C7-4699-A4BA-C120989B4E7F";
paths = (
{
closed = 1;
nodes = (
"496 0 LINE",
"496 664 LINE",
"752 952 LINE",
"1464 0 LINE",
"1764 0 LINE",
"904 1124 LINE",
"1764 2048 LINE",
"1440 2048 LINE",
"520 1032 LINE",
"496 1032 LINE",
"496 2048 LINE",
"248 2048 LINE",
"248 0 LINE"
);
}
);
width = 1836;
},
{
layerId = "4AC57EC0-C61C-4EDF-B407-033FA33D6AD3";
paths = (
{
closed = 1;
nodes = (
"384 0 LINE",
"384 668 LINE",
"692 1008 LINE",
"1544 0 LINE",
"1628 0 LINE",
"736 1056 LINE",
"1640 2048 LINE",
"1552 2048 LINE",
"392 772 LINE",
"384 772 LINE",
"384 2048 LINE",
"320 2048 LINE",
"320 0 LINE"
);
}
);
width = 1736;
},
{
layerId = "C8AA7CDC-6A04-46C8-87C6-418EC6DD01BE";
paths = (
{
closed = 1;
nodes = (
"688 0 LINE",
"688 528 LINE",
"872 768 LINE",
"1332 0 LINE",
"1996 0 LINE",
"1288 1136 LINE",
"1980 2048 LINE",
"1332 2048 LINE",
"716 1220 LINE",
"688 1220 LINE",
"688 2048 LINE",
"132 2048 LINE",
"132 0 LINE"
);
}
);
width = 2012;
},
{
layerId = "9DB0CBB1-7450-4B3A-8CA7-A9658A1D8B6A";
paths = (
{
closed = 1;
nodes = (
"688 0 LINE",
"688 528 LINE",
"872 768 LINE",
"1332 0 LINE",
"1996 0 LINE",
"1288 1136 LINE",
"1980 2048 LINE",
"1332 2048 LINE",
"716 1220 LINE",
"688 1220 LINE",
"688 2048 LINE",
"132 2048 LINE",
"132 0 LINE"
);
}
);
width = 2012;
},
{
layerId = "C0526DEC-9643-4CF7-8966-9E991C4F7D8C";
paths = (
{
closed = 1;
nodes = (
"384 0 LINE",
"384 668 LINE",
"692 1008 LINE",
"1544 0 LINE",
"1628 0 LINE",
"736 1056 LINE",
"1640 2048 LINE",
"1552 2048 LINE",
"392 772 LINE",
"384 772 LINE",
"384 2048 LINE",
"320 2048 LINE",
"320 0 LINE"
);
}
);
width = 1736;
}
);
unicode = 004B;
},
{
glyphname = L;
lastChange = "2019-07-05 23:44:36 +0000";
layers = (
{
layerId = "4005C4E1-7659-4C5E-9D78-13D17D50B24B";
paths = (
{
closed = 1;
nodes = (
"1448 0 LINE",
"1448 220 LINE",
"496 220 LINE",
"496 2048 LINE",
"248 2048 LINE",
"248 0 LINE"
);
}
);
width = 1584;
},
{
layerId = "CC8C8B2E-19C7-4699-A4BA-C120989B4E7F";
paths = (
{
closed = 1;
nodes = (
"1448 0 LINE",
"1448 220 LINE",
"496 220 LINE",
"496 2048 LINE",
"248 2048 LINE",
"248 0 LINE"
);
}
);
width = 1584;
},
{
layerId = "C0526DEC-9643-4CF7-8966-9E991C4F7D8C";
paths = (
{
closed = 1;
nodes = (
"1408 0 LINE",
"1408 64 LINE",
"384 64 LINE",
"384 2048 LINE",
"320 2048 LINE",
"320 0 LINE"
);
}
);
width = 1584;
},
{
layerId = "4AC57EC0-C61C-4EDF-B407-033FA33D6AD3";
paths = (
{
closed = 1;
nodes = (
"1408 0 LINE",
"1408 64 LINE",
"384 64 LINE",
"384 2048 LINE",
"320 2048 LINE",
"320 0 LINE"
);
}
);
width = 1584;
},
{
layerId = "C8AA7CDC-6A04-46C8-87C6-418EC6DD01BE";
paths = (
{
closed = 1;
nodes = (
"1516 0 LINE",
"1516 448 LINE",
"688 448 LINE",
"688 2048 LINE",
"132 2048 LINE",
"132 0 LINE"
);
}
);
width = 1608;
},
{
layerId = "9DB0CBB1-7450-4B3A-8CA7-A9658A1D8B6A";
paths = (
{
closed = 1;
nodes = (
"1516 0 LINE",
"1516 448 LINE",
"688 448 LINE",
"688 2048 LINE",
"132 2048 LINE",
"132 0 LINE"
);
}
);
width = 1608;
}
);
unicode = 004C;
},
{
glyphname = M;
lastChange = "2019-07-06 00:11:11 +0000";
layers = (
{
layerId = "4005C4E1-7659-4C5E-9D78-13D17D50B24B";
paths = (
{
closed = 1;
nodes = (
"248 0 LINE",
"480 0 LINE",
"480 1556 LINE",
"500 1556 LINE",
"1140 0 LINE",
"1364 0 LINE",
"2004 1556 LINE",
"2024 1556 LINE",
"2024 0 LINE",
"2256 0 LINE",
"2256 2048 LINE",
"1960 2048 LINE",
"1264 348 LINE",
"1240 348 LINE",
"544 2048 LINE",
"248 2048 LINE"
);
}
);
width = 2504;
},
{
layerId = "CC8C8B2E-19C7-4699-A4BA-C120989B4E7F";
paths = (
{
closed = 1;
nodes = (
"248 0 LINE",
"480 0 LINE",
"480 1668 LINE",
"500 1668 LINE",
"1650 0 LINE",
"1874 0 LINE",
"3004 1668 LINE",
"3024 1668 LINE",
"3024 0 LINE",
"3256 0 LINE",
"3256 2048 LINE",
"2960 2048 LINE",
"1774 348 LINE",
"1750 348 LINE",
"544 2048 LINE",
"248 2048 LINE"
);
}
);
width = 3504;
},
{
layerId = "4AC57EC0-C61C-4EDF-B407-033FA33D6AD3";
paths = (
{
closed = 1;
nodes = (
"320 0 LINE",
"384 0 LINE",
"384 1898 LINE",
"392 1898 LINE",
"1684 0 LINE",
"1768 0 LINE",
"3040 1898 LINE",
"3048 1898 LINE",
"3048 0 LINE",
"3112 0 LINE",
"3112 2048 LINE",
"3056 2048 LINE",
"1740 96 LINE",
"1712 96 LINE",
"376 2048 LINE",
"320 2048 LINE"
);
}
);
width = 3432;
},
{
layerId = "C8AA7CDC-6A04-46C8-87C6-418EC6DD01BE";
paths = (
{
closed = 1;
nodes = (
"132 0 LINE",
"676 0 LINE",
"676 1192 LINE",
"692 1192 LINE",
"1148 16 LINE",
"1476 16 LINE",
"1932 1184 LINE",
"1948 1184 LINE",
"1948 0 LINE",
"2492 0 LINE",
"2492 2048 LINE",
"1800 2048 LINE",
"1324 888 LINE",
"1300 888 LINE",
"824 2048 LINE",
"132 2048 LINE"
);
}
);
width = 2624;
},
{
layerId = "9DB0CBB1-7450-4B3A-8CA7-A9658A1D8B6A";
paths = (
{
closed = 1;
nodes = (
"132 0 LINE",
"676 0 LINE",
"676 1352 LINE",
"692 1352 LINE",
"1898 16 LINE",
"2226 16 LINE",
"3432 1344 LINE",
"3448 1344 LINE",
"3448 0 LINE",
"3992 0 LINE",
"3992 2048 LINE",
"3300 2048 LINE",
"2074 668 LINE",
"2050 668 LINE",
"824 2048 LINE",
"132 2048 LINE"
);
}
);
width = 4124;
},
{
layerId = "C0526DEC-9643-4CF7-8966-9E991C4F7D8C";
paths = (
{
closed = 1;
nodes = (
"320 0 LINE",
"384 0 LINE",
"384 1848 LINE",
"392 1848 LINE",
"1184 0 LINE",
"1248 0 LINE",
"2040 1848 LINE",
"2048 1848 LINE",
"2048 0 LINE",
"2112 0 LINE",
"2112 2048 LINE",
"2056 2048 LINE",
"1220 96 LINE",
"1212 96 LINE",
"376 2048 LINE",
"320 2048 LINE"
);
}
);
width = 2432;
}
);
unicode = 004D;
},
{
glyphname = N;
lastChange = "2019-07-05 23:52:49 +0000";
layers = (
{
layerId = "4005C4E1-7659-4C5E-9D78-13D17D50B24B";
paths = (
{
closed = 1;
nodes = (
"1628 2048 LINE",
"1628 436 LINE",
"1608 436 LINE",
"488 2048 LINE",
"248 2048 LINE",
"248 0 LINE",
"496 0 LINE",
"496 1608 LINE",
"516 1608 LINE",
"1632 0 LINE",
"1872 0 LINE",
"1872 2048 LINE"
);
}
);
width = 2120;
},
{
layerId = "CC8C8B2E-19C7-4699-A4BA-C120989B4E7F";
paths = (
{
closed = 1;
nodes = (
"2628 2048 LINE",
"2628 336 LINE",
"2608 336 LINE",
"488 2048 LINE",
"248 2048 LINE",
"248 0 LINE",
"496 0 LINE",
"496 1708 LINE",
"516 1708 LINE",
"2632 0 LINE",
"2872 0 LINE",
"2872 2048 LINE"
);
}
);
width = 3120;
},
{
layerId = "4AC57EC0-C61C-4EDF-B407-033FA33D6AD3";
paths = (
{
closed = 1;
nodes = (
"2792 2048 LINE",
"2792 90 LINE",
"2784 90 LINE",
"384 2048 LINE",
"320 2048 LINE",
"320 0 LINE",
"384 0 LINE",
"384 1958 LINE",
"392 1958 LINE",
"2792 0 LINE",
"2856 0 LINE",
"2856 2048 LINE"
);
}
);
width = 3176;
},
{
layerId = "C8AA7CDC-6A04-46C8-87C6-418EC6DD01BE";
paths = (
{
closed = 1;
nodes = (
"1348 2048 LINE",
"1348 976 LINE",
"1332 976 LINE",
"604 2048 LINE",
"132 2048 LINE",
"132 0 LINE",
"688 0 LINE",
"688 1076 LINE",
"700 1076 LINE",
"1440 0 LINE",
"1904 0 LINE",
"1904 2048 LINE"
);
}
);
width = 2036;
},
{
layerId = "9DB0CBB1-7450-4B3A-8CA7-A9658A1D8B6A";
paths = (
{
closed = 1;
nodes = (
"2848 2048 LINE",
"2848 636 LINE",
"2832 636 LINE",
"604 2048 LINE",
"132 2048 LINE",
"132 0 LINE",
"688 0 LINE",
"688 1396 LINE",
"700 1396 LINE",
"2940 0 LINE",
"3404 0 LINE",
"3404 2048 LINE"
);
}
);
width = 3536;
},
{
layerId = "C0526DEC-9643-4CF7-8966-9E991C4F7D8C";
paths = (
{
closed = 1;
nodes = (
"1792 2048 LINE",
"1792 120 LINE",
"1784 120 LINE",
"384 2048 LINE",
"320 2048 LINE",
"320 0 LINE",
"384 0 LINE",
"384 1928 LINE",
"392 1928 LINE",
"1792 0 LINE",
"1856 0 LINE",
"1856 2048 LINE"
);
}
);
width = 2176;
}
);
unicode = 004E;
},
{
glyphname = O;
lastChange = "2019-07-06 00:00:31 +0000";
layers = (
{
anchors = (
{
name = bottom;
position = "{1068, 0}";
},
{
name = top;
position = "{1068, 2304}";
}
);
layerId = "4005C4E1-7659-4C5E-9D78-13D17D50B24B";
paths = (
{
closed = 1;
nodes = (
"1448 204 OFFCURVE",
"1740 492 OFFCURVE",
"1738 1024 CURVE",
"1740 1556 OFFCURVE",
"1448 1844 OFFCURVE",
"1074 1844 CURVE SMOOTH",
"1072 1844 LINE",
"700 1844 OFFCURVE",
"408 1556 OFFCURVE",
"408 1024 CURVE",
"408 492 OFFCURVE",
"700 204 OFFCURVE",
"1072 204 CURVE SMOOTH",
"1074 204 LINE"
);
},
{
closed = 1;
nodes = (
"548 -28 OFFCURVE",
"168 376 OFFCURVE",
"168 1024 CURVE",
"168 1672 OFFCURVE",
"548 2076 OFFCURVE",
"1072 2076 CURVE SMOOTH",
"1074 2076 LINE",
"1599 2076 OFFCURVE",
"1979 1672 OFFCURVE",
"1978 1024 CURVE",
"1979 376 OFFCURVE",
"1599 -28 OFFCURVE",
"1074 -28 CURVE SMOOTH",
"1072 -28 LINE"
);
}
);
width = 2144;
},
{
anchors = (
{
name = bottom;
position = "{1572, 0}";
},
{
name = top;
position = "{1572, 2304}";
}
);
layerId = "CC8C8B2E-19C7-4699-A4BA-C120989B4E7F";
paths = (
{
closed = 1;
nodes = (
"2446 204 OFFCURVE",
"2738 492 OFFCURVE",
"2736 1024 CURVE",
"2738 1556 OFFCURVE",
"2446 1844 OFFCURVE",
"2072 1844 CURVE SMOOTH",
"1072 1844 LINE",
"700 1844 OFFCURVE",
"408 1556 OFFCURVE",
"408 1024 CURVE",
"408 492 OFFCURVE",
"700 204 OFFCURVE",
"1072 204 CURVE SMOOTH",
"2072 204 LINE"
);
},
{
closed = 1;
nodes = (
"548 -28 OFFCURVE",
"168 376 OFFCURVE",
"168 1024 CURVE",
"168 1672 OFFCURVE",
"548 2076 OFFCURVE",
"1072 2076 CURVE SMOOTH",
"2072 2076 LINE",
"2597 2076 OFFCURVE",
"2977 1672 OFFCURVE",
"2976 1024 CURVE",
"2977 376 OFFCURVE",
"2597 -28 OFFCURVE",
"2072 -28 CURVE SMOOTH",
"1072 -28 LINE"
);
}
);
width = 3144;
},
{
anchors = (
{
name = bottom;
position = "{1552, 0}";
},
{
name = top;
position = "{1552, 2304}";
}
);
layerId = "4AC57EC0-C61C-4EDF-B407-033FA33D6AD3";
paths = (
{
closed = 1;
nodes = (
"2521 36 OFFCURVE",
"2837 436 OFFCURVE",
"2836 1024 CURVE SMOOTH",
"2835 1612 OFFCURVE",
"2521 2012 OFFCURVE",
"2052 2012 CURVE",
"1052 2012 LINE SMOOTH",
"588 2012 OFFCURVE",
"268 1616 OFFCURVE",
"268 1024 CURVE SMOOTH",
"268 440 OFFCURVE",
"582 36 OFFCURVE",
"1052 36 CURVE SMOOTH",
"2052 36 LINE"
);
},
{
closed = 1;
nodes = (
"546 -28 OFFCURVE",
"204 400 OFFCURVE",
"204 1024 CURVE SMOOTH",
"204 1649 OFFCURVE",
"547 2076 OFFCURVE",
"1052 2076 CURVE SMOOTH",
"2052 2076 LINE",
"2558 2076 OFFCURVE",
"2900 1650 OFFCURVE",
"2900 1024 CURVE SMOOTH",
"2900 398 OFFCURVE",
"2558 -28 OFFCURVE",
"2052 -28 CURVE SMOOTH",
"1052 -28 LINE"
);
}
);
width = 3104;
},
{
anchors = (
{
name = bottom;
position = "{1120, 0}";
},
{
name = top;
position = "{1120, 2304}";
}
);
layerId = "C8AA7CDC-6A04-46C8-87C6-418EC6DD01BE";
paths = (
{
closed = 1;
nodes = (
"1398 456 OFFCURVE",
"1548 656 OFFCURVE",
"1546 1024 CURVE SMOOTH",
"1544 1392 OFFCURVE",
"1398 1592 OFFCURVE",
"1122 1592 CURVE SMOOTH",
"1120 1592 LINE",
"844 1592 OFFCURVE",
"696 1392 OFFCURVE",
"696 1024 CURVE SMOOTH",
"696 656 OFFCURVE",
"844 456 OFFCURVE",
"1120 456 CURVE SMOOTH",
"1122 456 LINE"
);
},
{
closed = 1;
nodes = (
"560 -28 OFFCURVE",
"124 344 OFFCURVE",
"124 1024 CURVE SMOOTH",
"124 1708 OFFCURVE",
"560 2076 OFFCURVE",
"1120 2076 CURVE SMOOTH",
"1122 2076 LINE",
"1677 2076 OFFCURVE",
"2119 1708 OFFCURVE",
"2118 1024 CURVE SMOOTH",
"2117 340 OFFCURVE",
"1677 -28 OFFCURVE",
"1122 -28 CURVE SMOOTH",
"1120 -28 LINE"
);
}
);
width = 2240;
},
{
anchors = (
{
name = bottom;
position = "{1870, 0}";
},
{
name = top;
position = "{1870, 2304}";
}
);
layerId = "9DB0CBB1-7450-4B3A-8CA7-A9658A1D8B6A";
paths = (
{
closed = 1;
nodes = (
"2896 456 OFFCURVE",
"3046 656 OFFCURVE",
"3044 1024 CURVE SMOOTH",
"3042 1392 OFFCURVE",
"2896 1592 OFFCURVE",
"2620 1592 CURVE SMOOTH",
"1120 1592 LINE",
"844 1592 OFFCURVE",
"696 1392 OFFCURVE",
"696 1024 CURVE SMOOTH",
"696 656 OFFCURVE",
"844 456 OFFCURVE",
"1120 456 CURVE SMOOTH",
"2620 456 LINE"
);
},
{
closed = 1;
nodes = (
"560 -28 OFFCURVE",
"124 344 OFFCURVE",
"124 1024 CURVE SMOOTH",
"124 1708 OFFCURVE",
"560 2076 OFFCURVE",
"1120 2076 CURVE SMOOTH",
"2620 2076 LINE",
"3175 2076 OFFCURVE",
"3617 1708 OFFCURVE",
"3616 1024 CURVE SMOOTH",
"3615 340 OFFCURVE",
"3175 -28 OFFCURVE",
"2620 -28 CURVE SMOOTH",
"1120 -28 LINE"
);
}
);
width = 3740;
},
{
anchors = (
{
name = bottom;
position = "{1052, 0}";
},
{
name = top;
position = "{1052, 2304}";
}
);
layerId = "C0526DEC-9643-4CF7-8966-9E991C4F7D8C";
paths = (
{
closed = 1;
nodes = (
"1524 36 OFFCURVE",
"1840 436 OFFCURVE",
"1838 1024 CURVE SMOOTH",
"1836 1612 OFFCURVE",
"1524 2012 OFFCURVE",
"1054 2012 CURVE",
"1052 2012 LINE SMOOTH",
"588 2012 OFFCURVE",
"268 1616 OFFCURVE",
"268 1024 CURVE SMOOTH",
"268 440 OFFCURVE",
"582 36 OFFCURVE",
"1052 36 CURVE SMOOTH",
"1054 36 LINE"
);
},
{
closed = 1;
nodes = (
"546 -28 OFFCURVE",
"204 400 OFFCURVE",
"204 1024 CURVE SMOOTH",
"204 1649 OFFCURVE",
"547 2076 OFFCURVE",
"1052 2076 CURVE SMOOTH",
"1054 2076 LINE",
"1561 2076 OFFCURVE",
"1903 1650 OFFCURVE",
"1902 1024 CURVE SMOOTH",
"1901 398 OFFCURVE",
"1561 -28 OFFCURVE",
"1054 -28 CURVE SMOOTH",
"1052 -28 LINE"
);
}
);
width = 2104;
}
);
unicode = 004F;
},
{
glyphname = P;
lastChange = "2019-07-06 00:02:20 +0000";
layers = (
{
layerId = "4005C4E1-7659-4C5E-9D78-13D17D50B24B";
paths = (
{
closed = 1;
nodes = (
"496 0 LINE",
"496 1828 LINE",
"932 1828 LINE SMOOTH",
"1265 1828 OFFCURVE",
"1392 1646 OFFCURVE",
"1392 1400 CURVE SMOOTH",
"1392 1154 OFFCURVE",
"1265 968 OFFCURVE",
"936 968 CURVE SMOOTH",
"448 968 LINE",
"448 748 LINE",
"944 748 LINE SMOOTH",
"1421 748 OFFCURVE",
"1636 1038 OFFCURVE",
"1636 1400 CURVE SMOOTH",
"1636 1762 OFFCURVE",
"1421 2048 OFFCURVE",
"940 2048 CURVE SMOOTH",
"248 2048 LINE",
"248 0 LINE"
);
}
);
width = 1788;
},
{
layerId = "CC8C8B2E-19C7-4699-A4BA-C120989B4E7F";
paths = (
{
closed = 1;
nodes = (
"496 0 LINE",
"496 1828 LINE",
"1932 1828 LINE SMOOTH",
"2265 1828 OFFCURVE",
"2392 1646 OFFCURVE",
"2392 1400 CURVE SMOOTH",
"2392 1154 OFFCURVE",
"2265 968 OFFCURVE",
"1936 968 CURVE SMOOTH",
"448 968 LINE",
"448 748 LINE",
"1944 748 LINE SMOOTH",
"2421 748 OFFCURVE",
"2636 1038 OFFCURVE",
"2636 1400 CURVE SMOOTH",
"2636 1762 OFFCURVE",
"2421 2048 OFFCURVE",
"1940 2048 CURVE SMOOTH",
"248 2048 LINE",
"248 0 LINE"
);
}
);
width = 2788;
},
{
layerId = "4AC57EC0-C61C-4EDF-B407-033FA33D6AD3";
paths = (
{
closed = 1;
nodes = (
"384 0 LINE",
"384 1984 LINE",
"1920 1984 LINE SMOOTH",
"2227 1984 OFFCURVE",
"2444 1762 OFFCURVE",
"2444 1448 CURVE SMOOTH",
"2444 1136 OFFCURVE",
"2227 916 OFFCURVE",
"1920 916 CURVE SMOOTH",
"352 916 LINE",
"352 852 LINE",
"1920 852 LINE SMOOTH",
"2264 852 OFFCURVE",
"2508 1099 OFFCURVE",
"2508 1448 CURVE SMOOTH",
"2508 1799 OFFCURVE",
"2264 2048 OFFCURVE",
"1920 2048 CURVE SMOOTH",
"320 2048 LINE",
"320 0 LINE"
);
}
);
width = 2708;
},
{
layerId = "C8AA7CDC-6A04-46C8-87C6-418EC6DD01BE";
paths = (
{
closed = 1;
nodes = (
"688 0 LINE",
"688 1604 LINE",
"884 1604 LINE SMOOTH",
"1079 1604 OFFCURVE",
"1196 1500 OFFCURVE",
"1196 1324 CURVE SMOOTH",
"1196 1149 OFFCURVE",
"1079 1040 OFFCURVE",
"884 1040 CURVE SMOOTH",
"468 1040 LINE",
"468 608 LINE",
"996 608 LINE SMOOTH",
"1463 608 OFFCURVE",
"1776 883 OFFCURVE",
"1776 1324 CURVE SMOOTH",
"1776 1760 OFFCURVE",
"1471 2048 OFFCURVE",
"1016 2048 CURVE SMOOTH",
"132 2048 LINE",
"132 0 LINE"
);
}
);
width = 1848;
},
{
layerId = "9DB0CBB1-7450-4B3A-8CA7-A9658A1D8B6A";
paths = (
{
closed = 1;
nodes = (
"688 0 LINE",
"688 1604 LINE",
"2384 1604 LINE SMOOTH",
"2579 1604 OFFCURVE",
"2696 1500 OFFCURVE",
"2696 1324 CURVE SMOOTH",
"2696 1149 OFFCURVE",
"2579 1040 OFFCURVE",
"2384 1040 CURVE SMOOTH",
"468 1040 LINE",
"468 608 LINE",
"2496 608 LINE SMOOTH",
"2963 608 OFFCURVE",
"3276 883 OFFCURVE",
"3276 1324 CURVE SMOOTH",
"3276 1760 OFFCURVE",
"2971 2048 OFFCURVE",
"2516 2048 CURVE SMOOTH",
"132 2048 LINE",
"132 0 LINE"
);
}
);
width = 3348;
},
{
layerId = "C0526DEC-9643-4CF7-8966-9E991C4F7D8C";
paths = (
{
closed = 1;
nodes = (
"384 0 LINE",
"384 1984 LINE",
"920 1984 LINE SMOOTH",
"1227 1984 OFFCURVE",
"1444 1762 OFFCURVE",
"1444 1448 CURVE SMOOTH",
"1444 1136 OFFCURVE",
"1227 916 OFFCURVE",
"920 916 CURVE SMOOTH",
"352 916 LINE",
"352 852 LINE",
"920 852 LINE SMOOTH",
"1264 852 OFFCURVE",
"1508 1099 OFFCURVE",
"1508 1448 CURVE SMOOTH",
"1508 1799 OFFCURVE",
"1264 2048 OFFCURVE",
"920 2048 CURVE SMOOTH",
"320 2048 LINE",
"320 0 LINE"
);
}
);
width = 1708;
}
);
unicode = 0050;
},
{
glyphname = Q;
lastChange = "2019-07-06 00:06:03 +0000";
layers = (
{
components = (
{
name = O;
}
);
layerId = "4005C4E1-7659-4C5E-9D78-13D17D50B24B";
paths = (
{
closed = 1;
nodes = (
"1340 184 LINE",
"1396 108 LINE",
"1620 -192 LINE",
"1892 -192 LINE",
"1552 260 LINE",
"1492 340 LINE",
"1264 640 LINE",
"992 640 LINE"
);
},
{
closed = 1;
nodes = (
"1340 184 LINE",
"1396 108 LINE",
"1620 -192 LINE",
"1892 -192 LINE",
"1552 260 LINE",
"1492 340 LINE",
"1264 640 LINE",
"992 640 LINE"
);
}
);
width = 2144;
},
{
components = (
{
name = O;
}
);
layerId = "CC8C8B2E-19C7-4699-A4BA-C120989B4E7F";
paths = (
{
closed = 1;
nodes = (
"2366 184 LINE",
"2422 108 LINE",
"2646 -192 LINE",
"2918 -192 LINE",
"2578 260 LINE",
"2518 340 LINE",
"2290 640 LINE",
"2018 640 LINE"
);
},
{
closed = 1;
nodes = (
"2366 184 LINE",
"2422 108 LINE",
"2646 -192 LINE",
"2918 -192 LINE",
"2578 260 LINE",
"2518 340 LINE",
"2290 640 LINE",
"2018 640 LINE"
);
}
);
width = 3144;
},
{
components = (
{
name = O;
}
);
layerId = "4AC57EC0-C61C-4EDF-B407-033FA33D6AD3";
paths = (
{
closed = 1;
nodes = (
"2458 168 LINE",
"2470 152 LINE",
"2730 -192 LINE",
"2810 -192 LINE",
"2526 184 LINE",
"2514 200 LINE",
"2182 640 LINE",
"2102 640 LINE"
);
},
{
closed = 1;
nodes = (
"2458 168 LINE",
"2470 152 LINE",
"2730 -192 LINE",
"2810 -192 LINE",
"2526 184 LINE",
"2514 200 LINE",
"2182 640 LINE",
"2102 640 LINE"
);
}
);
width = 3104;
},
{
components = (
{
name = O;
}
);
layerId = "C8AA7CDC-6A04-46C8-87C6-418EC6DD01BE";
paths = (
{
closed = 1;
nodes = (
"1220 368 LINE",
"1384 132 LINE",
"1628 -152 LINE",
"2120 -152 LINE",
"1776 264 LINE",
"1512 564 LINE",
"1356 760 LINE",
"924 760 LINE"
);
},
{
closed = 1;
nodes = (
"1220 368 LINE",
"1384 132 LINE",
"1628 -152 LINE",
"2120 -152 LINE",
"1776 264 LINE",
"1512 564 LINE",
"1356 760 LINE",
"924 760 LINE"
);
}
);
width = 2240;
},
{
components = (
{
name = O;
}
);
layerId = "9DB0CBB1-7450-4B3A-8CA7-A9658A1D8B6A";
paths = (
{
closed = 1;
nodes = (
"2720 368 LINE",
"2884 132 LINE",
"3128 -152 LINE",
"3620 -152 LINE",
"3276 264 LINE",
"3012 564 LINE",
"2856 760 LINE",
"2424 760 LINE"
);
},
{
closed = 1;
nodes = (
"2720 368 LINE",
"2884 132 LINE",
"3128 -152 LINE",
"3620 -152 LINE",
"3276 264 LINE",
"3012 564 LINE",
"2856 760 LINE",
"2424 760 LINE"
);
}
);
width = 3740;
},
{
components = (
{
name = O;
}
);
layerId = "C0526DEC-9643-4CF7-8966-9E991C4F7D8C";
paths = (
{
closed = 1;
nodes = (
"1488 168 LINE",
"1500 152 LINE",
"1760 -192 LINE",
"1840 -192 LINE",
"1556 184 LINE",
"1544 200 LINE",
"1212 640 LINE",
"1132 640 LINE"
);
},
{
closed = 1;
nodes = (
"1488 168 LINE",
"1500 152 LINE",
"1760 -192 LINE",
"1840 -192 LINE",
"1556 184 LINE",
"1544 200 LINE",
"1212 640 LINE",
"1132 640 LINE"
);
}
);
width = 2104;
}
);
unicode = 0051;
},
{
glyphname = R;
lastChange = "2019-07-06 00:07:53 +0000";
layers = (
{
layerId = "4005C4E1-7659-4C5E-9D78-13D17D50B24B";
paths = (
{
closed = 1;
nodes = (
"496 0 LINE",
"496 1828 LINE",
"932 1828 LINE SMOOTH",
"1264 1828 OFFCURVE",
"1392 1666 OFFCURVE",
"1392 1420 CURVE SMOOTH",
"1392 1174 OFFCURVE",
"1264 1024 OFFCURVE",
"936 1024 CURVE SMOOTH",
"384 1024 LINE",
"384 800 LINE",
"944 800 LINE SMOOTH",
"1420 800 OFFCURVE",
"1636 1058 OFFCURVE",
"1636 1420 CURVE SMOOTH",
"1636 1782 OFFCURVE",
"1420 2048 OFFCURVE",
"940 2048 CURVE SMOOTH",
"248 2048 LINE",
"248 0 LINE"
);
},
{
closed = 1;
nodes = (
"932 920 LINE",
"1428 0 LINE",
"1716 0 LINE",
"1212 920 LINE"
);
}
);
width = 1800;
},
{
layerId = "CC8C8B2E-19C7-4699-A4BA-C120989B4E7F";
paths = (
{
closed = 1;
nodes = (
"496 0 LINE",
"496 1828 LINE",
"1932 1828 LINE SMOOTH",
"2264 1828 OFFCURVE",
"2392 1666 OFFCURVE",
"2392 1420 CURVE SMOOTH",
"2392 1174 OFFCURVE",
"2264 1024 OFFCURVE",
"1936 1024 CURVE SMOOTH",
"384 1024 LINE",
"384 800 LINE",
"1944 800 LINE SMOOTH",
"2420 800 OFFCURVE",
"2636 1058 OFFCURVE",
"2636 1420 CURVE SMOOTH",
"2636 1782 OFFCURVE",
"2420 2048 OFFCURVE",
"1940 2048 CURVE SMOOTH",
"248 2048 LINE",
"248 0 LINE"
);
},
{
closed = 1;
nodes = (
"1932 920 LINE",
"2428 0 LINE",
"2716 0 LINE",
"2212 920 LINE"
);
}
);
width = 2800;
},
{
layerId = "4AC57EC0-C61C-4EDF-B407-033FA33D6AD3";
paths = (
{
closed = 1;
nodes = (
"384 0 LINE",
"384 1984 LINE",
"1920 1984 LINE SMOOTH",
"2227 1984 OFFCURVE",
"2444 1778 OFFCURVE",
"2444 1464 CURVE SMOOTH",
"2444 1152 OFFCURVE",
"2227 948 OFFCURVE",
"1920 948 CURVE SMOOTH",
"352 948 LINE",
"352 884 LINE",
"1920 884 LINE SMOOTH",
"2264 884 OFFCURVE",
"2508 1115 OFFCURVE",
"2508 1464 CURVE SMOOTH",
"2508 1815 OFFCURVE",
"2264 2048 OFFCURVE",
"1920 2048 CURVE SMOOTH",
"320 2048 LINE",
"320 0 LINE"
);
},
{
closed = 1;
nodes = (
"2028 932 LINE",
"2532 0 LINE",
"2604 0 LINE",
"2100 932 LINE"
);
}
);
width = 2732;
},
{
layerId = "C8AA7CDC-6A04-46C8-87C6-418EC6DD01BE";
paths = (
{
closed = 1;
nodes = (
"688 0 LINE",
"688 1604 LINE",
"884 1604 LINE SMOOTH",
"1079 1604 OFFCURVE",
"1196 1528 OFFCURVE",
"1196 1352 CURVE SMOOTH",
"1196 1177 OFFCURVE",
"1079 1108 OFFCURVE",
"884 1108 CURVE SMOOTH",
"468 1108 LINE",
"468 676 LINE",
"996 676 LINE SMOOTH",
"1463 676 OFFCURVE",
"1776 911 OFFCURVE",
"1776 1352 CURVE SMOOTH",
"1776 1788 OFFCURVE",
"1471 2048 OFFCURVE",
"1016 2048 CURVE SMOOTH",
"132 2048 LINE",
"132 0 LINE"
);
},
{
closed = 1;
nodes = (
"740 940 LINE",
"1240 0 LINE",
"1844 0 LINE",
"1332 940 LINE"
);
}
);
width = 1880;
},
{
layerId = "9DB0CBB1-7450-4B3A-8CA7-A9658A1D8B6A";
paths = (
{
closed = 1;
nodes = (
"688 0 LINE",
"688 1604 LINE",
"2384 1604 LINE SMOOTH",
"2579 1604 OFFCURVE",
"2696 1528 OFFCURVE",
"2696 1352 CURVE SMOOTH",
"2696 1177 OFFCURVE",
"2579 1108 OFFCURVE",
"2384 1108 CURVE SMOOTH",
"468 1108 LINE",
"468 676 LINE",
"2496 676 LINE SMOOTH",
"2963 676 OFFCURVE",
"3276 911 OFFCURVE",
"3276 1352 CURVE SMOOTH",
"3276 1788 OFFCURVE",
"2971 2048 OFFCURVE",
"2516 2048 CURVE SMOOTH",
"132 2048 LINE",
"132 0 LINE"
);
},
{
closed = 1;
nodes = (
"2240 940 LINE",
"2740 0 LINE",
"3344 0 LINE",
"2832 940 LINE"
);
}
);
width = 3380;
},
{
layerId = "C0526DEC-9643-4CF7-8966-9E991C4F7D8C";
paths = (
{
closed = 1;
nodes = (
"384 0 LINE",
"384 1984 LINE",
"920 1984 LINE SMOOTH",
"1227 1984 OFFCURVE",
"1444 1778 OFFCURVE",
"1444 1464 CURVE SMOOTH",
"1444 1152 OFFCURVE",
"1227 948 OFFCURVE",
"920 948 CURVE SMOOTH",
"352 948 LINE",
"352 884 LINE",
"920 884 LINE SMOOTH",
"1264 884 OFFCURVE",
"1508 1115 OFFCURVE",
"1508 1464 CURVE SMOOTH",
"1508 1815 OFFCURVE",
"1264 2048 OFFCURVE",
"920 2048 CURVE SMOOTH",
"320 2048 LINE",
"320 0 LINE"
);
},
{
closed = 1;
nodes = (
"1028 932 LINE",
"1532 0 LINE",
"1604 0 LINE",
"1100 932 LINE"
);
}
);
width = 1732;
}
);
unicode = 0052;
},
{
glyphname = S;
lastChange = "2019-07-06 19:45:49 +0000";
layers = (
{
layerId = "4005C4E1-7659-4C5E-9D78-13D17D50B24B";
paths = (
{
closed = 1;
nodes = (
"1638 1520 LINE",
"1637 1838 OFFCURVE",
"1349 2076 OFFCURVE",
"946 2076 CURVE SMOOTH",
"916 2076 LINE SMOOTH",
"524 2076 OFFCURVE",
"216 1848 OFFCURVE",
"216 1504 CURVE SMOOTH",
"216 1228 OFFCURVE",
"414 1064 OFFCURVE",
"736 972 CURVE SMOOTH",
"990 900 LINE SMOOTH",
"1210 838 OFFCURVE",
"1398 764 OFFCURVE",
"1398 560 CURVE SMOOTH",
"1398 336 OFFCURVE",
"1182 188 OFFCURVE",
"898 188 CURVE SMOOTH",
"896 188 LINE SMOOTH",
"652 188 OFFCURVE",
"436 296 OFFCURVE",
"416 528 CURVE",
"160 528 LINE",
"184 192 OFFCURVE",
"456 -36 OFFCURVE",
"896 -36 CURVE SMOOTH",
"898 -36 LINE SMOOTH",
"1370 -36 OFFCURVE",
"1638 224 OFFCURVE",
"1638 556 CURVE SMOOTH",
"1638 940 OFFCURVE",
"1278 1064 OFFCURVE",
"1062 1120 CURVE SMOOTH",
"852 1176 LINE SMOOTH",
"700 1218 OFFCURVE",
"456 1296 OFFCURVE",
"456 1516 CURVE SMOOTH",
"456 1712 OFFCURVE",
"636 1856 OFFCURVE",
"908 1856 CURVE SMOOTH",
"938 1856 LINE SMOOTH",
"1192 1856 OFFCURVE",
"1384 1732 OFFCURVE",
"1400 1520 CURVE"
);
}
);
width = 1796;
},
{
layerId = "CC8C8B2E-19C7-4699-A4BA-C120989B4E7F";
paths = (
{
closed = 1;
nodes = (
"2636 1520 LINE",
"2635 1838 OFFCURVE",
"2347 2076 OFFCURVE",
"1944 2076 CURVE SMOOTH",
"916 2076 LINE SMOOTH",
"524 2076 OFFCURVE",
"216 1848 OFFCURVE",
"216 1504 CURVE SMOOTH",
"216 1228 OFFCURVE",
"406 992 OFFCURVE",
"736 972 CURVE SMOOTH",
"1988 900 LINE SMOOTH",
"2212 888 OFFCURVE",
"2396 764 OFFCURVE",
"2396 560 CURVE SMOOTH",
"2396 336 OFFCURVE",
"2180 188 OFFCURVE",
"1896 188 CURVE SMOOTH",
"896 188 LINE SMOOTH",
"652 188 OFFCURVE",
"436 296 OFFCURVE",
"416 528 CURVE",
"160 528 LINE",
"184 192 OFFCURVE",
"456 -36 OFFCURVE",
"896 -36 CURVE SMOOTH",
"1896 -36 LINE SMOOTH",
"2368 -36 OFFCURVE",
"2636 224 OFFCURVE",
"2636 556 CURVE SMOOTH",
"2636 940 OFFCURVE",
"2280 1110 OFFCURVE",
"2060 1120 CURVE SMOOTH",
"852 1176 LINE SMOOTH",
"698 1184 OFFCURVE",
"456 1296 OFFCURVE",
"456 1516 CURVE SMOOTH",
"456 1712 OFFCURVE",
"636 1856 OFFCURVE",
"908 1856 CURVE SMOOTH",
"1936 1856 LINE SMOOTH",
"2190 1856 OFFCURVE",
"2382 1732 OFFCURVE",
"2398 1520 CURVE"
);
}
);
width = 2796;
},
{
layerId = "4AC57EC0-C61C-4EDF-B407-033FA33D6AD3";
paths = (
{
closed = 1;
nodes = (
"2460 1520 LINE",
"2448 1844 OFFCURVE",
"2210 2080 OFFCURVE",
"1852 2080 CURVE",
"872 2080 LINE SMOOTH",
"522 2080 OFFCURVE",
"264 1854 OFFCURVE",
"264 1552 CURVE SMOOTH",
"264 1316 OFFCURVE",
"410 1068 OFFCURVE",
"744 1048 CURVE SMOOTH",
"1928 976 LINE SMOOTH",
"2276 956 OFFCURVE",
"2398 742 OFFCURVE",
"2396 520 CURVE SMOOTH",
"2396 230 OFFCURVE",
"2160 32 OFFCURVE",
"1808 32 CURVE SMOOTH",
"904 32 LINE SMOOTH",
"566 32 OFFCURVE",
"348 216 OFFCURVE",
"328 480 CURVE",
"264 480 LINE",
"284 180 OFFCURVE",
"530 -32 OFFCURVE",
"904 -32 CURVE SMOOTH",
"1808 -32 LINE SMOOTH",
"2196 -34 OFFCURVE",
"2460 198 OFFCURVE",
"2460 520 CURVE SMOOTH",
"2462 774 OFFCURVE",
"2314 1018 OFFCURVE",
"1944 1040 CURVE SMOOTH",
"760 1112 LINE SMOOTH",
"458 1130 OFFCURVE",
"328 1344 OFFCURVE",
"328 1552 CURVE SMOOTH",
"328 1822 OFFCURVE",
"560 2016 OFFCURVE",
"872 2016 CURVE SMOOTH",
"1852 2016 LINE",
"2176 2016 OFFCURVE",
"2384 1808 OFFCURVE",
"2396 1520 CURVE"
);
}
);
width = 2724;
},
{
layerId = "C8AA7CDC-6A04-46C8-87C6-418EC6DD01BE";
paths = (
{
closed = 1;
nodes = (
"1772 1392 LINE",
"1778 1803 OFFCURVE",
"1467 2076 OFFCURVE",
"964 2076 CURVE SMOOTH",
"960 2076 LINE SMOOTH",
"474 2076 OFFCURVE",
"130 1814 OFFCURVE",
"132 1424 CURVE SMOOTH",
"132 1104 OFFCURVE",
"348 927 OFFCURVE",
"716 848 CURVE SMOOTH",
"922 804 LINE SMOOTH",
"1152 755 OFFCURVE",
"1228 698 OFFCURVE",
"1230 604 CURVE SMOOTH {name = hr00;}",
"1228 502 OFFCURVE",
"1136 432 OFFCURVE",
"958 432 CURVE SMOOTH",
"956 432 LINE SMOOTH",
"744 432 OFFCURVE",
"618 532 OFFCURVE",
"608 720 CURVE",
"80 720 LINE",
"82 206 OFFCURVE",
"430 -24 OFFCURVE",
"964 -24 CURVE SMOOTH",
"966 -24 LINE SMOOTH",
"1484 -24 OFFCURVE",
"1796 200 OFFCURVE",
"1798 604 CURVE",
"1796 916 OFFCURVE",
"1612 1136 OFFCURVE",
"1158 1232 CURVE SMOOTH",
"988 1268 LINE SMOOTH",
"792 1310 OFFCURVE",
"708 1366 OFFCURVE",
"712 1464 CURVE SMOOTH",
"714 1554 OFFCURVE",
"788 1620 OFFCURVE",
"960 1620 CURVE SMOOTH",
"964 1620 LINE SMOOTH",
"1151 1620 OFFCURVE",
"1237 1535 OFFCURVE",
"1240 1392 CURVE"
);
}
);
width = 1876;
},
{
layerId = "9DB0CBB1-7450-4B3A-8CA7-A9658A1D8B6A";
paths = (
{
closed = 1;
nodes = (
"3270 1392 LINE",
"3276 1804 OFFCURVE",
"2966 2076 OFFCURVE",
"2462 2076 CURVE SMOOTH",
"960 2076 LINE SMOOTH",
"474 2076 OFFCURVE",
"130 1814 OFFCURVE",
"132 1424 CURVE SMOOTH",
"132 1104 OFFCURVE",
"348 858 OFFCURVE",
"716 848 CURVE SMOOTH",
"2420 804 LINE SMOOTH",
"2654 798 OFFCURVE",
"2726 698 OFFCURVE",
"2728 604 CURVE SMOOTH {name = hr00;}",
"2726 502 OFFCURVE",
"2634 432 OFFCURVE",
"2456 432 CURVE SMOOTH",
"956 432 LINE SMOOTH",
"744 432 OFFCURVE",
"618 532 OFFCURVE",
"608 720 CURVE",
"80 720 LINE",
"82 206 OFFCURVE",
"430 -24 OFFCURVE",
"964 -24 CURVE SMOOTH",
"2464 -24 LINE SMOOTH",
"2982 -26 OFFCURVE",
"3294 200 OFFCURVE",
"3296 604 CURVE",
"3294 916 OFFCURVE",
"3118 1222 OFFCURVE",
"2656 1232 CURVE SMOOTH",
"988 1268 LINE SMOOTH",
"792 1272 OFFCURVE",
"708 1366 OFFCURVE",
"712 1464 CURVE SMOOTH",
"714 1554 OFFCURVE",
"788 1620 OFFCURVE",
"960 1620 CURVE SMOOTH",
"2462 1620 LINE SMOOTH",
"2650 1620 OFFCURVE",
"2736 1536 OFFCURVE",
"2738 1392 CURVE"
);
}
);
width = 3376;
},
{
layerId = "C0526DEC-9643-4CF7-8966-9E991C4F7D8C";
paths = (
{
closed = 1;
nodes = (
"1558 1520 LINE",
"1546 1844 OFFCURVE",
"1308 2080 OFFCURVE",
"950 2080 CURVE SMOOTH",
"872 2080 LINE SMOOTH",
"522 2080 OFFCURVE",
"264 1854 OFFCURVE",
"264 1552 CURVE SMOOTH",
"264 1316 OFFCURVE",
"418 1132 OFFCURVE",
"744 1048 CURVE SMOOTH",
"1026 976 LINE SMOOTH",
"1366 890 OFFCURVE",
"1496 742 OFFCURVE",
"1494 520 CURVE SMOOTH",
"1494 230 OFFCURVE",
"1258 32 OFFCURVE",
"906 32 CURVE SMOOTH",
"904 32 LINE SMOOTH",
"566 32 OFFCURVE",
"348 216 OFFCURVE",
"328 480 CURVE",
"264 480 LINE",
"284 180 OFFCURVE",
"530 -32 OFFCURVE",
"904 -32 CURVE SMOOTH",
"906 -32 LINE SMOOTH",
"1294 -32 OFFCURVE",
"1558 198 OFFCURVE",
"1558 520 CURVE SMOOTH",
"1558 774 OFFCURVE",
"1404 948 OFFCURVE",
"1042 1040 CURVE SMOOTH",
"760 1112 LINE SMOOTH",
"464 1188 OFFCURVE",
"328 1344 OFFCURVE",
"328 1552 CURVE SMOOTH",
"328 1822 OFFCURVE",
"560 2016 OFFCURVE",
"872 2016 CURVE SMOOTH",
"950 2016 LINE SMOOTH",
"1274 2016 OFFCURVE",
"1482 1808 OFFCURVE",
"1494 1520 CURVE"
);
}
);
width = 1724;
}
);
unicode = 0053;
},
{
glyphname = T;
lastChange = "2019-07-06 11:09:39 +0000";
layers = (
{
layerId = "4005C4E1-7659-4C5E-9D78-13D17D50B24B";
paths = (
{
closed = 1;
nodes = (
"780 1828 LINE",
"780 0 LINE",
"1028 0 LINE",
"1028 1828 LINE",
"1672 1828 LINE",
"1672 2048 LINE",
"136 2048 LINE",
"136 1828 LINE"
);
}
);
width = 1808;
},
{
layerId = "CC8C8B2E-19C7-4699-A4BA-C120989B4E7F";
paths = (
{
closed = 1;
nodes = (
"1240 1828 LINE",
"1240 0 LINE",
"1488 0 LINE",
"1488 1828 LINE",
"2672 1828 LINE",
"2672 2048 LINE",
"136 2048 LINE",
"136 1828 LINE"
);
}
);
width = 2808;
},
{
layerId = "4AC57EC0-C61C-4EDF-B407-033FA33D6AD3";
paths = (
{
closed = 1;
nodes = (
"1332 1984 LINE",
"1332 0 LINE",
"1396 0 LINE",
"1396 1984 LINE",
"2556 1984 LINE",
"2556 2048 LINE",
"172 2048 LINE",
"172 1984 LINE"
);
}
);
width = 2728;
},
{
layerId = "C8AA7CDC-6A04-46C8-87C6-418EC6DD01BE";
paths = (
{
closed = 1;
nodes = (
"692 1600 LINE",
"692 0 LINE",
"1240 0 LINE",
"1240 1600 LINE",
"1856 1600 LINE",
"1856 2048 LINE",
"76 2048 LINE",
"76 1600 LINE"
);
}
);
width = 1932;
},
{
layerId = "9DB0CBB1-7450-4B3A-8CA7-A9658A1D8B6A";
paths = (
{
closed = 1;
nodes = (
"1440 1600 LINE",
"1440 0 LINE",
"1988 0 LINE",
"1988 1600 LINE",
"3356 1600 LINE",
"3356 2048 LINE",
"76 2048 LINE",
"76 1600 LINE"
);
}
);
width = 3432;
},
{
layerId = "C0526DEC-9643-4CF7-8966-9E991C4F7D8C";
paths = (
{
closed = 1;
nodes = (
"832 1984 LINE",
"832 0 LINE",
"896 0 LINE",
"896 1984 LINE",
"1556 1984 LINE",
"1556 2048 LINE",
"172 2048 LINE",
"172 1984 LINE"
);
}
);
width = 1728;
}
);
unicode = 0054;
},
{
glyphname = U;
lastChange = "2019-07-06 19:45:15 +0000";
layers = (
{
anchors = (
{
name = top;
position = "{1044, 2304}";
}
);
layerId = "4005C4E1-7659-4C5E-9D78-13D17D50B24B";
paths = (
{
closed = 1;
nodes = (
"1338 196 OFFCURVE",
"1594 372 OFFCURVE",
"1594 692 CURVE SMOOTH",
"1594 2048 LINE",
"1842 2048 LINE",
"1842 692 LINE",
"1842 232 OFFCURVE",
"1478 -36 OFFCURVE",
"1046 -36 CURVE SMOOTH",
"1044 -36 LINE SMOOTH",
"612 -36 OFFCURVE",
"248 232 OFFCURVE",
"248 692 CURVE",
"248 2048 LINE",
"496 2048 LINE",
"496 692 LINE SMOOTH",
"496 372 OFFCURVE",
"752 196 OFFCURVE",
"1044 196 CURVE SMOOTH",
"1046 196 LINE SMOOTH"
);
}
);
width = 2088;
},
{
anchors = (
{
name = top;
position = "{1544, 2304}";
}
);
layerId = "CC8C8B2E-19C7-4699-A4BA-C120989B4E7F";
paths = (
{
closed = 1;
nodes = (
"2336 196 OFFCURVE",
"2592 372 OFFCURVE",
"2592 692 CURVE SMOOTH",
"2592 2048 LINE",
"2840 2048 LINE",
"2840 692 LINE",
"2840 232 OFFCURVE",
"2476 -36 OFFCURVE",
"2044 -36 CURVE SMOOTH",
"1044 -36 LINE SMOOTH",
"612 -36 OFFCURVE",
"248 232 OFFCURVE",
"248 692 CURVE",
"248 2048 LINE",
"496 2048 LINE",
"496 692 LINE SMOOTH",
"496 372 OFFCURVE",
"752 196 OFFCURVE",
"1044 196 CURVE SMOOTH",
"2044 196 LINE SMOOTH"
);
}
);
width = 3088;
},
{
anchors = (
{
name = top;
position = "{1556, 2304}";
}
);
layerId = "4AC57EC0-C61C-4EDF-B407-033FA33D6AD3";
paths = (
{
closed = 1;
nodes = (
"2442 32 OFFCURVE",
"2728 314 OFFCURVE",
"2728 692 CURVE SMOOTH",
"2728 2048 LINE",
"2792 2048 LINE",
"2792 692 LINE SMOOTH",
"2792 278 OFFCURVE",
"2478 -32 OFFCURVE",
"2056 -32 CURVE SMOOTH",
"1056 -32 LINE SMOOTH",
"638 -32 OFFCURVE",
"318 278 OFFCURVE",
"320 692 CURVE SMOOTH",
"320 2048 LINE",
"384 2048 LINE",
"384 692 LINE SMOOTH",
"384 314 OFFCURVE",
"670 32 OFFCURVE",
"1056 32 CURVE SMOOTH",
"2056 32 LINE SMOOTH"
);
}
);
width = 3112;
},
{
anchors = (
{
name = top;
position = "{1044, 2304}";
}
);
layerId = "C8AA7CDC-6A04-46C8-87C6-418EC6DD01BE";
paths = (
{
closed = 1;
nodes = (
"1226 466 OFFCURVE",
"1350 570 OFFCURVE",
"1350 720 CURVE SMOOTH",
"1350 2048 LINE",
"1902 2048 LINE",
"1902 696 LINE",
"1902 230 OFFCURVE",
"1554 -24 OFFCURVE",
"1018 -24 CURVE SMOOTH",
"1016 -24 LINE SMOOTH",
"476 -24 OFFCURVE",
"132 228 OFFCURVE",
"132 696 CURVE",
"132 2048 LINE",
"688 2048 LINE",
"688 720 LINE SMOOTH",
"688 568 OFFCURVE",
"812 464 OFFCURVE",
"1016 464 CURVE SMOOTH",
"1018 464 LINE SMOOTH"
);
}
);
width = 2032;
},
{
anchors = (
{
name = top;
position = "{1766, 2304}";
}
);
layerId = "9DB0CBB1-7450-4B3A-8CA7-A9658A1D8B6A";
paths = (
{
closed = 1;
nodes = (
"2724 466 OFFCURVE",
"2848 570 OFFCURVE",
"2848 720 CURVE SMOOTH",
"2848 2048 LINE",
"3400 2048 LINE",
"3400 696 LINE",
"3400 230 OFFCURVE",
"3052 -24 OFFCURVE",
"2516 -24 CURVE SMOOTH",
"1016 -24 LINE SMOOTH",
"476 -24 OFFCURVE",
"132 228 OFFCURVE",
"132 696 CURVE",
"132 2048 LINE",
"688 2048 LINE",
"688 720 LINE SMOOTH",
"688 568 OFFCURVE",
"812 464 OFFCURVE",
"1016 464 CURVE SMOOTH",
"2516 464 LINE SMOOTH"
);
}
);
width = 3532;
},
{
anchors = (
{
name = top;
position = "{1056, 2304}";
}
);
layerId = "C0526DEC-9643-4CF7-8966-9E991C4F7D8C";
paths = (
{
closed = 1;
nodes = (
"1444 32 OFFCURVE",
"1730 314 OFFCURVE",
"1730 692 CURVE SMOOTH",
"1730 2048 LINE",
"1794 2048 LINE",
"1794 692 LINE SMOOTH",
"1794 278 OFFCURVE",
"1480 -32 OFFCURVE",
"1058 -32 CURVE SMOOTH",
"1056 -32 LINE SMOOTH",
"638 -32 OFFCURVE",
"318 278 OFFCURVE",
"320 692 CURVE SMOOTH",
"320 2048 LINE",
"384 2048 LINE",
"384 692 LINE SMOOTH",
"384 314 OFFCURVE",
"670 32 OFFCURVE",
"1056 32 CURVE SMOOTH",
"1058 32 LINE SMOOTH"
);
}
);
width = 2112;
}
);
unicode = 0055;
},
{
glyphname = V;
lastChange = "2019-07-06 11:10:39 +0000";
layers = (
{
layerId = "4005C4E1-7659-4C5E-9D78-13D17D50B24B";
paths = (
{
closed = 1;
nodes = (
"72 2048 LINE",
"824 0 LINE",
"1080 0 LINE",
"1832 2048 LINE",
"1572 2048 LINE",
"964 324 LINE",
"940 324 LINE",
"332 2048 LINE"
);
}
);
width = 1904;
},
{
layerId = "CC8C8B2E-19C7-4699-A4BA-C120989B4E7F";
paths = (
{
closed = 1;
nodes = (
"72 2048 LINE",
"1328 0 LINE",
"1584 0 LINE",
"2832 2048 LINE",
"2572 2048 LINE",
"1468 244 LINE",
"1444 244 LINE",
"332 2048 LINE"
);
}
);
width = 2904;
},
{
layerId = "4AC57EC0-C61C-4EDF-B407-033FA33D6AD3";
paths = (
{
closed = 1;
nodes = (
"92 2048 LINE",
"1324 0 LINE",
"1412 0 LINE",
"2644 2048 LINE",
"2576 2048 LINE",
"1372 48 LINE",
"1364 48 LINE",
"160 2048 LINE"
);
}
);
width = 2736;
},
{
layerId = "C8AA7CDC-6A04-46C8-87C6-418EC6DD01BE";
paths = (
{
closed = 1;
nodes = (
"64 2048 LINE",
"740 0 LINE",
"1500 0 LINE",
"2176 2048 LINE",
"1548 2048 LINE",
"1128 604 LINE",
"1112 604 LINE",
"692 2048 LINE"
);
}
);
width = 2240;
},
{
layerId = "9DB0CBB1-7450-4B3A-8CA7-A9658A1D8B6A";
paths = (
{
closed = 1;
nodes = (
"64 2048 LINE",
"1488 0 LINE",
"2248 0 LINE",
"3676 2048 LINE",
"3048 2048 LINE",
"1876 424 LINE",
"1860 424 LINE",
"692 2048 LINE"
);
}
);
width = 3740;
},
{
layerId = "C0526DEC-9643-4CF7-8966-9E991C4F7D8C";
paths = (
{
closed = 1;
nodes = (
"92 2048 LINE",
"824 0 LINE",
"912 0 LINE",
"1644 2048 LINE",
"1576 2048 LINE",
"872 80 LINE",
"864 80 LINE",
"160 2048 LINE"
);
}
);
width = 1736;
}
);
unicode = 0056;
},
{
glyphname = W;
lastChange = "2019-07-06 11:10:21 +0000";
layers = (
{
layerId = "4005C4E1-7659-4C5E-9D78-13D17D50B24B";
paths = (
{
closed = 1;
nodes = (
"876 0 LINE",
"1328 1632 LINE",
"1344 1632 LINE",
"1796 0 LINE",
"2052 0 LINE",
"2612 2048 LINE",
"2360 2048 LINE",
"1932 380 LINE",
"1912 380 LINE",
"1476 2048 LINE",
"1196 2048 LINE",
"760 380 LINE",
"740 380 LINE",
"312 2048 LINE",
"60 2048 LINE",
"620 0 LINE"
);
}
);
width = 2672;
},
{
layerId = "CC8C8B2E-19C7-4699-A4BA-C120989B4E7F";
paths = (
{
closed = 1;
nodes = (
"1050 0 LINE",
"1834 1732 LINE",
"1850 1732 LINE",
"2634 0 LINE",
"2890 0 LINE",
"3612 2048 LINE",
"3360 2048 LINE",
"2770 340 LINE",
"2750 340 LINE",
"1982 2048 LINE",
"1702 2048 LINE",
"934 340 LINE",
"914 340 LINE",
"312 2048 LINE",
"60 2048 LINE",
"794 0 LINE"
);
}
);
width = 3672;
},
{
layerId = "4AC57EC0-C61C-4EDF-B407-033FA33D6AD3";
paths = (
{
closed = 1;
nodes = (
"972 0 LINE",
"1708 1950 LINE",
"1716 1950 LINE",
"2536 0 LINE",
"2624 0 LINE",
"3432 2048 LINE",
"3364 2048 LINE",
"2584 80 LINE",
"2576 80 LINE",
"1756 2030 LINE",
"1668 2030 LINE",
"932 80 LINE",
"924 80 LINE",
"148 2048 LINE",
"80 2048 LINE",
"884 0 LINE"
);
}
);
width = 3512;
},
{
layerId = "C8AA7CDC-6A04-46C8-87C6-418EC6DD01BE";
paths = (
{
closed = 1;
nodes = (
"1184 0 LINE",
"1532 1144 LINE",
"1548 1144 LINE",
"1896 0 LINE",
"2428 0 LINE",
"3032 2048 LINE",
"2412 2048 LINE",
"2132 784 LINE",
"2116 784 LINE",
"1784 2048 LINE",
"1296 2048 LINE",
"964 788 LINE",
"948 788 LINE",
"668 2048 LINE",
"48 2048 LINE",
"652 0 LINE"
);
}
);
width = 3080;
},
{
layerId = "9DB0CBB1-7450-4B3A-8CA7-A9658A1D8B6A";
paths = (
{
closed = 1;
nodes = (
"1362 0 LINE",
"2284 1364 LINE",
"2300 1364 LINE",
"3210 0 LINE",
"3742 0 LINE",
"4532 2048 LINE",
"3912 2048 LINE",
"3446 768 LINE",
"3430 768 LINE",
"2536 2048 LINE",
"2048 2048 LINE",
"1142 772 LINE",
"1126 772 LINE",
"668 2048 LINE",
"48 2048 LINE",
"830 0 LINE"
);
}
);
width = 4580;
},
{
layerId = "C0526DEC-9643-4CF7-8966-9E991C4F7D8C";
paths = (
{
closed = 1;
nodes = (
"732 0 LINE",
"1252 1948 LINE",
"1260 1948 LINE",
"1780 0 LINE",
"1868 0 LINE",
"2432 2048 LINE",
"2364 2048 LINE",
"1828 100 LINE",
"1820 100 LINE",
"1300 2048 LINE",
"1212 2048 LINE",
"692 100 LINE",
"684 100 LINE",
"148 2048 LINE",
"80 2048 LINE",
"644 0 LINE"
);
}
);
width = 2512;
}
);
unicode = 0057;
},
{
glyphname = X;
lastChange = "2019-07-06 11:04:11 +0000";
layers = (
{
layerId = "4005C4E1-7659-4C5E-9D78-13D17D50B24B";
paths = (
{
closed = 1;
nodes = (
"76 2048 LINE",
"736 1024 LINE",
"76 0 LINE",
"368 0 LINE",
"896 836 LINE",
"912 836 LINE",
"1440 0 LINE",
"1732 0 LINE",
"1088 1024 LINE",
"1732 2048 LINE",
"1440 2048 LINE",
"912 1196 LINE",
"896 1196 LINE",
"368 2048 LINE"
);
}
);
width = 1808;
},
{
layerId = "CC8C8B2E-19C7-4699-A4BA-C120989B4E7F";
paths = (
{
closed = 1;
nodes = (
"76 2048 LINE",
"1256 1024 LINE",
"76 0 LINE",
"368 0 LINE",
"1396 856 LINE",
"1412 856 LINE",
"2440 0 LINE",
"2732 0 LINE",
"1568 1024 LINE",
"2732 2048 LINE",
"2440 2048 LINE",
"1412 1176 LINE",
"1396 1176 LINE",
"368 2048 LINE"
);
}
);
width = 2808;
},
{
layerId = "4AC57EC0-C61C-4EDF-B407-033FA33D6AD3";
paths = (
{
closed = 1;
nodes = (
"96 2048 LINE",
"1284 1024 LINE",
"96 0 LINE",
"176 0 LINE",
"1320 964 LINE",
"1328 964 LINE",
"2472 0 LINE",
"2552 0 LINE",
"1364 1024 LINE",
"2552 2048 LINE",
"2472 2048 LINE",
"1328 1084 LINE",
"1320 1084 LINE",
"176 2048 LINE"
);
}
);
width = 2648;
},
{
layerId = "C8AA7CDC-6A04-46C8-87C6-418EC6DD01BE";
paths = (
{
closed = 1;
nodes = (
"104 2048 LINE",
"712 1024 LINE",
"84 0 LINE",
"716 0 LINE",
"1064 608 LINE",
"1080 608 LINE",
"1428 0 LINE",
"2064 0 LINE",
"1428 1024 LINE",
"2040 2048 LINE",
"1420 2048 LINE",
"1080 1452 LINE",
"1064 1452 LINE",
"728 2048 LINE"
);
}
);
width = 2148;
},
{
layerId = "9DB0CBB1-7450-4B3A-8CA7-A9658A1D8B6A";
paths = (
{
closed = 1;
nodes = (
"104 2048 LINE",
"1524 1024 LINE",
"84 0 LINE",
"716 0 LINE",
"1816 768 LINE",
"1832 768 LINE",
"2928 0 LINE",
"3564 0 LINE",
"2100 1024 LINE",
"3540 2048 LINE",
"2920 2048 LINE",
"1832 1292 LINE",
"1816 1292 LINE",
"728 2048 LINE"
);
}
);
width = 3648;
},
{
layerId = "C0526DEC-9643-4CF7-8966-9E991C4F7D8C";
paths = (
{
closed = 1;
nodes = (
"96 2048 LINE",
"784 1024 LINE",
"96 0 LINE",
"176 0 LINE",
"820 964 LINE",
"828 964 LINE",
"1472 0 LINE",
"1552 0 LINE",
"864 1024 LINE",
"1552 2048 LINE",
"1472 2048 LINE",
"828 1084 LINE",
"820 1084 LINE",
"176 2048 LINE"
);
}
);
width = 1648;
}
);
unicode = 0058;
},
{
glyphname = Y;
lastChange = "2019-07-06 11:34:19 +0000";
layers = (
{
layerId = "4005C4E1-7659-4C5E-9D78-13D17D50B24B";
paths = (
{
closed = 1;
nodes = (
"812 844 LINE",
"812 0 LINE",
"1060 0 LINE",
"1060 844 LINE",
"1800 2048 LINE",
"1516 2048 LINE",
"948 1092 LINE",
"924 1092 LINE",
"356 2048 LINE",
"72 2048 LINE"
);
}
);
width = 1872;
},
{
layerId = "CC8C8B2E-19C7-4699-A4BA-C120989B4E7F";
paths = (
{
closed = 1;
nodes = (
"1310 844 LINE",
"1310 0 LINE",
"1558 0 LINE",
"1558 844 LINE",
"2800 2048 LINE",
"2476 2048 LINE",
"1446 1072 LINE",
"1422 1072 LINE",
"416 2048 LINE",
"72 2048 LINE"
);
}
);
width = 2872;
},
{
layerId = "4AC57EC0-C61C-4EDF-B407-033FA33D6AD3";
paths = (
{
closed = 1;
nodes = (
"1332 972 LINE",
"1332 0 LINE",
"1396 0 LINE",
"1396 972 LINE",
"2632 2048 LINE",
"2552 2048 LINE",
"1368 1044 LINE",
"1360 1044 LINE",
"176 2048 LINE",
"96 2048 LINE"
);
}
);
width = 2728;
},
{
layerId = "C8AA7CDC-6A04-46C8-87C6-418EC6DD01BE";
paths = (
{
closed = 1;
nodes = (
"800 644 LINE",
"800 0 LINE",
"1352 0 LINE",
"1352 644 LINE",
"2104 2048 LINE",
"1484 2048 LINE",
"1084 1216 LINE",
"1068 1216 LINE",
"668 2048 LINE",
"48 2048 LINE"
);
}
);
width = 2152;
},
{
layerId = "9DB0CBB1-7450-4B3A-8CA7-A9658A1D8B6A";
paths = (
{
closed = 1;
nodes = (
"1550 644 LINE",
"1550 0 LINE",
"2102 0 LINE",
"2102 644 LINE",
"3604 2048 LINE",
"2844 2048 LINE",
"1834 1156 LINE",
"1818 1156 LINE",
"868 2048 LINE",
"48 2048 LINE"
);
}
);
width = 3652;
},
{
layerId = "C0526DEC-9643-4CF7-8966-9E991C4F7D8C";
paths = (
{
closed = 1;
nodes = (
"832 972 LINE",
"832 0 LINE",
"896 0 LINE",
"896 972 LINE",
"1632 2048 LINE",
"1552 2048 LINE",
"868 1044 LINE",
"860 1044 LINE",
"176 2048 LINE",
"96 2048 LINE"
);
}
);
width = 1728;
}
);
unicode = 0059;
},
{
glyphname = Z;
lastChange = "2019-07-06 11:07:27 +0000";
layers = (
{
layerId = "4005C4E1-7659-4C5E-9D78-13D17D50B24B";
paths = (
{
closed = 1;
nodes = (
"1592 0 LINE",
"1592 220 LINE",
"476 220 LINE",
"1580 1868 LINE",
"1580 2048 LINE",
"168 2048 LINE",
"168 1828 LINE",
"1284 1828 LINE",
"180 180 LINE",
"180 0 LINE"
);
}
);
width = 1760;
},
{
layerId = "CC8C8B2E-19C7-4699-A4BA-C120989B4E7F";
paths = (
{
closed = 1;
nodes = (
"2592 0 LINE",
"2592 220 LINE",
"576 220 LINE",
"2580 1868 LINE",
"2580 2048 LINE",
"168 2048 LINE",
"168 1828 LINE",
"2184 1828 LINE",
"180 180 LINE",
"180 0 LINE"
);
}
);
width = 2760;
},
{
layerId = "4AC57EC0-C61C-4EDF-B407-033FA33D6AD3";
paths = (
{
closed = 1;
nodes = (
"2492 0 LINE",
"2492 64 LINE",
"312 64 LINE",
"2484 1984 LINE",
"2484 2048 LINE",
"220 2048 LINE",
"220 1984 LINE",
"2384 1984 LINE",
"212 64 LINE",
"212 0 LINE"
);
}
);
width = 2704;
},
{
layerId = "C8AA7CDC-6A04-46C8-87C6-418EC6DD01BE";
paths = (
{
closed = 1;
nodes = (
"1812 0 LINE",
"1812 448 LINE",
"848 448 LINE",
"1816 1740 LINE",
"1816 2048 LINE",
"144 2048 LINE",
"144 1600 LINE",
"1108 1600 LINE",
"140 308 LINE",
"140 0 LINE"
);
}
);
width = 1956;
},
{
layerId = "9DB0CBB1-7450-4B3A-8CA7-A9658A1D8B6A";
paths = (
{
closed = 1;
nodes = (
"3312 0 LINE",
"3312 448 LINE",
"1328 448 LINE",
"3316 1740 LINE",
"3316 2048 LINE",
"144 2048 LINE",
"144 1600 LINE",
"2128 1600 LINE",
"140 308 LINE",
"140 0 LINE"
);
}
);
width = 3456;
},
{
layerId = "C0526DEC-9643-4CF7-8966-9E991C4F7D8C";
paths = (
{
closed = 1;
nodes = (
"1500 0 LINE",
"1500 64 LINE",
"288 64 LINE",
"1492 1984 LINE",
"1492 2048 LINE",
"220 2048 LINE",
"220 1984 LINE",
"1416 1984 LINE",
"212 64 LINE",
"212 0 LINE"
);
}
);
width = 1704;
}
);
unicode = 005A;
},
{
glyphname = B.salt;
lastChange = "2019-07-06 10:15:37 +0000";
layers = (
{
layerId = "C0526DEC-9643-4CF7-8966-9E991C4F7D8C";
paths = (
{
closed = 1;
nodes = (
"1028 0 LINE SMOOTH",
"1380 0 OFFCURVE",
"1588 208 OFFCURVE",
"1588 524 CURVE SMOOTH",
"1588 809 OFFCURVE",
"1418 1017 OFFCURVE",
"1196 1036 CURVE",
"1196 1044 LINE",
"1394 1094 OFFCURVE",
"1508 1287 OFFCURVE",
"1508 1528 CURVE SMOOTH",
"1508 1851 OFFCURVE",
"1304 2048 OFFCURVE",
"960 2048 CURVE SMOOTH",
"320 2048 LINE",
"320 0 LINE"
);
},
{
closed = 1;
nodes = (
"384 1008 LINE",
"1028 1008 LINE SMOOTH",
"1317 1008 OFFCURVE",
"1524 808 OFFCURVE",
"1524 524 CURVE SMOOTH",
"1524 248 OFFCURVE",
"1328 64 OFFCURVE",
"1028 64 CURVE SMOOTH",
"384 64 LINE"
);
},
{
closed = 1;
nodes = (
"384 1984 LINE",
"960 1984 LINE SMOOTH",
"1258 1984 OFFCURVE",
"1444 1819 OFFCURVE",
"1444 1528 CURVE SMOOTH",
"1444 1284 OFFCURVE",
"1307 1072 OFFCURVE",
"1028 1072 CURVE SMOOTH",
"384 1072 LINE"
);
}
);
width = 1600;
},
{
layerId = "4AC57EC0-C61C-4EDF-B407-033FA33D6AD3";
paths = (
{
closed = 1;
nodes = (
"2028 0 LINE SMOOTH",
"2379 0 OFFCURVE",
"2587 207 OFFCURVE",
"2588 524 CURVE SMOOTH",
"2589 808 OFFCURVE",
"2417 1044 OFFCURVE",
"2196 1064 CURVE",
"1182 1072 LINE",
"1354 1070 OFFCURVE",
"1493 1286 OFFCURVE",
"1494 1528 CURVE SMOOTH",
"1495 1850 OFFCURVE",
"1289 2048 OFFCURVE",
"946 2048 CURVE SMOOTH",
"320 2048 LINE",
"320 0 LINE"
);
},
{
closed = 1;
nodes = (
"384 1008 LINE",
"2028 1008 LINE SMOOTH",
"2316 1008 OFFCURVE",
"2523 807 OFFCURVE",
"2524 524 CURVE SMOOTH",
"2525 247 OFFCURVE",
"2327 64 OFFCURVE",
"2028 64 CURVE SMOOTH",
"384 64 LINE"
);
},
{
closed = 1;
nodes = (
"384 1984 LINE",
"946 1984 LINE SMOOTH",
"1243 1984 OFFCURVE",
"1429 1818 OFFCURVE",
"1430 1528 CURVE SMOOTH",
"1431 1283 OFFCURVE",
"1292 1072 OFFCURVE",
"1014 1072 CURVE SMOOTH",
"384 1072 LINE"
);
}
);
width = 2804;
},
{
layerId = "4005C4E1-7659-4C5E-9D78-13D17D50B24B";
paths = (
{
closed = 1;
nodes = (
"988 0 LINE SMOOTH",
"1472 0 OFFCURVE",
"1672 236 OFFCURVE",
"1672 544 CURVE SMOOTH",
"1672 868 OFFCURVE",
"1448 1044 OFFCURVE",
"1260 1056 CURVE",
"1260 1076 LINE",
"1436 1124 OFFCURVE",
"1592 1240 OFFCURVE",
"1592 1504 CURVE SMOOTH",
"1592 1804 OFFCURVE",
"1392 2048 OFFCURVE",
"964 2048 CURVE SMOOTH",
"248 2048 LINE",
"248 0 LINE"
);
},
{
closed = 1;
nodes = (
"496 932 LINE",
"1000 932 LINE SMOOTH",
"1268 932 OFFCURVE",
"1436 752 OFFCURVE",
"1436 544 CURVE SMOOTH",
"1436 364 OFFCURVE",
"1312 220 OFFCURVE",
"988 220 CURVE SMOOTH",
"496 220 LINE"
);
},
{
closed = 1;
nodes = (
"496 1828 LINE",
"964 1828 LINE SMOOTH",
"1236 1828 OFFCURVE",
"1356 1684 OFFCURVE",
"1356 1504 CURVE SMOOTH",
"1356 1288 OFFCURVE",
"1180 1148 OFFCURVE",
"956 1148 CURVE SMOOTH",
"496 1148 LINE"
);
}
);
width = 1832;
},
{
layerId = "CC8C8B2E-19C7-4699-A4BA-C120989B4E7F";
paths = (
{
closed = 1;
nodes = (
"1986 0 LINE SMOOTH",
"2470 0 OFFCURVE",
"2670 236 OFFCURVE",
"2670 544 CURVE SMOOTH",
"2670 868 OFFCURVE",
"2446 1116 OFFCURVE",
"2258 1128 CURVE",
"1508 1148 LINE",
"1616 1160 OFFCURVE",
"1770 1240 OFFCURVE",
"1770 1504 CURVE SMOOTH",
"1770 1804 OFFCURVE",
"1570 2048 OFFCURVE",
"1142 2048 CURVE SMOOTH",
"248 2048 LINE",
"248 0 LINE"
);
},
{
closed = 1;
nodes = (
"496 932 LINE",
"1998 932 LINE SMOOTH",
"2266 932 OFFCURVE",
"2434 752 OFFCURVE",
"2434 544 CURVE SMOOTH",
"2434 364 OFFCURVE",
"2310 220 OFFCURVE",
"1986 220 CURVE SMOOTH",
"496 220 LINE"
);
},
{
closed = 1;
nodes = (
"496 1828 LINE",
"1142 1828 LINE SMOOTH",
"1414 1828 OFFCURVE",
"1534 1684 OFFCURVE",
"1534 1504 CURVE SMOOTH",
"1534 1288 OFFCURVE",
"1358 1148 OFFCURVE",
"1134 1148 CURVE SMOOTH",
"496 1148 LINE"
);
}
);
width = 2832;
},
{
layerId = "C8AA7CDC-6A04-46C8-87C6-418EC6DD01BE";
paths = (
{
closed = 1;
nodes = (
"1096 0 LINE SMOOTH",
"1541 0 OFFCURVE",
"1816 243 OFFCURVE",
"1816 580 CURVE SMOOTH",
"1816 869 OFFCURVE",
"1603 1058 OFFCURVE",
"1340 1068 CURVE",
"1340 1088 LINE",
"1577 1135 OFFCURVE",
"1736 1310 OFFCURVE",
"1736 1536 CURVE SMOOTH",
"1736 1848 OFFCURVE",
"1488 2048 OFFCURVE",
"1020 2048 CURVE SMOOTH",
"132 2048 LINE",
"132 0 LINE"
);
},
{
closed = 1;
nodes = (
"688 876 LINE",
"956 876 LINE SMOOTH",
"1125 876 OFFCURVE",
"1228 796 OFFCURVE",
"1228 652 CURVE SMOOTH",
"1228 515 OFFCURVE",
"1135 444 OFFCURVE",
"948 444 CURVE SMOOTH",
"688 444 LINE"
);
},
{
closed = 1;
nodes = (
"688 1612 LINE",
"924 1612 LINE SMOOTH",
"1062 1612 OFFCURVE",
"1164 1542 OFFCURVE",
"1164 1416 CURVE SMOOTH",
"1164 1290 OFFCURVE",
"1062 1220 OFFCURVE",
"916 1220 CURVE SMOOTH",
"688 1220 LINE"
);
}
);
width = 1880;
},
{
layerId = "9DB0CBB1-7450-4B3A-8CA7-A9658A1D8B6A";
paths = (
{
closed = 1;
nodes = (
"2596 0 LINE SMOOTH",
"3041 0 OFFCURVE",
"3316 243 OFFCURVE",
"3316 580 CURVE SMOOTH",
"3316 869 OFFCURVE",
"3103 1176 OFFCURVE",
"2840 1186 CURVE",
"2030 1206 LINE",
"2150 1222 OFFCURVE",
"2234 1310 OFFCURVE",
"2234 1536 CURVE SMOOTH",
"2234 1848 OFFCURVE",
"1986 2048 OFFCURVE",
"1518 2048 CURVE SMOOTH",
"132 2048 LINE",
"132 0 LINE"
);
},
{
closed = 1;
nodes = (
"688 876 LINE",
"2456 876 LINE SMOOTH",
"2625 876 OFFCURVE",
"2728 796 OFFCURVE",
"2728 652 CURVE SMOOTH",
"2728 515 OFFCURVE",
"2635 444 OFFCURVE",
"2448 444 CURVE SMOOTH",
"688 444 LINE"
);
},
{
closed = 1;
nodes = (
"688 1612 LINE",
"1422 1612 LINE SMOOTH",
"1560 1612 OFFCURVE",
"1662 1542 OFFCURVE",
"1662 1416 CURVE SMOOTH",
"1662 1290 OFFCURVE",
"1560 1220 OFFCURVE",
"1414 1220 CURVE SMOOTH",
"688 1220 LINE"
);
}
);
width = 3380;
}
);
widthMetricsKey = B;
},
{
glyphname = G.salt;
lastChange = "2019-07-06 10:44:44 +0000";
layers = (
{
layerId = "C0526DEC-9643-4CF7-8966-9E991C4F7D8C";
paths = (
{
closed = 1;
nodes = (
"1475 2012 OFFCURVE",
"1725 1688 OFFCURVE",
"1774 1408 CURVE",
"1838 1408 LINE",
"1789 1700 OFFCURVE",
"1533 2076 OFFCURVE",
"1054 2076 CURVE SMOOTH",
"1052 2076 LINE",
"544 2076 OFFCURVE",
"204 1654 OFFCURVE",
"204 1024 CURVE SMOOTH",
"204 398 OFFCURVE",
"540 -28 OFFCURVE",
"1060 -28 CURVE SMOOTH",
"1062 -28 LINE",
"1521 -28 OFFCURVE",
"1854 304 OFFCURVE",
"1854 864 CURVE SMOOTH",
"1854 928 LINE",
"1082 928 LINE",
"1082 864 LINE",
"1818 864 LINE",
"1790 888 LINE",
"1797 352 OFFCURVE",
"1489 36 OFFCURVE",
"1062 36 CURVE SMOOTH",
"1060 36 LINE",
"576 36 OFFCURVE",
"268 440 OFFCURVE",
"268 1024 CURVE SMOOTH",
"268 1616 OFFCURVE",
"582 2012 OFFCURVE",
"1052 2012 CURVE SMOOTH",
"1054 2012 LINE"
);
}
);
width = 2080;
},
{
layerId = "4AC57EC0-C61C-4EDF-B407-033FA33D6AD3";
paths = (
{
closed = 1;
nodes = (
"1792 2012 OFFCURVE",
"2042 1688 OFFCURVE",
"2090 1408 CURVE",
"2154 1408 LINE",
"2106 1700 OFFCURVE",
"1850 2076 OFFCURVE",
"1370 2076 CURVE SMOOTH",
"1052 2076 LINE",
"544 2076 OFFCURVE",
"204 1654 OFFCURVE",
"204 1024 CURVE SMOOTH",
"204 398 OFFCURVE",
"540 -28 OFFCURVE",
"1060 -28 CURVE SMOOTH",
"2060 -28 LINE",
"2520 -28 OFFCURVE",
"2852 304 OFFCURVE",
"2852 864 CURVE SMOOTH",
"2852 928 LINE",
"2080 928 LINE",
"2080 864 LINE",
"2816 864 LINE",
"2788 888 LINE",
"2796 352 OFFCURVE",
"2488 36 OFFCURVE",
"2060 36 CURVE SMOOTH",
"1060 36 LINE",
"576 36 OFFCURVE",
"268 440 OFFCURVE",
"268 1024 CURVE SMOOTH",
"268 1616 OFFCURVE",
"582 2012 OFFCURVE",
"1052 2012 CURVE SMOOTH",
"1370 2012 LINE"
);
}
);
width = 3080;
},
{
layerId = "4005C4E1-7659-4C5E-9D78-13D17D50B24B";
paths = (
{
closed = 1;
nodes = (
"1363 1843 OFFCURVE",
"1563 1677 OFFCURVE",
"1650 1408 CURVE",
"1906 1408 LINE",
"1831 1803 OFFCURVE",
"1499 2076 OFFCURVE",
"1066 2076 CURVE SMOOTH",
"1064 2076 LINE",
"539 2076 OFFCURVE",
"168 1672 OFFCURVE",
"168 1024 CURVE SMOOTH",
"168 376 OFFCURVE",
"536 -28 OFFCURVE",
"1080 -28 CURVE SMOOTH",
"1082 -28 LINE",
"1571 -29 OFFCURVE",
"1918 297 OFFCURVE",
"1918 804 CURVE SMOOTH",
"1918 1024 LINE",
"1138 1024 LINE",
"1138 804 LINE",
"1754 804 LINE",
"1678 820 LINE",
"1679 443 OFFCURVE",
"1435 204 OFFCURVE",
"1082 204 CURVE SMOOTH",
"1080 204 LINE",
"700 204 OFFCURVE",
"408 492 OFFCURVE",
"408 1024 CURVE SMOOTH",
"408 1556 OFFCURVE",
"700 1844 OFFCURVE",
"1064 1844 CURVE SMOOTH",
"1066 1844 LINE"
);
}
);
width = 2092;
},
{
layerId = "CC8C8B2E-19C7-4699-A4BA-C120989B4E7F";
paths = (
{
closed = 1;
nodes = (
"1842 1843 OFFCURVE",
"2042 1677 OFFCURVE",
"2128 1408 CURVE",
"2384 1408 LINE",
"2310 1803 OFFCURVE",
"1978 2076 OFFCURVE",
"1544 2076 CURVE SMOOTH",
"1064 2076 LINE",
"539 2076 OFFCURVE",
"168 1672 OFFCURVE",
"168 1024 CURVE SMOOTH",
"168 376 OFFCURVE",
"536 -28 OFFCURVE",
"1080 -28 CURVE SMOOTH",
"2080 -28 LINE",
"2569 -29 OFFCURVE",
"2916 297 OFFCURVE",
"2916 804 CURVE SMOOTH",
"2916 1024 LINE",
"2136 1024 LINE",
"2136 804 LINE",
"2752 804 LINE",
"2676 820 LINE",
"2677 443 OFFCURVE",
"2433 204 OFFCURVE",
"2080 204 CURVE SMOOTH",
"1080 204 LINE",
"700 204 OFFCURVE",
"408 492 OFFCURVE",
"408 1024 CURVE SMOOTH",
"408 1556 OFFCURVE",
"699 1844 OFFCURVE",
"1064 1844 CURVE SMOOTH",
"1544 1844 LINE"
);
}
);
width = 3092;
},
{
layerId = "C8AA7CDC-6A04-46C8-87C6-418EC6DD01BE";
paths = (
{
closed = 1;
nodes = (
"1311 1592 OFFCURVE",
"1429 1512 OFFCURVE",
"1464 1372 CURVE",
"2026 1372 LINE",
"1983 1784 OFFCURVE",
"1609 2076 OFFCURVE",
"1126 2076 CURVE SMOOTH",
"1124 2076 LINE",
"572 2076 OFFCURVE",
"124 1696 OFFCURVE",
"124 1020 CURVE SMOOTH",
"124 372 OFFCURVE",
"530 -28 OFFCURVE",
"1128 -28 CURVE SMOOTH",
"1130 -28 LINE",
"1665 -28 OFFCURVE",
"2050 300 OFFCURVE",
"2050 860 CURVE SMOOTH",
"2050 1144 LINE",
"1142 1144 LINE",
"1142 748 LINE",
"1610 748 LINE",
"1514 758 LINE",
"1513 574 OFFCURVE",
"1387 456 OFFCURVE",
"1134 456 CURVE SMOOTH",
"1132 456 LINE",
"844 456 OFFCURVE",
"696 668 OFFCURVE",
"696 1028 CURVE SMOOTH",
"696 1384 OFFCURVE",
"856 1592 OFFCURVE",
"1136 1592 CURVE SMOOTH",
"1138 1592 LINE"
);
}
);
width = 2176;
},
{
layerId = "9DB0CBB1-7450-4B3A-8CA7-A9658A1D8B6A";
paths = (
{
closed = 1;
nodes = (
"2476 1592 OFFCURVE",
"2594 1512 OFFCURVE",
"2628 1372 CURVE",
"3190 1372 LINE",
"3148 1784 OFFCURVE",
"2774 2076 OFFCURVE",
"2290 2076 CURVE SMOOTH",
"1124 2076 LINE",
"572 2076 OFFCURVE",
"124 1696 OFFCURVE",
"124 1020 CURVE SMOOTH",
"124 372 OFFCURVE",
"530 -28 OFFCURVE",
"1128 -28 CURVE SMOOTH",
"2628 -28 LINE",
"3164 -28 OFFCURVE",
"3548 300 OFFCURVE",
"3548 860 CURVE SMOOTH",
"3548 1144 LINE",
"2640 1144 LINE",
"2640 748 LINE",
"3108 748 LINE",
"3012 758 LINE",
"3012 574 OFFCURVE",
"2886 456 OFFCURVE",
"2632 456 CURVE SMOOTH",
"1132 456 LINE",
"844 456 OFFCURVE",
"696 668 OFFCURVE",
"696 1028 CURVE SMOOTH",
"696 1384 OFFCURVE",
"855 1592 OFFCURVE",
"1136 1592 CURVE SMOOTH",
"2302 1592 LINE"
);
}
);
width = 3676;
}
);
widthMetricsKey = G;
},
{
glyphname = K.salt;
lastChange = "2019-07-06 10:56:34 +0000";
layers = (
{
layerId = "C0526DEC-9643-4CF7-8966-9E991C4F7D8C";
paths = (
{
closed = 1;
nodes = (
"384 0 LINE",
"754 590 LINE",
"1530 0 LINE",
"1628 0 LINE",
"792 638 LINE",
"1640 2048 LINE",
"1574 2048 LINE",
"392 108 LINE",
"384 108 LINE",
"384 2048 LINE",
"320 2048 LINE",
"320 0 LINE"
);
}
);
width = 1736;
},
{
layerId = "4AC57EC0-C61C-4EDF-B407-033FA33D6AD3";
paths = (
{
closed = 1;
nodes = (
"384 0 LINE",
"1358 890 LINE",
"2530 0 LINE",
"2628 0 LINE",
"1406 928 LINE",
"2640 2048 LINE",
"2550 2048 LINE",
"376 68 LINE",
"384 68 LINE",
"384 2048 LINE",
"320 2048 LINE",
"320 0 LINE"
);
}
);
width = 2736;
},
{
background = {
paths = (
{
closed = 1;
nodes = (
"496 0 LINE",
"496 664 LINE",
"752 952 LINE",
"1464 0 LINE",
"1764 0 LINE",
"904 1124 LINE",
"1764 2048 LINE",
"1440 2048 LINE",
"520 1032 LINE",
"496 1032 LINE",
"496 2048 LINE",
"248 2048 LINE",
"248 0 LINE"
);
}
);
};
layerId = "4005C4E1-7659-4C5E-9D78-13D17D50B24B";
paths = (
{
closed = 1;
nodes = (
"496 0 LINE",
"752 388 LINE",
"1384 0 LINE",
"1784 0 LINE",
"904 560 LINE",
"1764 2048 LINE",
"1440 2048 LINE",
"520 448 LINE",
"496 448 LINE",
"496 2048 LINE",
"248 2048 LINE",
"248 0 LINE"
);
}
);
width = 1836;
},
{
layerId = "CC8C8B2E-19C7-4699-A4BA-C120989B4E7F";
paths = (
{
closed = 1;
nodes = (
"496 0 LINE",
"932 388 LINE",
"2104 0 LINE",
"2764 0 LINE",
"1084 560 LINE",
"2744 2048 LINE",
"2420 2048 LINE",
"520 388 LINE",
"496 388 LINE",
"496 2048 LINE",
"248 2048 LINE",
"248 0 LINE"
);
}
);
width = 2836;
},
{
layerId = "C8AA7CDC-6A04-46C8-87C6-418EC6DD01BE";
paths = (
{
closed = 1;
nodes = (
"688 0 LINE",
"972 340 LINE",
"1332 0 LINE",
"1996 0 LINE",
"1268 668 LINE",
"1980 2048 LINE",
"1332 2048 LINE",
"716 692 LINE",
"688 692 LINE",
"688 2048 LINE",
"132 2048 LINE",
"132 0 LINE"
);
}
);
width = 2012;
},
{
layerId = "9DB0CBB1-7450-4B3A-8CA7-A9658A1D8B6A";
paths = (
{
closed = 1;
nodes = (
"688 0 LINE",
"1878 884 LINE",
"2832 0 LINE",
"3496 0 LINE",
"2210 1172 LINE",
"3480 2048 LINE",
"2832 2048 LINE",
"716 572 LINE",
"688 572 LINE",
"688 2048 LINE",
"132 2048 LINE",
"132 0 LINE"
);
}
);
width = 3512;
}
);
},
{
glyphname = germandbls;
lastChange = "2019-07-06 09:13:00 +0000";
layers = (
{
layerId = "C0526DEC-9643-4CF7-8966-9E991C4F7D8C";
paths = (
{
closed = 1;
nodes = (
"364 0 LINE",
"364 1604 LINE SMOOTH",
"364 1829 OFFCURVE",
"552 1993 OFFCURVE",
"792 1992 CURVE SMOOTH",
"1054 1993 OFFCURVE",
"1220 1799 OFFCURVE",
"1224 1564 CURVE SMOOTH",
"1223 1334 OFFCURVE",
"1064 1102 OFFCURVE",
"804 1104 CURVE SMOOTH",
"656 1104 LINE",
"656 988 LINE",
"856 988 LINE SMOOTH",
"1139 986 OFFCURVE",
"1319 785 OFFCURVE",
"1320 524 CURVE SMOOTH",
"1316 276 OFFCURVE",
"1155 93 OFFCURVE",
"904 92 CURVE SMOOTH",
"648 92 LINE",
"648 0 LINE",
"828 0 LINE SMOOTH",
"1157 0 OFFCURVE",
"1361 275 OFFCURVE",
"1360 564 CURVE SMOOTH",
"1358 847 OFFCURVE",
"1160 1018 OFFCURVE",
"908 1052 CURVE",
"908 1072 LINE",
"1107 1152 OFFCURVE",
"1258 1318 OFFCURVE",
"1260 1576 CURVE SMOOTH",
"1258 1864 OFFCURVE",
"1079 2076 OFFCURVE",
"796 2076 CURVE SMOOTH",
"527 2076 OFFCURVE",
"318 1871 OFFCURVE",
"320 1540 CURVE SMOOTH",
"320 0 LINE"
);
}
);
width = 1562;
},
{
layerId = "4AC57EC0-C61C-4EDF-B407-033FA33D6AD3";
paths = (
{
closed = 1;
nodes = (
"364 0 LINE",
"364 1604 LINE SMOOTH",
"364 1829 OFFCURVE",
"552 1993 OFFCURVE",
"792 1992 CURVE SMOOTH",
"1054 1993 OFFCURVE",
"1220 1799 OFFCURVE",
"1224 1564 CURVE SMOOTH",
"1223 1334 OFFCURVE",
"1064 1102 OFFCURVE",
"804 1104 CURVE SMOOTH",
"656 1104 LINE",
"656 988 LINE",
"856 988 LINE SMOOTH",
"1139 986 OFFCURVE",
"1319 785 OFFCURVE",
"1320 524 CURVE SMOOTH",
"1316 276 OFFCURVE",
"1155 93 OFFCURVE",
"904 92 CURVE SMOOTH",
"648 92 LINE",
"648 0 LINE",
"828 0 LINE SMOOTH",
"1157 0 OFFCURVE",
"1361 275 OFFCURVE",
"1360 564 CURVE SMOOTH",
"1358 847 OFFCURVE",
"1160 1018 OFFCURVE",
"908 1052 CURVE",
"908 1072 LINE",
"1107 1152 OFFCURVE",
"1258 1318 OFFCURVE",
"1260 1576 CURVE SMOOTH",
"1258 1864 OFFCURVE",
"1079 2076 OFFCURVE",
"796 2076 CURVE SMOOTH",
"527 2076 OFFCURVE",
"318 1871 OFFCURVE",
"320 1540 CURVE SMOOTH",
"320 0 LINE"
);
}
);
width = 1562;
},
{
layerId = "4005C4E1-7659-4C5E-9D78-13D17D50B24B";
paths = (
{
closed = 1;
nodes = (
"484 0 LINE",
"484 1524 LINE SMOOTH",
"484 1720 OFFCURVE",
"637 1856 OFFCURVE",
"844 1856 CURVE SMOOTH",
"1064 1856 OFFCURVE",
"1200 1704 OFFCURVE",
"1200 1512 CURVE SMOOTH",
"1200 1327 OFFCURVE",
"1074 1152 OFFCURVE",
"872 1152 CURVE SMOOTH",
"744 1152 LINE",
"744 928 LINE",
"924 928 LINE SMOOTH",
"1167 928 OFFCURVE",
"1320 775 OFFCURVE",
"1320 564 CURVE SMOOTH",
"1320 363 OFFCURVE",
"1181 220 OFFCURVE",
"964 220 CURVE SMOOTH",
"736 220 LINE",
"736 0 LINE",
"960 0 LINE SMOOTH",
"1320 0 OFFCURVE",
"1556 240 OFFCURVE",
"1556 564 CURVE SMOOTH",
"1556 849 OFFCURVE",
"1372 1038 OFFCURVE",
"1112 1064 CURVE",
"1112 1084 LINE",
"1304 1151 OFFCURVE",
"1436 1314 OFFCURVE",
"1436 1548 CURVE SMOOTH",
"1436 1875 OFFCURVE",
"1180 2076 OFFCURVE",
"840 2076 CURVE SMOOTH",
"492 2076 OFFCURVE",
"248 1866 OFFCURVE",
"248 1524 CURVE SMOOTH",
"248 0 LINE"
);
}
);
width = 1716;
},
{
layerId = "CC8C8B2E-19C7-4699-A4BA-C120989B4E7F";
paths = (
{
closed = 1;
nodes = (
"484 0 LINE",
"484 1524 LINE SMOOTH",
"484 1720 OFFCURVE",
"637 1856 OFFCURVE",
"844 1856 CURVE SMOOTH",
"1064 1856 OFFCURVE",
"1200 1704 OFFCURVE",
"1200 1512 CURVE SMOOTH",
"1200 1327 OFFCURVE",
"1074 1152 OFFCURVE",
"872 1152 CURVE SMOOTH",
"744 1152 LINE",
"744 928 LINE",
"924 928 LINE SMOOTH",
"1167 928 OFFCURVE",
"1320 775 OFFCURVE",
"1320 564 CURVE SMOOTH",
"1320 363 OFFCURVE",
"1181 220 OFFCURVE",
"964 220 CURVE SMOOTH",
"736 220 LINE",
"736 0 LINE",
"960 0 LINE SMOOTH",
"1320 0 OFFCURVE",
"1556 240 OFFCURVE",
"1556 564 CURVE SMOOTH",
"1556 849 OFFCURVE",
"1372 1038 OFFCURVE",
"1112 1064 CURVE",
"1112 1084 LINE",
"1304 1151 OFFCURVE",
"1436 1314 OFFCURVE",
"1436 1548 CURVE SMOOTH",
"1436 1875 OFFCURVE",
"1180 2076 OFFCURVE",
"840 2076 CURVE SMOOTH",
"492 2076 OFFCURVE",
"248 1866 OFFCURVE",
"248 1524 CURVE SMOOTH",
"248 0 LINE"
);
}
);
width = 1716;
},
{
layerId = "C8AA7CDC-6A04-46C8-87C6-418EC6DD01BE";
paths = (
{
closed = 1;
nodes = (
"684 0 LINE",
"684 1392 LINE SMOOTH",
"684 1539 OFFCURVE",
"778 1628 OFFCURVE",
"932 1628 CURVE SMOOTH",
"1080 1628 OFFCURVE",
"1166 1546 OFFCURVE",
"1164 1424 CURVE SMOOTH",
"1162 1315 OFFCURVE",
"1091 1236 OFFCURVE",
"984 1236 CURVE SMOOTH",
"892 1236 LINE",
"892 832 LINE",
"1036 832 LINE SMOOTH",
"1213 832 OFFCURVE",
"1322 759 OFFCURVE",
"1324 632 CURVE SMOOTH",
"1326 508 OFFCURVE",
"1224 432 OFFCURVE",
"1068 432 CURVE SMOOTH",
"884 432 LINE",
"884 0 LINE",
"1184 0 LINE SMOOTH",
"1592 0 OFFCURVE",
"1881 182 OFFCURVE",
"1884 564 CURVE SMOOTH",
"1886 853 OFFCURVE",
"1726 1071 OFFCURVE",
"1456 1084 CURVE",
"1456 1108 LINE",
"1633 1150 OFFCURVE",
"1732 1307 OFFCURVE",
"1732 1504 CURVE SMOOTH",
"1732 1894 OFFCURVE",
"1349 2076 OFFCURVE",
"912 2076 CURVE SMOOTH",
"433 2076 OFFCURVE",
"132 1858 OFFCURVE",
"132 1496 CURVE SMOOTH",
"132 0 LINE"
);
}
);
width = 1972;
},
{
layerId = "9DB0CBB1-7450-4B3A-8CA7-A9658A1D8B6A";
paths = (
{
closed = 1;
nodes = (
"684 0 LINE",
"684 1392 LINE SMOOTH",
"684 1539 OFFCURVE",
"778 1628 OFFCURVE",
"932 1628 CURVE SMOOTH",
"1080 1628 OFFCURVE",
"1166 1546 OFFCURVE",
"1164 1424 CURVE SMOOTH",
"1162 1315 OFFCURVE",
"1091 1236 OFFCURVE",
"984 1236 CURVE SMOOTH",
"892 1236 LINE",
"892 832 LINE",
"1036 832 LINE SMOOTH",
"1213 832 OFFCURVE",
"1322 759 OFFCURVE",
"1324 632 CURVE SMOOTH",
"1326 508 OFFCURVE",
"1224 432 OFFCURVE",
"1068 432 CURVE SMOOTH",
"884 432 LINE",
"884 0 LINE",
"1184 0 LINE SMOOTH",
"1592 0 OFFCURVE",
"1881 182 OFFCURVE",
"1884 564 CURVE SMOOTH",
"1886 853 OFFCURVE",
"1726 1071 OFFCURVE",
"1456 1084 CURVE",
"1456 1108 LINE",
"1633 1150 OFFCURVE",
"1732 1307 OFFCURVE",
"1732 1504 CURVE SMOOTH",
"1732 1894 OFFCURVE",
"1349 2076 OFFCURVE",
"912 2076 CURVE SMOOTH",
"433 2076 OFFCURVE",
"132 1858 OFFCURVE",
"132 1496 CURVE SMOOTH",
"132 0 LINE"
);
}
);
width = 1972;
}
);
unicode = 00DF;
},
{
glyphname = zero;
lastChange = "2019-07-06 09:14:18 +0000";
layers = (
{
layerId = "4005C4E1-7659-4C5E-9D78-13D17D50B24B";
paths = (
{
closed = 1;
nodes = (
"1332 -28 OFFCURVE",
"1592 355 OFFCURVE",
"1592 1024 CURVE SMOOTH",
"1592 1688 OFFCURVE",
"1328 2076 OFFCURVE",
"880 2076 CURVE SMOOTH",
"432 2076 OFFCURVE",
"168 1688 OFFCURVE",
"168 1024 CURVE SMOOTH",
"168 355 OFFCURVE",
"428 -28 OFFCURVE",
"880 -28 CURVE SMOOTH"
);
},
{
closed = 1;
nodes = (
"582 192 OFFCURVE",
"408 491 OFFCURVE",
"408 1024 CURVE SMOOTH",
"408 1556 OFFCURVE",
"584 1860 OFFCURVE",
"880 1860 CURVE SMOOTH",
"1176 1860 OFFCURVE",
"1352 1556 OFFCURVE",
"1352 1024 CURVE SMOOTH",
"1352 491 OFFCURVE",
"1178 192 OFFCURVE",
"880 192 CURVE SMOOTH"
);
}
);
width = 1760;
},
{
layerId = "CC8C8B2E-19C7-4699-A4BA-C120989B4E7F";
paths = (
{
closed = 1;
nodes = (
"1332 -28 OFFCURVE",
"1592 355 OFFCURVE",
"1592 1024 CURVE SMOOTH",
"1592 1688 OFFCURVE",
"1328 2076 OFFCURVE",
"880 2076 CURVE SMOOTH",
"432 2076 OFFCURVE",
"168 1688 OFFCURVE",
"168 1024 CURVE SMOOTH",
"168 355 OFFCURVE",
"428 -28 OFFCURVE",
"880 -28 CURVE SMOOTH"
);
},
{
closed = 1;
nodes = (
"582 192 OFFCURVE",
"408 491 OFFCURVE",
"408 1024 CURVE SMOOTH",
"408 1556 OFFCURVE",
"584 1860 OFFCURVE",
"880 1860 CURVE SMOOTH",
"1176 1860 OFFCURVE",
"1352 1556 OFFCURVE",
"1352 1024 CURVE SMOOTH",
"1352 491 OFFCURVE",
"1178 192 OFFCURVE",
"880 192 CURVE SMOOTH"
);
}
);
width = 1760;
},
{
layerId = "4AC57EC0-C61C-4EDF-B407-033FA33D6AD3";
paths = (
{
closed = 1;
nodes = (
"1222 -28 OFFCURVE",
"1460 372 OFFCURVE",
"1460 1024 CURVE SMOOTH",
"1460 1676 OFFCURVE",
"1222 2076 OFFCURVE",
"832 2076 CURVE SMOOTH",
"442 2076 OFFCURVE",
"204 1676 OFFCURVE",
"204 1024 CURVE SMOOTH",
"204 372 OFFCURVE",
"442 -28 OFFCURVE",
"832 -28 CURVE SMOOTH"
);
},
{
closed = 1;
nodes = (
"483 36 OFFCURVE",
"268 408 OFFCURVE",
"268 1024 CURVE SMOOTH",
"268 1640 OFFCURVE",
"483 2012 OFFCURVE",
"832 2012 CURVE SMOOTH",
"1181 2012 OFFCURVE",
"1396 1640 OFFCURVE",
"1396 1024 CURVE SMOOTH",
"1396 408 OFFCURVE",
"1181 36 OFFCURVE",
"832 36 CURVE SMOOTH"
);
}
);
width = 1664;
},
{
layerId = "C8AA7CDC-6A04-46C8-87C6-418EC6DD01BE";
paths = (
{
closed = 1;
nodes = (
"1585 -57 OFFCURVE",
"1931 342 OFFCURVE",
"1932 1020 CURVE SMOOTH",
"1933 1694 OFFCURVE",
"1585 2076 OFFCURVE",
"1028 2076 CURVE SMOOTH",
"470 2076 OFFCURVE",
"126 1696 OFFCURVE",
"124 1020 CURVE SMOOTH",
"122 345 OFFCURVE",
"470 -55 OFFCURVE",
"1028 -56 CURVE SMOOTH"
);
},
{
closed = 1;
nodes = (
"836 396 OFFCURVE",
"698 589 OFFCURVE",
"700 1020 CURVE SMOOTH",
"702 1441 OFFCURVE",
"836 1628 OFFCURVE",
"1028 1628 CURVE SMOOTH",
"1220 1628 OFFCURVE",
"1355 1441 OFFCURVE",
"1356 1020 CURVE SMOOTH",
"1357 589 OFFCURVE",
"1220 396 OFFCURVE",
"1028 396 CURVE SMOOTH"
);
}
);
width = 2056;
},
{
layerId = "9DB0CBB1-7450-4B3A-8CA7-A9658A1D8B6A";
paths = (
{
closed = 1;
nodes = (
"1585 -57 OFFCURVE",
"1931 342 OFFCURVE",
"1932 1020 CURVE SMOOTH",
"1933 1694 OFFCURVE",
"1585 2076 OFFCURVE",
"1028 2076 CURVE SMOOTH",
"470 2076 OFFCURVE",
"126 1696 OFFCURVE",
"124 1020 CURVE SMOOTH",
"122 345 OFFCURVE",
"470 -55 OFFCURVE",
"1028 -56 CURVE SMOOTH"
);
},
{
closed = 1;
nodes = (
"836 396 OFFCURVE",
"698 589 OFFCURVE",
"700 1020 CURVE SMOOTH",
"702 1441 OFFCURVE",
"836 1628 OFFCURVE",
"1028 1628 CURVE SMOOTH",
"1220 1628 OFFCURVE",
"1355 1441 OFFCURVE",
"1356 1020 CURVE SMOOTH",
"1357 589 OFFCURVE",
"1220 396 OFFCURVE",
"1028 396 CURVE SMOOTH"
);
}
);
width = 2056;
},
{
layerId = "C0526DEC-9643-4CF7-8966-9E991C4F7D8C";
paths = (
{
closed = 1;
nodes = (
"1222 -28 OFFCURVE",
"1460 372 OFFCURVE",
"1460 1024 CURVE SMOOTH",
"1460 1676 OFFCURVE",
"1222 2076 OFFCURVE",
"832 2076 CURVE SMOOTH",
"442 2076 OFFCURVE",
"204 1676 OFFCURVE",
"204 1024 CURVE SMOOTH",
"204 372 OFFCURVE",
"442 -28 OFFCURVE",
"832 -28 CURVE SMOOTH"
);
},
{
closed = 1;
nodes = (
"483 36 OFFCURVE",
"268 408 OFFCURVE",
"268 1024 CURVE SMOOTH",
"268 1640 OFFCURVE",
"483 2012 OFFCURVE",
"832 2012 CURVE SMOOTH",
"1181 2012 OFFCURVE",
"1396 1640 OFFCURVE",
"1396 1024 CURVE SMOOTH",
"1396 408 OFFCURVE",
"1181 36 OFFCURVE",
"832 36 CURVE SMOOTH"
);
}
);
width = 1664;
}
);
unicode = 0030;
},
{
glyphname = one;
lastChange = "2019-07-06 09:14:57 +0000";
layers = (
{
layerId = "4005C4E1-7659-4C5E-9D78-13D17D50B24B";
paths = (
{
closed = 1;
nodes = (
"684 2048 LINE",
"172 1708 LINE",
"172 1456 LINE",
"672 1788 LINE",
"684 1788 LINE",
"684 0 LINE",
"932 0 LINE",
"932 2048 LINE"
);
}
);
width = 1308;
},
{
layerId = "CC8C8B2E-19C7-4699-A4BA-C120989B4E7F";
paths = (
{
closed = 1;
nodes = (
"684 2048 LINE",
"172 1708 LINE",
"172 1456 LINE",
"672 1788 LINE",
"684 1788 LINE",
"684 0 LINE",
"932 0 LINE",
"932 2048 LINE"
);
}
);
width = 1308;
},
{
layerId = "C0526DEC-9643-4CF7-8966-9E991C4F7D8C";
paths = (
{
closed = 1;
nodes = (
"628 2048 LINE",
"200 1764 LINE",
"200 1688 LINE",
"640 1980 LINE",
"652 1980 LINE",
"652 0 LINE",
"716 0 LINE",
"716 2048 LINE"
);
}
);
width = 1148;
},
{
layerId = "4AC57EC0-C61C-4EDF-B407-033FA33D6AD3";
paths = (
{
closed = 1;
nodes = (
"628 2048 LINE",
"200 1764 LINE",
"200 1688 LINE",
"640 1980 LINE",
"652 1980 LINE",
"652 0 LINE",
"716 0 LINE",
"716 2048 LINE"
);
}
);
width = 1148;
},
{
layerId = "C8AA7CDC-6A04-46C8-87C6-418EC6DD01BE";
paths = (
{
closed = 1;
nodes = (
"628 2048 LINE",
"124 1740 LINE",
"124 1268 LINE",
"572 1536 LINE",
"584 1536 LINE",
"584 0 LINE",
"1140 0 LINE",
"1140 2048 LINE"
);
}
);
width = 1424;
},
{
layerId = "9DB0CBB1-7450-4B3A-8CA7-A9658A1D8B6A";
paths = (
{
closed = 1;
nodes = (
"628 2048 LINE",
"124 1740 LINE",
"124 1268 LINE",
"572 1536 LINE",
"584 1536 LINE",
"584 0 LINE",
"1140 0 LINE",
"1140 2048 LINE"
);
}
);
width = 1424;
}
);
unicode = 0031;
},
{
glyphname = two;
lastChange = "2019-07-06 09:17:14 +0000";
layers = (
{
layerId = "4005C4E1-7659-4C5E-9D78-13D17D50B24B";
paths = (
{
closed = 1;
nodes = (
"1504 0 LINE",
"1504 220 LINE",
"552 220 LINE",
"552 236 LINE",
"1012 728 LINE SMOOTH",
"1364 1105 OFFCURVE",
"1468 1281 OFFCURVE",
"1468 1508 CURVE SMOOTH",
"1468 1824 OFFCURVE",
"1212 2076 OFFCURVE",
"852 2076 CURVE SMOOTH",
"493 2076 OFFCURVE",
"220 1832 OFFCURVE",
"220 1472 CURVE",
"456 1472 LINE",
"456 1705 OFFCURVE",
"607 1860 OFFCURVE",
"844 1860 CURVE SMOOTH",
"1066 1860 OFFCURVE",
"1236 1724 OFFCURVE",
"1236 1508 CURVE SMOOTH",
"1236 1319 OFFCURVE",
"1125 1179 OFFCURVE",
"888 920 CURVE SMOOTH",
"212 180 LINE",
"212 0 LINE"
);
}
);
width = 1704;
},
{
layerId = "CC8C8B2E-19C7-4699-A4BA-C120989B4E7F";
paths = (
{
closed = 1;
nodes = (
"1504 0 LINE",
"1504 220 LINE",
"552 220 LINE",
"552 236 LINE",
"1012 728 LINE SMOOTH",
"1364 1105 OFFCURVE",
"1468 1281 OFFCURVE",
"1468 1508 CURVE SMOOTH",
"1468 1824 OFFCURVE",
"1212 2076 OFFCURVE",
"852 2076 CURVE SMOOTH",
"493 2076 OFFCURVE",
"220 1832 OFFCURVE",
"220 1472 CURVE",
"456 1472 LINE",
"456 1705 OFFCURVE",
"607 1860 OFFCURVE",
"844 1860 CURVE SMOOTH",
"1066 1860 OFFCURVE",
"1236 1724 OFFCURVE",
"1236 1508 CURVE SMOOTH",
"1236 1319 OFFCURVE",
"1125 1179 OFFCURVE",
"888 920 CURVE SMOOTH",
"212 180 LINE",
"212 0 LINE"
);
}
);
width = 1704;
},
{
layerId = "C0526DEC-9643-4CF7-8966-9E991C4F7D8C";
paths = (
{
closed = 1;
nodes = (
"1496 0 LINE",
"1496 64 LINE",
"360 64 LINE",
"360 72 LINE",
"964 788 LINE SMOOTH",
"1279 1161 OFFCURVE",
"1376 1321 OFFCURVE",
"1376 1548 CURVE SMOOTH",
"1376 1852 OFFCURVE",
"1148 2076 OFFCURVE",
"840 2076 CURVE SMOOTH",
"520 2076 OFFCURVE",
"296 1833 OFFCURVE",
"296 1536 CURVE",
"360 1536 LINE",
"360 1797 OFFCURVE",
"556 2012 OFFCURVE",
"840 2012 CURVE SMOOTH",
"1112 2012 OFFCURVE",
"1312 1816 OFFCURVE",
"1312 1548 CURVE SMOOTH",
"1312 1344 OFFCURVE",
"1224 1192 OFFCURVE",
"916 828 CURVE SMOOTH",
"260 52 LINE",
"260 0 LINE"
);
}
);
width = 1748;
},
{
layerId = "4AC57EC0-C61C-4EDF-B407-033FA33D6AD3";
paths = (
{
closed = 1;
nodes = (
"1496 0 LINE",
"1496 64 LINE",
"360 64 LINE",
"360 72 LINE",
"964 788 LINE SMOOTH",
"1279 1161 OFFCURVE",
"1376 1321 OFFCURVE",
"1376 1548 CURVE SMOOTH",
"1376 1852 OFFCURVE",
"1148 2076 OFFCURVE",
"840 2076 CURVE SMOOTH",
"520 2076 OFFCURVE",
"296 1833 OFFCURVE",
"296 1536 CURVE",
"360 1536 LINE",
"360 1797 OFFCURVE",
"556 2012 OFFCURVE",
"840 2012 CURVE SMOOTH",
"1112 2012 OFFCURVE",
"1312 1816 OFFCURVE",
"1312 1548 CURVE SMOOTH",
"1312 1344 OFFCURVE",
"1224 1192 OFFCURVE",
"916 828 CURVE SMOOTH",
"260 52 LINE",
"260 0 LINE"
);
}
);
width = 1748;
},
{
layerId = "C8AA7CDC-6A04-46C8-87C6-418EC6DD01BE";
paths = (
{
closed = 1;
nodes = (
"1708 0 LINE",
"1708 444 LINE",
"908 444 LINE",
"908 456 LINE",
"1100 616 LINE SMOOTH",
"1567 1005 OFFCURVE",
"1686 1207 OFFCURVE",
"1686 1444 CURVE SMOOTH",
"1686 1826 OFFCURVE",
"1373 2076 OFFCURVE",
"882 2076 CURVE SMOOTH",
"405 2076 OFFCURVE",
"95 1811 OFFCURVE",
"96 1380 CURVE",
"624 1380 LINE",
"623 1552 OFFCURVE",
"728 1648 OFFCURVE",
"882 1648 CURVE SMOOTH",
"1035 1648 OFFCURVE",
"1144 1553 OFFCURVE",
"1144 1396 CURVE SMOOTH",
"1144 1251 OFFCURVE",
"1051 1157 OFFCURVE",
"900 1032 CURVE SMOOTH",
"136 400 LINE",
"136 0 LINE"
);
}
);
width = 1820;
},
{
layerId = "9DB0CBB1-7450-4B3A-8CA7-A9658A1D8B6A";
paths = (
{
closed = 1;
nodes = (
"1708 0 LINE",
"1708 444 LINE",
"908 444 LINE",
"908 456 LINE",
"1100 616 LINE SMOOTH",
"1567 1005 OFFCURVE",
"1686 1207 OFFCURVE",
"1686 1444 CURVE SMOOTH",
"1686 1826 OFFCURVE",
"1373 2076 OFFCURVE",
"882 2076 CURVE SMOOTH",
"405 2076 OFFCURVE",
"95 1811 OFFCURVE",
"96 1380 CURVE",
"624 1380 LINE",
"623 1552 OFFCURVE",
"728 1648 OFFCURVE",
"882 1648 CURVE SMOOTH",
"1035 1648 OFFCURVE",
"1144 1553 OFFCURVE",
"1144 1396 CURVE SMOOTH",
"1144 1251 OFFCURVE",
"1051 1157 OFFCURVE",
"900 1032 CURVE SMOOTH",
"136 400 LINE",
"136 0 LINE"
);
}
);
width = 1820;
}
);
unicode = 0032;
},
{
glyphname = three;
lastChange = "2019-07-06 09:18:09 +0000";
layers = (
{
layerId = "4005C4E1-7659-4C5E-9D78-13D17D50B24B";
paths = (
{
closed = 1;
nodes = (
"1301 -28 OFFCURVE",
"1596 221 OFFCURVE",
"1596 556 CURVE SMOOTH",
"1596 816 OFFCURVE",
"1442 1005 OFFCURVE",
"1184 1048 CURVE",
"1184 1064 LINE",
"1391 1127 OFFCURVE",
"1520 1297 OFFCURVE",
"1520 1528 CURVE SMOOTH",
"1520 1818 OFFCURVE",
"1291 2076 OFFCURVE",
"912 2076 CURVE SMOOTH",
"558 2076 OFFCURVE",
"264 1858 OFFCURVE",
"252 1536 CURVE",
"492 1536 LINE",
"501 1740 OFFCURVE",
"695 1860 OFFCURVE",
"908 1860 CURVE SMOOTH",
"1134 1860 OFFCURVE",
"1280 1723 OFFCURVE",
"1280 1516 CURVE SMOOTH",
"1280 1300 OFFCURVE",
"1111 1160 OFFCURVE",
"868 1160 CURVE SMOOTH",
"704 1160 LINE",
"704 940 LINE",
"868 940 LINE SMOOTH",
"1179 940 OFFCURVE",
"1352 782 OFFCURVE",
"1352 556 CURVE SMOOTH",
"1352 339 OFFCURVE",
"1163 192 OFFCURVE",
"900 192 CURVE SMOOTH",
"663 192 OFFCURVE",
"475 314 OFFCURVE",
"460 512 CURVE",
"208 512 LINE",
"223 190 OFFCURVE",
"507 -28 OFFCURVE",
"904 -28 CURVE SMOOTH"
);
}
);
width = 1792;
},
{
layerId = "CC8C8B2E-19C7-4699-A4BA-C120989B4E7F";
paths = (
{
closed = 1;
nodes = (
"1301 -28 OFFCURVE",
"1596 221 OFFCURVE",
"1596 556 CURVE SMOOTH",
"1596 816 OFFCURVE",
"1442 1005 OFFCURVE",
"1184 1048 CURVE",
"1184 1064 LINE",
"1391 1127 OFFCURVE",
"1520 1297 OFFCURVE",
"1520 1528 CURVE SMOOTH",
"1520 1818 OFFCURVE",
"1291 2076 OFFCURVE",
"912 2076 CURVE SMOOTH",
"558 2076 OFFCURVE",
"264 1858 OFFCURVE",
"252 1536 CURVE",
"492 1536 LINE",
"501 1740 OFFCURVE",
"695 1860 OFFCURVE",
"908 1860 CURVE SMOOTH",
"1134 1860 OFFCURVE",
"1280 1723 OFFCURVE",
"1280 1516 CURVE SMOOTH",
"1280 1300 OFFCURVE",
"1111 1160 OFFCURVE",
"868 1160 CURVE SMOOTH",
"704 1160 LINE",
"704 940 LINE",
"868 940 LINE SMOOTH",
"1179 940 OFFCURVE",
"1352 782 OFFCURVE",
"1352 556 CURVE SMOOTH",
"1352 339 OFFCURVE",
"1163 192 OFFCURVE",
"900 192 CURVE SMOOTH",
"663 192 OFFCURVE",
"475 314 OFFCURVE",
"460 512 CURVE",
"208 512 LINE",
"223 190 OFFCURVE",
"507 -28 OFFCURVE",
"904 -28 CURVE SMOOTH"
);
}
);
width = 1792;
},
{
layerId = "4AC57EC0-C61C-4EDF-B407-033FA33D6AD3";
paths = (
{
closed = 1;
nodes = (
"1230 -28 OFFCURVE",
"1480 217 OFFCURVE",
"1480 532 CURVE SMOOTH",
"1480 792 OFFCURVE",
"1308 988 OFFCURVE",
"1040 1056 CURVE",
"1040 1064 LINE",
"1272 1130 OFFCURVE",
"1420 1312 OFFCURVE",
"1420 1552 CURVE SMOOTH",
"1420 1852 OFFCURVE",
"1190 2076 OFFCURVE",
"868 2076 CURVE SMOOTH",
"546 2076 OFFCURVE",
"312 1852 OFFCURVE",
"312 1536 CURVE",
"376 1536 LINE",
"376 1816 OFFCURVE",
"582 2012 OFFCURVE",
"868 2012 CURVE SMOOTH",
"1157 2012 OFFCURVE",
"1356 1815 OFFCURVE",
"1356 1552 CURVE SMOOTH",
"1356 1268 OFFCURVE",
"1119 1088 OFFCURVE",
"812 1088 CURVE SMOOTH",
"780 1088 LINE",
"780 1024 LINE",
"812 1024 LINE SMOOTH",
"1162 1024 OFFCURVE",
"1416 826 OFFCURVE",
"1416 532 CURVE SMOOTH",
"1416 259 OFFCURVE",
"1197 36 OFFCURVE",
"872 36 CURVE SMOOTH",
"565 36 OFFCURVE",
"328 236 OFFCURVE",
"328 512 CURVE",
"264 512 LINE",
"264 200 OFFCURVE",
"526 -28 OFFCURVE",
"872 -28 CURVE SMOOTH"
);
}
);
width = 1728;
},
{
layerId = "C8AA7CDC-6A04-46C8-87C6-418EC6DD01BE";
paths = (
{
closed = 1;
nodes = (
"1437 -28 OFFCURVE",
"1790 227 OFFCURVE",
"1788 588 CURVE SMOOTH",
"1790 839 OFFCURVE",
"1622 1016 OFFCURVE",
"1292 1052 CURVE",
"1292 1068 LINE",
"1536 1094 OFFCURVE",
"1714 1251 OFFCURVE",
"1712 1480 CURVE SMOOTH",
"1714 1825 OFFCURVE",
"1394 2076 OFFCURVE",
"940 2076 CURVE SMOOTH",
"476 2076 OFFCURVE",
"146 1811 OFFCURVE",
"144 1436 CURVE",
"676 1436 LINE",
"678 1560 OFFCURVE",
"787 1648 OFFCURVE",
"940 1648 CURVE SMOOTH",
"1080 1648 OFFCURVE",
"1178 1563 OFFCURVE",
"1176 1444 CURVE SMOOTH",
"1178 1320 OFFCURVE",
"1062 1232 OFFCURVE",
"896 1232 CURVE SMOOTH",
"688 1232 LINE",
"688 848 LINE",
"896 848 LINE SMOOTH",
"1076 848 OFFCURVE",
"1202 760 OFFCURVE",
"1200 636 CURVE SMOOTH",
"1202 509 OFFCURVE",
"1094 420 OFFCURVE",
"940 420 CURVE SMOOTH",
"780 420 OFFCURVE",
"666 505 OFFCURVE",
"664 624 CURVE",
"104 624 LINE",
"106 242 OFFCURVE",
"451 -28 OFFCURVE",
"936 -28 CURVE SMOOTH"
);
}
);
width = 1900;
},
{
layerId = "9DB0CBB1-7450-4B3A-8CA7-A9658A1D8B6A";
paths = (
{
closed = 1;
nodes = (
"1437 -28 OFFCURVE",
"1790 227 OFFCURVE",
"1788 588 CURVE SMOOTH",
"1790 839 OFFCURVE",
"1622 1016 OFFCURVE",
"1292 1052 CURVE",
"1292 1068 LINE",
"1536 1094 OFFCURVE",
"1714 1251 OFFCURVE",
"1712 1480 CURVE SMOOTH",
"1714 1825 OFFCURVE",
"1394 2076 OFFCURVE",
"940 2076 CURVE SMOOTH",
"476 2076 OFFCURVE",
"146 1811 OFFCURVE",
"144 1436 CURVE",
"676 1436 LINE",
"678 1560 OFFCURVE",
"787 1648 OFFCURVE",
"940 1648 CURVE SMOOTH",
"1080 1648 OFFCURVE",
"1178 1563 OFFCURVE",
"1176 1444 CURVE SMOOTH",
"1178 1320 OFFCURVE",
"1062 1232 OFFCURVE",
"896 1232 CURVE SMOOTH",
"688 1232 LINE",
"688 848 LINE",
"896 848 LINE SMOOTH",
"1076 848 OFFCURVE",
"1202 760 OFFCURVE",
"1200 636 CURVE SMOOTH",
"1202 509 OFFCURVE",
"1094 420 OFFCURVE",
"940 420 CURVE SMOOTH",
"780 420 OFFCURVE",
"666 505 OFFCURVE",
"664 624 CURVE",
"104 624 LINE",
"106 242 OFFCURVE",
"451 -28 OFFCURVE",
"936 -28 CURVE SMOOTH"
);
}
);
width = 1900;
},
{
layerId = "C0526DEC-9643-4CF7-8966-9E991C4F7D8C";
paths = (
{
closed = 1;
nodes = (
"1230 -28 OFFCURVE",
"1480 217 OFFCURVE",
"1480 532 CURVE SMOOTH",
"1480 792 OFFCURVE",
"1308 988 OFFCURVE",
"1040 1056 CURVE",
"1040 1064 LINE",
"1272 1130 OFFCURVE",
"1420 1312 OFFCURVE",
"1420 1552 CURVE SMOOTH",
"1420 1852 OFFCURVE",
"1190 2076 OFFCURVE",
"868 2076 CURVE SMOOTH",
"546 2076 OFFCURVE",
"312 1852 OFFCURVE",
"312 1536 CURVE",
"376 1536 LINE",
"376 1816 OFFCURVE",
"582 2012 OFFCURVE",
"868 2012 CURVE SMOOTH",
"1157 2012 OFFCURVE",
"1356 1815 OFFCURVE",
"1356 1552 CURVE SMOOTH",
"1356 1268 OFFCURVE",
"1119 1088 OFFCURVE",
"812 1088 CURVE SMOOTH",
"780 1088 LINE",
"780 1024 LINE",
"812 1024 LINE SMOOTH",
"1162 1024 OFFCURVE",
"1416 826 OFFCURVE",
"1416 532 CURVE SMOOTH",
"1416 259 OFFCURVE",
"1197 36 OFFCURVE",
"872 36 CURVE SMOOTH",
"565 36 OFFCURVE",
"328 236 OFFCURVE",
"328 512 CURVE",
"264 512 LINE",
"264 200 OFFCURVE",
"526 -28 OFFCURVE",
"872 -28 CURVE SMOOTH"
);
}
);
width = 1728;
}
);
unicode = 0033;
},
{
glyphname = four;
lastChange = "2019-07-06 09:18:47 +0000";
layers = (
{
layerId = "4005C4E1-7659-4C5E-9D78-13D17D50B24B";
paths = (
{
closed = 1;
nodes = (
"1644 420 LINE",
"1644 640 LINE",
"432 640 LINE",
"432 656 LINE",
"1112 1732 LINE",
"1212 1732 LINE",
"1212 2048 LINE",
"1064 2048 LINE",
"164 624 LINE",
"164 420 LINE"
);
},
{
closed = 1;
nodes = (
"1364 0 LINE",
"1364 2048 LINE",
"1128 2048 LINE",
"1128 577 LINE",
"1128 482 LINE",
"1128 0 LINE"
);
}
);
width = 1808;
},
{
layerId = "CC8C8B2E-19C7-4699-A4BA-C120989B4E7F";
paths = (
{
closed = 1;
nodes = (
"1644 420 LINE",
"1644 640 LINE",
"432 640 LINE",
"432 656 LINE",
"1112 1732 LINE",
"1212 1732 LINE",
"1212 2048 LINE",
"1064 2048 LINE",
"164 624 LINE",
"164 420 LINE"
);
},
{
closed = 1;
nodes = (
"1364 0 LINE",
"1364 2048 LINE",
"1128 2048 LINE",
"1128 577 LINE",
"1128 482 LINE",
"1128 0 LINE"
);
}
);
width = 1808;
},
{
layerId = "4AC57EC0-C61C-4EDF-B407-033FA33D6AD3";
paths = (
{
closed = 1;
nodes = (
"1468 480 LINE",
"1468 544 LINE",
"300 544 LINE",
"300 552 LINE",
"1140 1916 LINE",
"1188 1916 LINE",
"1188 2048 LINE",
"1148 2048 LINE",
"208 528 LINE",
"208 480 LINE"
);
},
{
closed = 1;
nodes = (
"1212 0 LINE",
"1212 2048 LINE",
"1148 2048 LINE",
"1148 520 LINE",
"1148 500 LINE",
"1148 0 LINE"
);
}
);
width = 1676;
},
{
layerId = "C8AA7CDC-6A04-46C8-87C6-418EC6DD01BE";
paths = (
{
closed = 1;
nodes = (
"1880 320 LINE",
"1880 752 LINE",
"664 752 LINE",
"664 768 LINE",
"1108 1472 LINE",
"1332 1472 LINE",
"1332 2048 LINE",
"940 2048 LINE",
"116 752 LINE",
"116 320 LINE"
);
},
{
closed = 1;
nodes = (
"1644 0 LINE",
"1644 2048 LINE",
"1124 2048 LINE",
"1124 640 LINE",
"1112 452 LINE",
"1112 0 LINE"
);
}
);
width = 1976;
},
{
layerId = "9DB0CBB1-7450-4B3A-8CA7-A9658A1D8B6A";
paths = (
{
closed = 1;
nodes = (
"1880 320 LINE",
"1880 752 LINE",
"664 752 LINE",
"664 768 LINE",
"1108 1472 LINE",
"1332 1472 LINE",
"1332 2048 LINE",
"940 2048 LINE",
"116 752 LINE",
"116 320 LINE"
);
},
{
closed = 1;
nodes = (
"1644 0 LINE",
"1644 2048 LINE",
"1124 2048 LINE",
"1124 640 LINE",
"1112 452 LINE",
"1112 0 LINE"
);
}
);
width = 1976;
},
{
layerId = "C0526DEC-9643-4CF7-8966-9E991C4F7D8C";
paths = (
{
closed = 1;
nodes = (
"1468 480 LINE",
"1468 544 LINE",
"300 544 LINE",
"300 552 LINE",
"1140 1916 LINE",
"1188 1916 LINE",
"1188 2048 LINE",
"1148 2048 LINE",
"208 528 LINE",
"208 480 LINE"
);
},
{
closed = 1;
nodes = (
"1212 0 LINE",
"1212 2048 LINE",
"1148 2048 LINE",
"1148 520 LINE",
"1148 500 LINE",
"1148 0 LINE"
);
}
);
width = 1676;
}
);
unicode = 0034;
},
{
glyphname = five;
lastChange = "2019-07-06 09:19:19 +0000";
layers = (
{
layerId = "4005C4E1-7659-4C5E-9D78-13D17D50B24B";
paths = (
{
closed = 1;
nodes = (
"1242 -28 OFFCURVE",
"1528 260 OFFCURVE",
"1528 652 CURVE SMOOTH",
"1528 1049 OFFCURVE",
"1252 1340 OFFCURVE",
"876 1340 CURVE SMOOTH",
"738 1340 OFFCURVE",
"604 1291 OFFCURVE",
"520 1224 CURVE",
"508 1224 LINE",
"580 1828 LINE",
"1436 1828 LINE",
"1436 2048 LINE",
"372 2048 LINE",
"248 1040 LINE",
"480 1012 LINE",
"565 1073 OFFCURVE",
"710 1117 OFFCURVE",
"836 1116 CURVE SMOOTH",
"1097 1114 OFFCURVE",
"1288 916 OFFCURVE",
"1288 648 CURVE SMOOTH",
"1288 385 OFFCURVE",
"1104 192 OFFCURVE",
"852 192 CURVE SMOOTH",
"642 192 OFFCURVE",
"475 327 OFFCURVE",
"456 512 CURVE",
"216 512 LINE",
"231 200 OFFCURVE",
"500 -28 OFFCURVE",
"852 -28 CURVE SMOOTH"
);
}
);
width = 1712;
},
{
layerId = "CC8C8B2E-19C7-4699-A4BA-C120989B4E7F";
paths = (
{
closed = 1;
nodes = (
"1242 -28 OFFCURVE",
"1528 260 OFFCURVE",
"1528 652 CURVE SMOOTH",
"1528 1049 OFFCURVE",
"1252 1340 OFFCURVE",
"876 1340 CURVE SMOOTH",
"738 1340 OFFCURVE",
"604 1291 OFFCURVE",
"520 1224 CURVE",
"508 1224 LINE",
"580 1828 LINE",
"1436 1828 LINE",
"1436 2048 LINE",
"372 2048 LINE",
"248 1040 LINE",
"480 1012 LINE",
"565 1073 OFFCURVE",
"710 1117 OFFCURVE",
"836 1116 CURVE SMOOTH",
"1097 1114 OFFCURVE",
"1288 916 OFFCURVE",
"1288 648 CURVE SMOOTH",
"1288 385 OFFCURVE",
"1104 192 OFFCURVE",
"852 192 CURVE SMOOTH",
"642 192 OFFCURVE",
"475 327 OFFCURVE",
"456 512 CURVE",
"216 512 LINE",
"231 200 OFFCURVE",
"500 -28 OFFCURVE",
"852 -28 CURVE SMOOTH"
);
}
);
width = 1712;
},
{
layerId = "4AC57EC0-C61C-4EDF-B407-033FA33D6AD3";
paths = (
{
closed = 1;
nodes = (
"1130 -28 OFFCURVE",
"1382 256 OFFCURVE",
"1384 636 CURVE SMOOTH",
"1386 1032 OFFCURVE",
"1102 1292 OFFCURVE",
"772 1292 CURVE SMOOTH",
"608 1292 OFFCURVE",
"470 1231 OFFCURVE",
"368 1136 CURVE",
"360 1136 LINE",
"464 1984 LINE",
"1316 1984 LINE",
"1316 2048 LINE",
"408 2048 LINE",
"288 1080 LINE",
"384 1064 LINE",
"478 1160 OFFCURVE",
"610 1228 OFFCURVE",
"772 1228 CURVE SMOOTH",
"1066 1228 OFFCURVE",
"1318 1000 OFFCURVE",
"1320 636 CURVE SMOOTH",
"1322 296 OFFCURVE",
"1098 36 OFFCURVE",
"776 36 CURVE SMOOTH",
"490 36 OFFCURVE",
"298 232 OFFCURVE",
"300 512 CURVE",
"236 512 LINE",
"234 196 OFFCURVE",
"458 -28 OFFCURVE",
"776 -28 CURVE SMOOTH"
);
}
);
width = 1608;
},
{
layerId = "C8AA7CDC-6A04-46C8-87C6-418EC6DD01BE";
paths = (
{
closed = 1;
nodes = (
"1455 -28 OFFCURVE",
"1781 275 OFFCURVE",
"1780 704 CURVE SMOOTH",
"1781 1093 OFFCURVE",
"1509 1368 OFFCURVE",
"1144 1368 CURVE SMOOTH",
"936 1368 OFFCURVE",
"768 1276 OFFCURVE",
"704 1152 CURVE",
"692 1152 LINE",
"732 1604 LINE",
"1652 1604 LINE",
"1652 2048 LINE",
"276 2048 LINE",
"196 920 LINE",
"684 824 LINE",
"731 924 OFFCURVE",
"838 984 OFFCURVE",
"956 984 CURVE SMOOTH",
"1126 984 OFFCURVE",
"1245 867 OFFCURVE",
"1244 688 CURVE SMOOTH",
"1245 509 OFFCURVE",
"1126 392 OFFCURVE",
"956 392 CURVE SMOOTH",
"809 392 OFFCURVE",
"688 482 OFFCURVE",
"684 624 CURVE",
"144 624 LINE",
"147 242 OFFCURVE",
"484 -28 OFFCURVE",
"956 -28 CURVE SMOOTH"
);
}
);
width = 1884;
},
{
layerId = "9DB0CBB1-7450-4B3A-8CA7-A9658A1D8B6A";
paths = (
{
closed = 1;
nodes = (
"1455 -28 OFFCURVE",
"1781 275 OFFCURVE",
"1780 704 CURVE SMOOTH",
"1781 1093 OFFCURVE",
"1509 1368 OFFCURVE",
"1144 1368 CURVE SMOOTH",
"936 1368 OFFCURVE",
"768 1276 OFFCURVE",
"704 1152 CURVE",
"692 1152 LINE",
"732 1604 LINE",
"1652 1604 LINE",
"1652 2048 LINE",
"276 2048 LINE",
"196 920 LINE",
"684 824 LINE",
"731 924 OFFCURVE",
"838 984 OFFCURVE",
"956 984 CURVE SMOOTH",
"1126 984 OFFCURVE",
"1245 867 OFFCURVE",
"1244 688 CURVE SMOOTH",
"1245 509 OFFCURVE",
"1126 392 OFFCURVE",
"956 392 CURVE SMOOTH",
"809 392 OFFCURVE",
"688 482 OFFCURVE",
"684 624 CURVE",
"144 624 LINE",
"147 242 OFFCURVE",
"484 -28 OFFCURVE",
"956 -28 CURVE SMOOTH"
);
}
);
width = 1884;
},
{
layerId = "C0526DEC-9643-4CF7-8966-9E991C4F7D8C";
paths = (
{
closed = 1;
nodes = (
"1130 -28 OFFCURVE",
"1382 256 OFFCURVE",
"1384 636 CURVE SMOOTH",
"1386 1032 OFFCURVE",
"1102 1292 OFFCURVE",
"772 1292 CURVE SMOOTH",
"608 1292 OFFCURVE",
"470 1231 OFFCURVE",
"368 1136 CURVE",
"360 1136 LINE",
"464 1984 LINE",
"1316 1984 LINE",
"1316 2048 LINE",
"408 2048 LINE",
"288 1080 LINE",
"384 1064 LINE",
"478 1160 OFFCURVE",
"610 1228 OFFCURVE",
"772 1228 CURVE SMOOTH",
"1066 1228 OFFCURVE",
"1318 1000 OFFCURVE",
"1320 636 CURVE SMOOTH",
"1322 296 OFFCURVE",
"1098 36 OFFCURVE",
"776 36 CURVE SMOOTH",
"490 36 OFFCURVE",
"298 232 OFFCURVE",
"300 512 CURVE",
"236 512 LINE",
"234 196 OFFCURVE",
"458 -28 OFFCURVE",
"776 -28 CURVE SMOOTH"
);
}
);
width = 1608;
}
);
unicode = 0035;
},
{
glyphname = six;
lastChange = "2019-07-06 09:19:50 +0000";
layers = (
{
layerId = "4005C4E1-7659-4C5E-9D78-13D17D50B24B";
paths = (
{
closed = 1;
nodes = (
"1306 -33 OFFCURVE",
"1576 279 OFFCURVE",
"1576 660 CURVE SMOOTH",
"1576 1056 OFFCURVE",
"1283 1340 OFFCURVE",
"932 1340 CURVE SMOOTH",
"721 1340 OFFCURVE",
"540 1237 OFFCURVE",
"428 1068 CURVE",
"412 1068 LINE",
"413 1571 OFFCURVE",
"607 1860 OFFCURVE",
"924 1860 CURVE SMOOTH",
"1140 1860 OFFCURVE",
"1270 1724 OFFCURVE",
"1316 1536 CURVE",
"1560 1536 LINE",
"1510 1858 OFFCURVE",
"1268 2080 OFFCURVE",
"924 2080 CURVE SMOOTH",
"463 2080 OFFCURVE",
"180 1672 OFFCURVE",
"180 944 CURVE SMOOTH",
"180 187 OFFCURVE",
"556 -24 OFFCURVE",
"892 -28 CURVE SMOOTH"
);
},
{
closed = 1;
nodes = (
"635 192 OFFCURVE",
"447 411 OFFCURVE",
"448 656 CURVE SMOOTH",
"449 901 OFFCURVE",
"646 1120 OFFCURVE",
"900 1120 CURVE SMOOTH",
"1151 1120 OFFCURVE",
"1336 914 OFFCURVE",
"1336 660 CURVE SMOOTH",
"1336 400 OFFCURVE",
"1143 192 OFFCURVE",
"892 192 CURVE SMOOTH"
);
}
);
width = 1756;
},
{
layerId = "CC8C8B2E-19C7-4699-A4BA-C120989B4E7F";
paths = (
{
closed = 1;
nodes = (
"1306 -33 OFFCURVE",
"1576 279 OFFCURVE",
"1576 660 CURVE SMOOTH",
"1576 1056 OFFCURVE",
"1283 1340 OFFCURVE",
"932 1340 CURVE SMOOTH",
"721 1340 OFFCURVE",
"540 1237 OFFCURVE",
"428 1068 CURVE",
"412 1068 LINE",
"413 1571 OFFCURVE",
"607 1860 OFFCURVE",
"924 1860 CURVE SMOOTH",
"1140 1860 OFFCURVE",
"1270 1724 OFFCURVE",
"1316 1536 CURVE",
"1560 1536 LINE",
"1510 1858 OFFCURVE",
"1268 2080 OFFCURVE",
"924 2080 CURVE SMOOTH",
"463 2080 OFFCURVE",
"180 1672 OFFCURVE",
"180 944 CURVE SMOOTH",
"180 187 OFFCURVE",
"556 -24 OFFCURVE",
"892 -28 CURVE SMOOTH"
);
},
{
closed = 1;
nodes = (
"635 192 OFFCURVE",
"447 411 OFFCURVE",
"448 656 CURVE SMOOTH",
"449 901 OFFCURVE",
"646 1120 OFFCURVE",
"900 1120 CURVE SMOOTH",
"1151 1120 OFFCURVE",
"1336 914 OFFCURVE",
"1336 660 CURVE SMOOTH",
"1336 400 OFFCURVE",
"1143 192 OFFCURVE",
"892 192 CURVE SMOOTH"
);
}
);
width = 1756;
},
{
layerId = "C0526DEC-9643-4CF7-8966-9E991C4F7D8C";
paths = (
{
closed = 1;
nodes = (
"1180 -28 OFFCURVE",
"1412 272 OFFCURVE",
"1412 612 CURVE SMOOTH",
"1412 976 OFFCURVE",
"1146 1252 OFFCURVE",
"824 1252 CURVE SMOOTH",
"587 1252 OFFCURVE",
"365 1104 OFFCURVE",
"300 900 CURVE",
"292 900 LINE",
"292 1618 OFFCURVE",
"482 2012 OFFCURVE",
"856 2012 CURVE SMOOTH",
"1125 2012 OFFCURVE",
"1292 1817 OFFCURVE",
"1312 1536 CURVE",
"1376 1536 LINE",
"1356 1856 OFFCURVE",
"1160 2076 OFFCURVE",
"856 2076 CURVE SMOOTH",
"360 2076 OFFCURVE",
"228 1480 OFFCURVE",
"228 928 CURVE SMOOTH",
"228 284 OFFCURVE",
"488 -28 OFFCURVE",
"836 -28 CURVE SMOOTH"
);
},
{
closed = 1;
nodes = (
"583 36 OFFCURVE",
"392 224 OFFCURVE",
"324 584 CURVE SMOOTH",
"264 905 OFFCURVE",
"507 1188 OFFCURVE",
"820 1188 CURVE SMOOTH",
"1116 1188 OFFCURVE",
"1348 936 OFFCURVE",
"1348 612 CURVE SMOOTH",
"1348 296 OFFCURVE",
"1132 36 OFFCURVE",
"836 36 CURVE SMOOTH"
);
}
);
width = 1640;
},
{
layerId = "4AC57EC0-C61C-4EDF-B407-033FA33D6AD3";
paths = (
{
closed = 1;
nodes = (
"1180 -28 OFFCURVE",
"1412 272 OFFCURVE",
"1412 612 CURVE SMOOTH",
"1412 976 OFFCURVE",
"1146 1252 OFFCURVE",
"824 1252 CURVE SMOOTH",
"587 1252 OFFCURVE",
"365 1104 OFFCURVE",
"300 900 CURVE",
"292 900 LINE",
"292 1618 OFFCURVE",
"482 2012 OFFCURVE",
"856 2012 CURVE SMOOTH",
"1125 2012 OFFCURVE",
"1292 1817 OFFCURVE",
"1312 1536 CURVE",
"1376 1536 LINE",
"1356 1856 OFFCURVE",
"1160 2076 OFFCURVE",
"856 2076 CURVE SMOOTH",
"360 2076 OFFCURVE",
"228 1480 OFFCURVE",
"228 928 CURVE SMOOTH",
"228 284 OFFCURVE",
"488 -28 OFFCURVE",
"836 -28 CURVE SMOOTH"
);
},
{
closed = 1;
nodes = (
"583 36 OFFCURVE",
"392 224 OFFCURVE",
"324 584 CURVE SMOOTH",
"264 905 OFFCURVE",
"507 1188 OFFCURVE",
"820 1188 CURVE SMOOTH",
"1116 1188 OFFCURVE",
"1348 936 OFFCURVE",
"1348 612 CURVE SMOOTH",
"1348 296 OFFCURVE",
"1132 36 OFFCURVE",
"836 36 CURVE SMOOTH"
);
}
);
width = 1640;
},
{
layerId = "C8AA7CDC-6A04-46C8-87C6-418EC6DD01BE";
paths = (
{
closed = 1;
nodes = (
"1476 -28 OFFCURVE",
"1814 263 OFFCURVE",
"1812 704 CURVE SMOOTH",
"1814 1079 OFFCURVE",
"1563 1352 OFFCURVE",
"1192 1352 CURVE SMOOTH",
"958 1352 OFFCURVE",
"746 1240 OFFCURVE",
"668 1052 CURVE",
"656 1052 LINE",
"658 1391 OFFCURVE",
"762 1612 OFFCURVE",
"996 1612 CURVE SMOOTH",
"1113 1612 OFFCURVE",
"1215 1560 OFFCURVE",
"1240 1436 CURVE",
"1788 1436 LINE",
"1753 1794 OFFCURVE",
"1448 2084 OFFCURVE",
"996 2084 CURVE SMOOTH",
"459 2084 OFFCURVE",
"106 1672 OFFCURVE",
"104 1000 CURVE SMOOTH",
"106 256 OFFCURVE",
"514 -28 OFFCURVE",
"992 -28 CURVE SMOOTH"
);
},
{
closed = 1;
nodes = (
"826 392 OFFCURVE",
"706 515 OFFCURVE",
"704 684 CURVE SMOOTH",
"706 853 OFFCURVE",
"826 976 OFFCURVE",
"988 976 CURVE SMOOTH",
"1154 976 OFFCURVE",
"1274 853 OFFCURVE",
"1272 684 CURVE SMOOTH",
"1274 515 OFFCURVE",
"1154 392 OFFCURVE",
"988 392 CURVE SMOOTH"
);
}
);
width = 1928;
},
{
layerId = "9DB0CBB1-7450-4B3A-8CA7-A9658A1D8B6A";
paths = (
{
closed = 1;
nodes = (
"1476 -28 OFFCURVE",
"1814 263 OFFCURVE",
"1812 704 CURVE SMOOTH",
"1814 1079 OFFCURVE",
"1563 1352 OFFCURVE",
"1192 1352 CURVE SMOOTH",
"958 1352 OFFCURVE",
"746 1240 OFFCURVE",
"668 1052 CURVE",
"656 1052 LINE",
"658 1391 OFFCURVE",
"762 1612 OFFCURVE",
"996 1612 CURVE SMOOTH",
"1113 1612 OFFCURVE",
"1215 1560 OFFCURVE",
"1240 1436 CURVE",
"1788 1436 LINE",
"1753 1794 OFFCURVE",
"1448 2084 OFFCURVE",
"996 2084 CURVE SMOOTH",
"459 2084 OFFCURVE",
"106 1672 OFFCURVE",
"104 1000 CURVE SMOOTH",
"106 256 OFFCURVE",
"514 -28 OFFCURVE",
"992 -28 CURVE SMOOTH"
);
},
{
closed = 1;
nodes = (
"826 392 OFFCURVE",
"706 515 OFFCURVE",
"704 684 CURVE SMOOTH",
"706 853 OFFCURVE",
"826 976 OFFCURVE",
"988 976 CURVE SMOOTH",
"1154 976 OFFCURVE",
"1274 853 OFFCURVE",
"1272 684 CURVE SMOOTH",
"1274 515 OFFCURVE",
"1154 392 OFFCURVE",
"988 392 CURVE SMOOTH"
);
}
);
width = 1928;
}
);
unicode = 0036;
},
{
glyphname = seven;
lastChange = "2019-07-06 09:20:30 +0000";
layers = (
{
layerId = "4005C4E1-7659-4C5E-9D78-13D17D50B24B";
paths = (
{
closed = 1;
nodes = (
"536 0 LINE",
"1448 1816 LINE",
"1448 2048 LINE",
"136 2048 LINE",
"136 1828 LINE",
"1192 1828 LINE",
"1192 1812 LINE",
"276 0 LINE"
);
}
);
width = 1608;
},
{
layerId = "CC8C8B2E-19C7-4699-A4BA-C120989B4E7F";
paths = (
{
closed = 1;
nodes = (
"536 0 LINE",
"1448 1816 LINE",
"1448 2048 LINE",
"136 2048 LINE",
"136 1828 LINE",
"1192 1828 LINE",
"1192 1812 LINE",
"276 0 LINE"
);
}
);
width = 1608;
},
{
layerId = "4AC57EC0-C61C-4EDF-B407-033FA33D6AD3";
paths = (
{
closed = 1;
nodes = (
"380 0 LINE",
"1352 1984 LINE",
"1352 2048 LINE",
"164 2048 LINE",
"164 1984 LINE",
"1276 1984 LINE",
"1276 1976 LINE",
"308 0 LINE"
);
}
);
width = 1542;
},
{
layerId = "C8AA7CDC-6A04-46C8-87C6-418EC6DD01BE";
paths = (
{
closed = 1;
nodes = (
"800 0 LINE",
"1608 1604 LINE",
"1608 2048 LINE",
"88 2048 LINE",
"88 1604 LINE",
"1032 1604 LINE",
"1032 1592 LINE",
"228 0 LINE"
);
}
);
width = 1720;
},
{
layerId = "9DB0CBB1-7450-4B3A-8CA7-A9658A1D8B6A";
paths = (
{
closed = 1;
nodes = (
"800 0 LINE",
"1608 1604 LINE",
"1608 2048 LINE",
"88 2048 LINE",
"88 1604 LINE",
"1032 1604 LINE",
"1032 1592 LINE",
"228 0 LINE"
);
}
);
width = 1720;
},
{
layerId = "C0526DEC-9643-4CF7-8966-9E991C4F7D8C";
paths = (
{
closed = 1;
nodes = (
"380 0 LINE",
"1352 1984 LINE",
"1352 2048 LINE",
"164 2048 LINE",
"164 1984 LINE",
"1276 1984 LINE",
"1276 1976 LINE",
"308 0 LINE"
);
}
);
width = 1542;
}
);
unicode = 0037;
},
{
glyphname = eight;
lastChange = "2019-07-06 09:21:21 +0000";
layers = (
{
layerId = "4005C4E1-7659-4C5E-9D78-13D17D50B24B";
paths = (
{
closed = 1;
nodes = (
"1277 -28 OFFCURVE",
"1562 211 OFFCURVE",
"1564 544 CURVE SMOOTH",
"1562 803 OFFCURVE",
"1389 1023 OFFCURVE",
"1168 1064 CURVE",
"1168 1076 LINE",
"1360 1126 OFFCURVE",
"1486 1314 OFFCURVE",
"1488 1532 CURVE SMOOTH",
"1486 1844 OFFCURVE",
"1224 2076 OFFCURVE",
"868 2076 CURVE SMOOTH",
"508 2076 OFFCURVE",
"246 1844 OFFCURVE",
"248 1532 CURVE SMOOTH",
"246 1314 OFFCURVE",
"372 1126 OFFCURVE",
"568 1076 CURVE",
"568 1064 LINE",
"343 1023 OFFCURVE",
"170 803 OFFCURVE",
"172 544 CURVE SMOOTH",
"170 211 OFFCURVE",
"455 -28 OFFCURVE",
"868 -28 CURVE SMOOTH"
);
},
{
closed = 1;
nodes = (
"587 192 OFFCURVE",
"414 336 OFFCURVE",
"416 556 CURVE SMOOTH",
"414 787 OFFCURVE",
"605 952 OFFCURVE",
"868 952 CURVE SMOOTH",
"1127 952 OFFCURVE",
"1318 787 OFFCURVE",
"1320 556 CURVE SMOOTH",
"1318 336 OFFCURVE",
"1145 192 OFFCURVE",
"868 192 CURVE SMOOTH"
);
},
{
closed = 1;
nodes = (
"644 1164 OFFCURVE",
"486 1304 OFFCURVE",
"488 1516 CURVE SMOOTH",
"486 1724 OFFCURVE",
"638 1860 OFFCURVE",
"868 1860 CURVE SMOOTH",
"1094 1860 OFFCURVE",
"1246 1724 OFFCURVE",
"1248 1516 CURVE SMOOTH",
"1246 1304 OFFCURVE",
"1088 1164 OFFCURVE",
"868 1164 CURVE SMOOTH"
);
}
);
width = 1736;
},
{
layerId = "CC8C8B2E-19C7-4699-A4BA-C120989B4E7F";
paths = (
{
closed = 1;
nodes = (
"1277 -28 OFFCURVE",
"1562 211 OFFCURVE",
"1564 544 CURVE SMOOTH",
"1562 803 OFFCURVE",
"1389 1023 OFFCURVE",
"1168 1064 CURVE",
"1168 1076 LINE",
"1360 1126 OFFCURVE",
"1486 1314 OFFCURVE",
"1488 1532 CURVE SMOOTH",
"1486 1844 OFFCURVE",
"1224 2076 OFFCURVE",
"868 2076 CURVE SMOOTH",
"508 2076 OFFCURVE",
"246 1844 OFFCURVE",
"248 1532 CURVE SMOOTH",
"246 1314 OFFCURVE",
"372 1126 OFFCURVE",
"568 1076 CURVE",
"568 1064 LINE",
"343 1023 OFFCURVE",
"170 803 OFFCURVE",
"172 544 CURVE SMOOTH",
"170 211 OFFCURVE",
"455 -28 OFFCURVE",
"868 -28 CURVE SMOOTH"
);
},
{
closed = 1;
nodes = (
"587 192 OFFCURVE",
"414 336 OFFCURVE",
"416 556 CURVE SMOOTH",
"414 787 OFFCURVE",
"605 952 OFFCURVE",
"868 952 CURVE SMOOTH",
"1127 952 OFFCURVE",
"1318 787 OFFCURVE",
"1320 556 CURVE SMOOTH",
"1318 336 OFFCURVE",
"1145 192 OFFCURVE",
"868 192 CURVE SMOOTH"
);
},
{
closed = 1;
nodes = (
"644 1164 OFFCURVE",
"486 1304 OFFCURVE",
"488 1516 CURVE SMOOTH",
"486 1724 OFFCURVE",
"638 1860 OFFCURVE",
"868 1860 CURVE SMOOTH",
"1094 1860 OFFCURVE",
"1246 1724 OFFCURVE",
"1248 1516 CURVE SMOOTH",
"1246 1304 OFFCURVE",
"1088 1164 OFFCURVE",
"868 1164 CURVE SMOOTH"
);
}
);
width = 1736;
},
{
layerId = "4AC57EC0-C61C-4EDF-B407-033FA33D6AD3";
paths = (
{
closed = 1;
nodes = (
"1200 -28 OFFCURVE",
"1484 220 OFFCURVE",
"1484 528 CURVE SMOOTH",
"1484 772 OFFCURVE",
"1304 1001 OFFCURVE",
"1052 1056 CURVE",
"1052 1064 LINE",
"1268 1136 OFFCURVE",
"1416 1333 OFFCURVE",
"1416 1556 CURVE SMOOTH",
"1416 1849 OFFCURVE",
"1158 2076 OFFCURVE",
"848 2076 CURVE SMOOTH",
"534 2076 OFFCURVE",
"280 1847 OFFCURVE",
"280 1556 CURVE SMOOTH",
"280 1331 OFFCURVE",
"432 1137 OFFCURVE",
"644 1064 CURVE",
"644 1056 LINE",
"392 998 OFFCURVE",
"212 772 OFFCURVE",
"212 528 CURVE SMOOTH",
"212 220 OFFCURVE",
"496 -28 OFFCURVE",
"848 -28 CURVE SMOOTH"
);
},
{
closed = 1;
nodes = (
"529 36 OFFCURVE",
"276 260 OFFCURVE",
"276 532 CURVE SMOOTH",
"276 804 OFFCURVE",
"528 1028 OFFCURVE",
"848 1028 CURVE SMOOTH",
"1168 1028 OFFCURVE",
"1420 804 OFFCURVE",
"1420 532 CURVE SMOOTH",
"1420 260 OFFCURVE",
"1168 36 OFFCURVE",
"848 36 CURVE SMOOTH"
);
},
{
closed = 1;
nodes = (
"571 1084 OFFCURVE",
"344 1301 OFFCURVE",
"344 1556 CURVE SMOOTH",
"344 1812 OFFCURVE",
"571 2012 OFFCURVE",
"848 2012 CURVE SMOOTH",
"1125 2012 OFFCURVE",
"1352 1812 OFFCURVE",
"1352 1556 CURVE SMOOTH",
"1352 1301 OFFCURVE",
"1125 1084 OFFCURVE",
"848 1084 CURVE SMOOTH"
);
}
);
width = 1696;
},
{
layerId = "C8AA7CDC-6A04-46C8-87C6-418EC6DD01BE";
paths = (
{
closed = 1;
nodes = (
"1468 -28 OFFCURVE",
"1832 224 OFFCURVE",
"1832 556 CURVE SMOOTH",
"1832 809 OFFCURVE",
"1619 1012 OFFCURVE",
"1356 1052 CURVE",
"1356 1068 LINE",
"1585 1108 OFFCURVE",
"1756 1291 OFFCURVE",
"1756 1520 CURVE SMOOTH",
"1756 1840 OFFCURVE",
"1424 2076 OFFCURVE",
"972 2076 CURVE SMOOTH",
"520 2076 OFFCURVE",
"188 1841 OFFCURVE",
"188 1520 CURVE SMOOTH",
"188 1292 OFFCURVE",
"355 1108 OFFCURVE",
"588 1068 CURVE",
"588 1052 LINE",
"321 1012 OFFCURVE",
"112 809 OFFCURVE",
"112 556 CURVE SMOOTH",
"112 224 OFFCURVE",
"476 -28 OFFCURVE",
"972 -28 CURVE SMOOTH"
);
},
{
closed = 1;
nodes = (
"815 356 OFFCURVE",
"700 462 OFFCURVE",
"700 604 CURVE SMOOTH",
"700 746 OFFCURVE",
"815 848 OFFCURVE",
"972 848 CURVE SMOOTH",
"1129 848 OFFCURVE",
"1244 745 OFFCURVE",
"1244 604 CURVE SMOOTH",
"1244 461 OFFCURVE",
"1129 356 OFFCURVE",
"972 356 CURVE SMOOTH"
);
},
{
closed = 1;
nodes = (
"833 1232 OFFCURVE",
"732 1328 OFFCURVE",
"732 1456 CURVE SMOOTH",
"732 1584 OFFCURVE",
"833 1676 OFFCURVE",
"972 1676 CURVE SMOOTH",
"1111 1676 OFFCURVE",
"1212 1583 OFFCURVE",
"1212 1456 CURVE SMOOTH",
"1212 1327 OFFCURVE",
"1111 1232 OFFCURVE",
"972 1232 CURVE SMOOTH"
);
}
);
width = 1944;
},
{
layerId = "9DB0CBB1-7450-4B3A-8CA7-A9658A1D8B6A";
paths = (
{
closed = 1;
nodes = (
"1468 -28 OFFCURVE",
"1832 224 OFFCURVE",
"1832 556 CURVE SMOOTH",
"1832 809 OFFCURVE",
"1619 1012 OFFCURVE",
"1356 1052 CURVE",
"1356 1068 LINE",
"1585 1108 OFFCURVE",
"1756 1291 OFFCURVE",
"1756 1520 CURVE SMOOTH",
"1756 1840 OFFCURVE",
"1424 2076 OFFCURVE",
"972 2076 CURVE SMOOTH",
"520 2076 OFFCURVE",
"188 1841 OFFCURVE",
"188 1520 CURVE SMOOTH",
"188 1292 OFFCURVE",
"355 1108 OFFCURVE",
"588 1068 CURVE",
"588 1052 LINE",
"321 1012 OFFCURVE",
"112 809 OFFCURVE",
"112 556 CURVE SMOOTH",
"112 224 OFFCURVE",
"476 -28 OFFCURVE",
"972 -28 CURVE SMOOTH"
);
},
{
closed = 1;
nodes = (
"815 356 OFFCURVE",
"700 462 OFFCURVE",
"700 604 CURVE SMOOTH",
"700 746 OFFCURVE",
"815 848 OFFCURVE",
"972 848 CURVE SMOOTH",
"1129 848 OFFCURVE",
"1244 745 OFFCURVE",
"1244 604 CURVE SMOOTH",
"1244 461 OFFCURVE",
"1129 356 OFFCURVE",
"972 356 CURVE SMOOTH"
);
},
{
closed = 1;
nodes = (
"833 1232 OFFCURVE",
"732 1328 OFFCURVE",
"732 1456 CURVE SMOOTH",
"732 1584 OFFCURVE",
"833 1676 OFFCURVE",
"972 1676 CURVE SMOOTH",
"1111 1676 OFFCURVE",
"1212 1583 OFFCURVE",
"1212 1456 CURVE SMOOTH",
"1212 1327 OFFCURVE",
"1111 1232 OFFCURVE",
"972 1232 CURVE SMOOTH"
);
}
);
width = 1944;
},
{
layerId = "C0526DEC-9643-4CF7-8966-9E991C4F7D8C";
paths = (
{
closed = 1;
nodes = (
"1200 -28 OFFCURVE",
"1484 220 OFFCURVE",
"1484 528 CURVE SMOOTH",
"1484 772 OFFCURVE",
"1304 1001 OFFCURVE",
"1052 1056 CURVE",
"1052 1064 LINE",
"1268 1136 OFFCURVE",
"1416 1333 OFFCURVE",
"1416 1556 CURVE SMOOTH",
"1416 1849 OFFCURVE",
"1158 2076 OFFCURVE",
"848 2076 CURVE SMOOTH",
"534 2076 OFFCURVE",
"280 1847 OFFCURVE",
"280 1556 CURVE SMOOTH",
"280 1331 OFFCURVE",
"432 1137 OFFCURVE",
"644 1064 CURVE",
"644 1056 LINE",
"392 998 OFFCURVE",
"212 772 OFFCURVE",
"212 528 CURVE SMOOTH",
"212 220 OFFCURVE",
"496 -28 OFFCURVE",
"848 -28 CURVE SMOOTH"
);
},
{
closed = 1;
nodes = (
"529 36 OFFCURVE",
"276 260 OFFCURVE",
"276 532 CURVE SMOOTH",
"276 804 OFFCURVE",
"528 1028 OFFCURVE",
"848 1028 CURVE SMOOTH",
"1168 1028 OFFCURVE",
"1420 804 OFFCURVE",
"1420 532 CURVE SMOOTH",
"1420 260 OFFCURVE",
"1168 36 OFFCURVE",
"848 36 CURVE SMOOTH"
);
},
{
closed = 1;
nodes = (
"571 1084 OFFCURVE",
"344 1301 OFFCURVE",
"344 1556 CURVE SMOOTH",
"344 1812 OFFCURVE",
"571 2012 OFFCURVE",
"848 2012 CURVE SMOOTH",
"1125 2012 OFFCURVE",
"1352 1812 OFFCURVE",
"1352 1556 CURVE SMOOTH",
"1352 1301 OFFCURVE",
"1125 1084 OFFCURVE",
"848 1084 CURVE SMOOTH"
);
}
);
width = 1696;
}
);
unicode = 0038;
},
{
glyphname = nine;
lastChange = "2019-07-06 09:22:11 +0000";
layers = (
{
layerId = "4005C4E1-7659-4C5E-9D78-13D17D50B24B";
paths = (
{
closed = 1;
nodes = (
"448 2084 OFFCURVE",
"180 1772 OFFCURVE",
"180 1392 CURVE SMOOTH",
"180 996 OFFCURVE",
"472 712 OFFCURVE",
"824 712 CURVE SMOOTH",
"1036 712 OFFCURVE",
"1216 816 OFFCURVE",
"1328 984 CURVE",
"1344 984 LINE",
"1344 480 OFFCURVE",
"1148 192 OFFCURVE",
"832 192 CURVE SMOOTH",
"616 192 OFFCURVE",
"484 328 OFFCURVE",
"440 516 CURVE",
"196 516 LINE",
"244 192 OFFCURVE",
"488 -28 OFFCURVE",
"832 -28 CURVE SMOOTH",
"1292 -28 OFFCURVE",
"1576 380 OFFCURVE",
"1576 1108 CURVE SMOOTH",
"1576 1864 OFFCURVE",
"1200 2076 OFFCURVE",
"864 2080 CURVE SMOOTH"
);
},
{
closed = 1;
nodes = (
"1120 1860 OFFCURVE",
"1308 1640 OFFCURVE",
"1308 1396 CURVE SMOOTH",
"1308 1152 OFFCURVE",
"1108 932 OFFCURVE",
"856 932 CURVE SMOOTH",
"604 932 OFFCURVE",
"420 1136 OFFCURVE",
"420 1392 CURVE SMOOTH",
"420 1652 OFFCURVE",
"612 1860 OFFCURVE",
"864 1860 CURVE SMOOTH"
);
}
);
width = 1756;
},
{
layerId = "CC8C8B2E-19C7-4699-A4BA-C120989B4E7F";
paths = (
{
closed = 1;
nodes = (
"448 2084 OFFCURVE",
"180 1772 OFFCURVE",
"180 1392 CURVE SMOOTH",
"180 996 OFFCURVE",
"472 712 OFFCURVE",
"824 712 CURVE SMOOTH",
"1036 712 OFFCURVE",
"1216 816 OFFCURVE",
"1328 984 CURVE",
"1344 984 LINE",
"1344 480 OFFCURVE",
"1148 192 OFFCURVE",
"832 192 CURVE SMOOTH",
"616 192 OFFCURVE",
"484 328 OFFCURVE",
"440 516 CURVE",
"196 516 LINE",
"244 192 OFFCURVE",
"488 -28 OFFCURVE",
"832 -28 CURVE SMOOTH",
"1292 -28 OFFCURVE",
"1576 380 OFFCURVE",
"1576 1108 CURVE SMOOTH",
"1576 1864 OFFCURVE",
"1200 2076 OFFCURVE",
"864 2080 CURVE SMOOTH"
);
},
{
closed = 1;
nodes = (
"1120 1860 OFFCURVE",
"1308 1640 OFFCURVE",
"1308 1396 CURVE SMOOTH",
"1308 1152 OFFCURVE",
"1108 932 OFFCURVE",
"856 932 CURVE SMOOTH",
"604 932 OFFCURVE",
"420 1136 OFFCURVE",
"420 1392 CURVE SMOOTH",
"420 1652 OFFCURVE",
"612 1860 OFFCURVE",
"864 1860 CURVE SMOOTH"
);
}
);
width = 1756;
},
{
layerId = "4AC57EC0-C61C-4EDF-B407-033FA33D6AD3";
paths = (
{
closed = 1;
nodes = (
"460 2080 OFFCURVE",
"228 1780 OFFCURVE",
"228 1440 CURVE SMOOTH",
"228 1076 OFFCURVE",
"492 800 OFFCURVE",
"816 800 CURVE SMOOTH",
"1052 800 OFFCURVE",
"1276 948 OFFCURVE",
"1340 1152 CURVE",
"1348 1152 LINE",
"1348 432 OFFCURVE",
"1156 36 OFFCURVE",
"784 36 CURVE SMOOTH",
"516 36 OFFCURVE",
"348 236 OFFCURVE",
"328 516 CURVE",
"264 516 LINE",
"284 196 OFFCURVE",
"480 -28 OFFCURVE",
"784 -28 CURVE SMOOTH",
"1280 -28 OFFCURVE",
"1412 572 OFFCURVE",
"1412 1124 CURVE SMOOTH",
"1412 1768 OFFCURVE",
"1152 2080 OFFCURVE",
"804 2080 CURVE SMOOTH"
);
},
{
closed = 1;
nodes = (
"1056 2016 OFFCURVE",
"1248 1828 OFFCURVE",
"1316 1468 CURVE SMOOTH",
"1376 1148 OFFCURVE",
"1132 864 OFFCURVE",
"820 864 CURVE SMOOTH",
"524 864 OFFCURVE",
"292 1116 OFFCURVE",
"292 1440 CURVE SMOOTH",
"292 1756 OFFCURVE",
"508 2016 OFFCURVE",
"804 2016 CURVE SMOOTH"
);
}
);
width = 1640;
},
{
layerId = "C8AA7CDC-6A04-46C8-87C6-418EC6DD01BE";
paths = (
{
closed = 1;
nodes = (
"450 2084 OFFCURVE",
"114 1792 OFFCURVE",
"116 1352 CURVE SMOOTH",
"114 976 OFFCURVE",
"366 704 OFFCURVE",
"736 704 CURVE SMOOTH",
"970 704 OFFCURVE",
"1182 816 OFFCURVE",
"1260 1004 CURVE",
"1272 1004 LINE",
"1270 664 OFFCURVE",
"1166 444 OFFCURVE",
"932 444 CURVE SMOOTH",
"814 444 OFFCURVE",
"714 496 OFFCURVE",
"688 620 CURVE",
"140 620 LINE",
"174 260 OFFCURVE",
"478 -28 OFFCURVE",
"932 -28 CURVE SMOOTH",
"1470 -28 OFFCURVE",
"1822 384 OFFCURVE",
"1824 1056 CURVE SMOOTH",
"1822 1800 OFFCURVE",
"1414 2084 OFFCURVE",
"936 2084 CURVE SMOOTH"
);
},
{
closed = 1;
nodes = (
"1102 1664 OFFCURVE",
"1222 1540 OFFCURVE",
"1224 1372 CURVE SMOOTH",
"1222 1204 OFFCURVE",
"1102 1080 OFFCURVE",
"940 1080 CURVE SMOOTH",
"774 1080 OFFCURVE",
"654 1204 OFFCURVE",
"656 1372 CURVE SMOOTH",
"654 1540 OFFCURVE",
"774 1664 OFFCURVE",
"940 1664 CURVE SMOOTH"
);
}
);
width = 1928;
},
{
layerId = "9DB0CBB1-7450-4B3A-8CA7-A9658A1D8B6A";
paths = (
{
closed = 1;
nodes = (
"450 2084 OFFCURVE",
"114 1792 OFFCURVE",
"116 1352 CURVE SMOOTH",
"114 976 OFFCURVE",
"366 704 OFFCURVE",
"736 704 CURVE SMOOTH",
"970 704 OFFCURVE",
"1182 816 OFFCURVE",
"1260 1004 CURVE",
"1272 1004 LINE",
"1270 664 OFFCURVE",
"1166 444 OFFCURVE",
"932 444 CURVE SMOOTH",
"814 444 OFFCURVE",
"714 496 OFFCURVE",
"688 620 CURVE",
"140 620 LINE",
"174 260 OFFCURVE",
"478 -28 OFFCURVE",
"932 -28 CURVE SMOOTH",
"1470 -28 OFFCURVE",
"1822 384 OFFCURVE",
"1824 1056 CURVE SMOOTH",
"1822 1800 OFFCURVE",
"1414 2084 OFFCURVE",
"936 2084 CURVE SMOOTH"
);
},
{
closed = 1;
nodes = (
"1102 1664 OFFCURVE",
"1222 1540 OFFCURVE",
"1224 1372 CURVE SMOOTH",
"1222 1204 OFFCURVE",
"1102 1080 OFFCURVE",
"940 1080 CURVE SMOOTH",
"774 1080 OFFCURVE",
"654 1204 OFFCURVE",
"656 1372 CURVE SMOOTH",
"654 1540 OFFCURVE",
"774 1664 OFFCURVE",
"940 1664 CURVE SMOOTH"
);
}
);
width = 1928;
},
{
layerId = "C0526DEC-9643-4CF7-8966-9E991C4F7D8C";
paths = (
{
closed = 1;
nodes = (
"460 2080 OFFCURVE",
"228 1780 OFFCURVE",
"228 1440 CURVE SMOOTH",
"228 1076 OFFCURVE",
"492 800 OFFCURVE",
"816 800 CURVE SMOOTH",
"1052 800 OFFCURVE",
"1276 948 OFFCURVE",
"1340 1152 CURVE",
"1348 1152 LINE",
"1348 432 OFFCURVE",
"1156 36 OFFCURVE",
"784 36 CURVE SMOOTH",
"516 36 OFFCURVE",
"348 236 OFFCURVE",
"328 516 CURVE",
"264 516 LINE",
"284 196 OFFCURVE",
"480 -28 OFFCURVE",
"784 -28 CURVE SMOOTH",
"1280 -28 OFFCURVE",
"1412 572 OFFCURVE",
"1412 1124 CURVE SMOOTH",
"1412 1768 OFFCURVE",
"1152 2080 OFFCURVE",
"804 2080 CURVE SMOOTH"
);
},
{
closed = 1;
nodes = (
"1056 2016 OFFCURVE",
"1248 1828 OFFCURVE",
"1316 1468 CURVE SMOOTH",
"1376 1148 OFFCURVE",
"1132 864 OFFCURVE",
"820 864 CURVE SMOOTH",
"524 864 OFFCURVE",
"292 1116 OFFCURVE",
"292 1440 CURVE SMOOTH",
"292 1756 OFFCURVE",
"508 2016 OFFCURVE",
"804 2016 CURVE SMOOTH"
);
}
);
width = 1640;
}
);
unicode = 0039;
},
{
glyphname = period;
lastChange = "2019-07-06 01:00:09 +0000";
layers = (
{
layerId = "C0526DEC-9643-4CF7-8966-9E991C4F7D8C";
paths = (
{
closed = 1;
nodes = (
"396 -12 OFFCURVE",
"428 20 OFFCURVE",
"428 60 CURVE SMOOTH",
"428 100 OFFCURVE",
"396 132 OFFCURVE",
"356 132 CURVE SMOOTH",
"316 132 OFFCURVE",
"284 100 OFFCURVE",
"284 60 CURVE SMOOTH",
"284 20 OFFCURVE",
"316 -12 OFFCURVE",
"356 -12 CURVE SMOOTH"
);
}
);
width = 712;
},
{
layerId = "4AC57EC0-C61C-4EDF-B407-033FA33D6AD3";
paths = (
{
closed = 1;
nodes = (
"396 -12 OFFCURVE",
"428 20 OFFCURVE",
"428 60 CURVE SMOOTH",
"428 100 OFFCURVE",
"396 132 OFFCURVE",
"356 132 CURVE SMOOTH",
"316 132 OFFCURVE",
"284 100 OFFCURVE",
"284 60 CURVE SMOOTH",
"284 20 OFFCURVE",
"316 -12 OFFCURVE",
"356 -12 CURVE SMOOTH"
);
}
);
width = 712;
},
{
layerId = "4005C4E1-7659-4C5E-9D78-13D17D50B24B";
paths = (
{
closed = 1;
nodes = (
"487 -16 OFFCURVE",
"568 65 OFFCURVE",
"568 164 CURVE SMOOTH",
"568 263 OFFCURVE",
"487 344 OFFCURVE",
"388 344 CURVE SMOOTH",
"289 344 OFFCURVE",
"208 263 OFFCURVE",
"208 164 CURVE SMOOTH",
"208 65 OFFCURVE",
"289 -16 OFFCURVE",
"388 -16 CURVE SMOOTH"
);
}
);
width = 776;
},
{
layerId = "CC8C8B2E-19C7-4699-A4BA-C120989B4E7F";
paths = (
{
closed = 1;
nodes = (
"487 -16 OFFCURVE",
"568 65 OFFCURVE",
"568 164 CURVE SMOOTH",
"568 263 OFFCURVE",
"487 344 OFFCURVE",
"388 344 CURVE SMOOTH",
"289 344 OFFCURVE",
"208 263 OFFCURVE",
"208 164 CURVE SMOOTH",
"208 65 OFFCURVE",
"289 -16 OFFCURVE",
"388 -16 CURVE SMOOTH"
);
}
);
width = 776;
},
{
layerId = "C8AA7CDC-6A04-46C8-87C6-418EC6DD01BE";
paths = (
{
closed = 1;
nodes = (
"587 -32 OFFCURVE",
"718 92 OFFCURVE",
"720 248 CURVE SMOOTH",
"718 400 OFFCURVE",
"587 524 OFFCURVE",
"440 524 CURVE SMOOTH",
"285 524 OFFCURVE",
"158 400 OFFCURVE",
"160 248 CURVE SMOOTH",
"158 92 OFFCURVE",
"285 -32 OFFCURVE",
"440 -32 CURVE SMOOTH"
);
}
);
width = 880;
},
{
layerId = "9DB0CBB1-7450-4B3A-8CA7-A9658A1D8B6A";
paths = (
{
closed = 1;
nodes = (
"587 -32 OFFCURVE",
"718 92 OFFCURVE",
"720 248 CURVE SMOOTH",
"718 400 OFFCURVE",
"587 524 OFFCURVE",
"440 524 CURVE SMOOTH",
"285 524 OFFCURVE",
"158 400 OFFCURVE",
"160 248 CURVE SMOOTH",
"158 92 OFFCURVE",
"285 -32 OFFCURVE",
"440 -32 CURVE SMOOTH"
);
}
);
width = 880;
}
);
unicode = 002E;
},
{
glyphname = comma;
lastChange = "2019-07-06 01:11:00 +0000";
layers = (
{
layerId = "C0526DEC-9643-4CF7-8966-9E991C4F7D8C";
paths = (
{
closed = 1;
nodes = (
"388 280 LINE",
"368 168 LINE SMOOTH",
"320 -102 OFFCURVE",
"272 -348 OFFCURVE",
"244 -500 CURVE",
"296 -500 LINE",
"343 -349 OFFCURVE",
"399 -18 OFFCURVE",
"436 176 CURVE SMOOTH",
"456 280 LINE"
);
}
);
width = 724;
},
{
layerId = "4AC57EC0-C61C-4EDF-B407-033FA33D6AD3";
paths = (
{
closed = 1;
nodes = (
"388 280 LINE",
"368 168 LINE SMOOTH",
"320 -102 OFFCURVE",
"272 -348 OFFCURVE",
"244 -500 CURVE",
"296 -500 LINE",
"343 -349 OFFCURVE",
"399 -18 OFFCURVE",
"436 176 CURVE SMOOTH",
"456 280 LINE"
);
}
);
width = 724;
},
{
layerId = "4005C4E1-7659-4C5E-9D78-13D17D50B24B";
paths = (
{
closed = 1;
nodes = (
"312 280 LINE",
"300 168 LINE SMOOTH",
"271 -103 OFFCURVE",
"214 -373 OFFCURVE",
"188 -500 CURVE",
"368 -500 LINE",
"416 -364 OFFCURVE",
"518 -56 OFFCURVE",
"552 172 CURVE SMOOTH",
"568 280 LINE"
);
}
);
width = 788;
},
{
layerId = "CC8C8B2E-19C7-4699-A4BA-C120989B4E7F";
paths = (
{
closed = 1;
nodes = (
"312 280 LINE",
"300 168 LINE SMOOTH",
"271 -103 OFFCURVE",
"214 -373 OFFCURVE",
"188 -500 CURVE",
"368 -500 LINE",
"416 -364 OFFCURVE",
"518 -56 OFFCURVE",
"552 172 CURVE SMOOTH",
"568 280 LINE"
);
}
);
width = 788;
},
{
layerId = "C8AA7CDC-6A04-46C8-87C6-418EC6DD01BE";
paths = (
{
closed = 1;
nodes = (
"260 280 LINE",
"260 168 LINE SMOOTH",
"260 -104 OFFCURVE",
"168 -389 OFFCURVE",
"136 -500 CURVE",
"476 -500 LINE",
"524 -389 OFFCURVE",
"647 -121 OFFCURVE",
"668 168 CURVE SMOOTH",
"676 280 LINE"
);
}
);
width = 896;
},
{
layerId = "9DB0CBB1-7450-4B3A-8CA7-A9658A1D8B6A";
paths = (
{
closed = 1;
nodes = (
"260 280 LINE",
"260 168 LINE SMOOTH",
"260 -104 OFFCURVE",
"168 -389 OFFCURVE",
"136 -500 CURVE",
"476 -500 LINE",
"524 -389 OFFCURVE",
"647 -121 OFFCURVE",
"668 168 CURVE SMOOTH",
"676 280 LINE"
);
}
);
width = 896;
}
);
unicode = 002C;
},
{
glyphname = exclam;
lastChange = "2019-07-06 01:05:53 +0000";
layers = (
{
components = (
{
name = period;
}
);
layerId = "C0526DEC-9643-4CF7-8966-9E991C4F7D8C";
paths = (
{
closed = 1;
nodes = (
"324 2048 LINE",
"324 608 LINE",
"388 608 LINE",
"388 2048 LINE"
);
}
);
width = 736;
},
{
components = (
{
name = period;
transform = "{1, 0, 0, 1, 12, 0}";
}
);
layerId = "4AC57EC0-C61C-4EDF-B407-033FA33D6AD3";
paths = (
{
closed = 1;
nodes = (
"336 2048 LINE",
"336 608 LINE",
"400 608 LINE",
"400 2048 LINE"
);
}
);
width = 736;
},
{
components = (
{
name = period;
transform = "{1, 0, 0, 1, 4, 0}";
}
);
layerId = "4005C4E1-7659-4C5E-9D78-13D17D50B24B";
paths = (
{
closed = 1;
nodes = (
"256 2048 LINE",
"276 576 LINE",
"508 576 LINE",
"528 2048 LINE"
);
}
);
width = 784;
},
{
components = (
{
name = period;
transform = "{1, 0, 0, 1, 4, 0}";
}
);
layerId = "CC8C8B2E-19C7-4699-A4BA-C120989B4E7F";
paths = (
{
closed = 1;
nodes = (
"256 2048 LINE",
"276 576 LINE",
"508 576 LINE",
"528 2048 LINE"
);
}
);
width = 784;
},
{
components = (
{
name = period;
transform = "{1, 0, 0, 1, 60, 0}";
}
);
layerId = "C8AA7CDC-6A04-46C8-87C6-418EC6DD01BE";
paths = (
{
closed = 1;
nodes = (
"220 2048 LINE",
"272 640 LINE",
"728 640 LINE",
"780 2048 LINE"
);
}
);
width = 1000;
},
{
components = (
{
name = period;
transform = "{1, 0, 0, 1, 60, 0}";
}
);
layerId = "9DB0CBB1-7450-4B3A-8CA7-A9658A1D8B6A";
paths = (
{
closed = 1;
nodes = (
"220 2048 LINE",
"272 640 LINE",
"728 640 LINE",
"780 2048 LINE"
);
}
);
width = 1000;
}
);
unicode = 0021;
},
{
glyphname = question;
lastChange = "2019-07-06 01:09:44 +0000";
layers = (
{
components = (
{
name = period;
transform = "{1, 0, 0, 1, 242, 0}";
}
);
guideLines = (
{
angle = 90;
position = "{654, 594}";
}
);
layerId = "C0526DEC-9643-4CF7-8966-9E991C4F7D8C";
paths = (
{
closed = 1;
nodes = (
"648 608 LINE",
"648 748 LINE SMOOTH",
"648 910 OFFCURVE",
"701 994 OFFCURVE",
"892 1132 CURVE SMOOTH",
"1110 1289 OFFCURVE",
"1188 1407 OFFCURVE",
"1188 1576 CURVE SMOOTH",
"1188 1865 OFFCURVE",
"961 2076 OFFCURVE",
"668 2076 CURVE SMOOTH",
"361 2076 OFFCURVE",
"132 1844 OFFCURVE",
"132 1536 CURVE",
"196 1536 LINE",
"196 1808 OFFCURVE",
"396 2012 OFFCURVE",
"668 2012 CURVE SMOOTH",
"926 2012 OFFCURVE",
"1124 1830 OFFCURVE",
"1124 1576 CURVE SMOOTH",
"1124 1431 OFFCURVE",
"1059 1327 OFFCURVE",
"856 1184 CURVE SMOOTH",
"650 1039 OFFCURVE",
"584 932 OFFCURVE",
"584 748 CURVE SMOOTH",
"584 608 LINE"
);
}
);
width = 1348;
},
{
components = (
{
name = period;
transform = "{1, 0, 0, 1, 242, 0}";
}
);
layerId = "4AC57EC0-C61C-4EDF-B407-033FA33D6AD3";
paths = (
{
closed = 1;
nodes = (
"648 608 LINE",
"648 748 LINE SMOOTH",
"648 910 OFFCURVE",
"701 994 OFFCURVE",
"892 1132 CURVE SMOOTH",
"1110 1289 OFFCURVE",
"1188 1407 OFFCURVE",
"1188 1576 CURVE SMOOTH",
"1188 1865 OFFCURVE",
"961 2076 OFFCURVE",
"668 2076 CURVE SMOOTH",
"361 2076 OFFCURVE",
"132 1844 OFFCURVE",
"132 1536 CURVE",
"196 1536 LINE",
"196 1808 OFFCURVE",
"396 2012 OFFCURVE",
"668 2012 CURVE SMOOTH",
"926 2012 OFFCURVE",
"1124 1830 OFFCURVE",
"1124 1576 CURVE SMOOTH",
"1124 1431 OFFCURVE",
"1059 1327 OFFCURVE",
"856 1184 CURVE SMOOTH",
"650 1039 OFFCURVE",
"584 932 OFFCURVE",
"584 748 CURVE SMOOTH",
"584 608 LINE"
);
}
);
width = 1348;
},
{
components = (
{
name = period;
transform = "{1, 0, 0, 1, 266, 0}";
}
);
guideLines = (
{
angle = 90;
position = "{728, 594}";
}
);
layerId = "4005C4E1-7659-4C5E-9D78-13D17D50B24B";
paths = (
{
closed = 1;
nodes = (
"764 576 LINE",
"764 588 LINE SMOOTH",
"768 836 OFFCURVE",
"832 944 OFFCURVE",
"1008 1054 CURVE SMOOTH",
"1184 1161 OFFCURVE",
"1288 1315 OFFCURVE",
"1288 1536 CURVE SMOOTH",
"1288 1848 OFFCURVE",
"1060 2076 OFFCURVE",
"708 2076 CURVE SMOOTH",
"384 2076 OFFCURVE",
"127 1876 OFFCURVE",
"112 1536 CURVE",
"364 1536 LINE",
"379 1772 OFFCURVE",
"544 1868 OFFCURVE",
"708 1868 CURVE SMOOTH",
"896 1868 OFFCURVE",
"1048 1744 OFFCURVE",
"1048 1548 CURVE SMOOTH",
"1048 1389 OFFCURVE",
"957 1275 OFFCURVE",
"840 1204 CURVE SMOOTH",
"644 1085 OFFCURVE",
"527 969 OFFCURVE",
"524 588 CURVE SMOOTH",
"524 576 LINE"
);
}
);
width = 1428;
},
{
components = (
{
name = period;
transform = "{1, 0, 0, 1, 266, 0}";
}
);
layerId = "CC8C8B2E-19C7-4699-A4BA-C120989B4E7F";
paths = (
{
closed = 1;
nodes = (
"764 576 LINE",
"764 588 LINE SMOOTH",
"768 836 OFFCURVE",
"832 944 OFFCURVE",
"1008 1054 CURVE SMOOTH",
"1184 1161 OFFCURVE",
"1288 1315 OFFCURVE",
"1288 1536 CURVE SMOOTH",
"1288 1848 OFFCURVE",
"1060 2076 OFFCURVE",
"708 2076 CURVE SMOOTH",
"384 2076 OFFCURVE",
"127 1876 OFFCURVE",
"112 1536 CURVE",
"364 1536 LINE",
"379 1772 OFFCURVE",
"544 1868 OFFCURVE",
"708 1868 CURVE SMOOTH",
"896 1868 OFFCURVE",
"1048 1744 OFFCURVE",
"1048 1548 CURVE SMOOTH",
"1048 1389 OFFCURVE",
"957 1275 OFFCURVE",
"840 1204 CURVE SMOOTH",
"644 1085 OFFCURVE",
"527 969 OFFCURVE",
"524 588 CURVE SMOOTH",
"524 576 LINE"
);
}
);
width = 1428;
},
{
components = (
{
name = period;
transform = "{1, 0, 0, 1, 358, 0}";
}
);
layerId = "C8AA7CDC-6A04-46C8-87C6-418EC6DD01BE";
paths = (
{
closed = 1;
nodes = (
"1016 640 LINE",
"1016 688 LINE SMOOTH",
"1016 847 OFFCURVE",
"1091 927 OFFCURVE",
"1236 1012 CURVE SMOOTH",
"1431 1126 OFFCURVE",
"1564 1269 OFFCURVE",
"1564 1512 CURVE SMOOTH",
"1564 1888 OFFCURVE",
"1247 2076 OFFCURVE",
"820 2076 CURVE SMOOTH",
"431 2076 OFFCURVE",
"108 1892 OFFCURVE",
"104 1452 CURVE",
"616 1452 LINE",
"616 1567 OFFCURVE",
"708 1648 OFFCURVE",
"816 1648 CURVE SMOOTH",
"916 1648 OFFCURVE",
"996 1580 OFFCURVE",
"996 1480 CURVE SMOOTH",
"996 1368 OFFCURVE",
"899 1299 OFFCURVE",
"772 1216 CURVE SMOOTH",
"623 1119 OFFCURVE",
"544 1017 OFFCURVE",
"544 688 CURVE SMOOTH",
"544 640 LINE"
);
}
);
width = 1688;
},
{
components = (
{
name = period;
transform = "{1, 0, 0, 1, 358, 0}";
}
);
layerId = "9DB0CBB1-7450-4B3A-8CA7-A9658A1D8B6A";
paths = (
{
closed = 1;
nodes = (
"1016 640 LINE",
"1016 688 LINE SMOOTH",
"1016 847 OFFCURVE",
"1091 927 OFFCURVE",
"1236 1012 CURVE SMOOTH",
"1431 1126 OFFCURVE",
"1564 1269 OFFCURVE",
"1564 1512 CURVE SMOOTH",
"1564 1888 OFFCURVE",
"1247 2076 OFFCURVE",
"820 2076 CURVE SMOOTH",
"431 2076 OFFCURVE",
"108 1892 OFFCURVE",
"104 1452 CURVE",
"616 1452 LINE",
"616 1567 OFFCURVE",
"708 1648 OFFCURVE",
"816 1648 CURVE SMOOTH",
"916 1648 OFFCURVE",
"996 1580 OFFCURVE",
"996 1480 CURVE SMOOTH",
"996 1368 OFFCURVE",
"899 1299 OFFCURVE",
"772 1216 CURVE SMOOTH",
"623 1119 OFFCURVE",
"544 1017 OFFCURVE",
"544 688 CURVE SMOOTH",
"544 640 LINE"
);
}
);
width = 1688;
}
);
unicode = 003F;
},
{
glyphname = bullet;
lastChange = "2019-07-06 09:54:13 +0000";
layers = (
{
layerId = "C0526DEC-9643-4CF7-8966-9E991C4F7D8C";
widthMetricsKey = "=space*2";
paths = (
{
closed = 1;
nodes = (
"932 560 OFFCURVE",
"1047 675 OFFCURVE",
"1048 816 CURVE SMOOTH",
"1049 957 OFFCURVE",
"932 1072 OFFCURVE",
"792 1072 CURVE SMOOTH",
"650 1072 OFFCURVE",
"535 957 OFFCURVE",
"536 816 CURVE SMOOTH",
"537 675 OFFCURVE",
"650 560 OFFCURVE",
"792 560 CURVE SMOOTH"
);
}
);
width = 1584;
},
{
layerId = "4AC57EC0-C61C-4EDF-B407-033FA33D6AD3";
widthMetricsKey = "=space*2";
paths = (
{
closed = 1;
nodes = (
"932 560 OFFCURVE",
"1047 675 OFFCURVE",
"1048 816 CURVE SMOOTH",
"1049 957 OFFCURVE",
"932 1072 OFFCURVE",
"792 1072 CURVE SMOOTH",
"650 1072 OFFCURVE",
"535 957 OFFCURVE",
"536 816 CURVE SMOOTH",
"537 675 OFFCURVE",
"650 560 OFFCURVE",
"792 560 CURVE SMOOTH"
);
}
);
width = 1584;
},
{
layerId = "4005C4E1-7659-4C5E-9D78-13D17D50B24B";
widthMetricsKey = "=space*2";
paths = (
{
closed = 1;
nodes = (
"1035 376 OFFCURVE",
"1232 573 OFFCURVE",
"1232 816 CURVE SMOOTH",
"1232 1059 OFFCURVE",
"1035 1256 OFFCURVE",
"792 1256 CURVE SMOOTH",
"549 1256 OFFCURVE",
"352 1059 OFFCURVE",
"352 816 CURVE SMOOTH",
"352 573 OFFCURVE",
"549 376 OFFCURVE",
"792 376 CURVE SMOOTH"
);
}
);
width = 1584;
},
{
layerId = "CC8C8B2E-19C7-4699-A4BA-C120989B4E7F";
widthMetricsKey = "=space*2";
paths = (
{
closed = 1;
nodes = (
"1035 376 OFFCURVE",
"1232 573 OFFCURVE",
"1232 816 CURVE SMOOTH",
"1232 1059 OFFCURVE",
"1035 1256 OFFCURVE",
"792 1256 CURVE SMOOTH",
"549 1256 OFFCURVE",
"352 1059 OFFCURVE",
"352 816 CURVE SMOOTH",
"352 573 OFFCURVE",
"549 376 OFFCURVE",
"792 376 CURVE SMOOTH"
);
}
);
width = 1584;
},
{
layerId = "C8AA7CDC-6A04-46C8-87C6-418EC6DD01BE";
widthMetricsKey = "=space*2";
paths = (
{
closed = 1;
nodes = (
"803 376 OFFCURVE",
"1000 573 OFFCURVE",
"1000 816 CURVE SMOOTH",
"1000 1059 OFFCURVE",
"803 1256 OFFCURVE",
"560 1256 CURVE SMOOTH",
"317 1256 OFFCURVE",
"120 1059 OFFCURVE",
"120 816 CURVE SMOOTH",
"120 573 OFFCURVE",
"317 376 OFFCURVE",
"560 376 CURVE SMOOTH"
);
}
);
width = 1120;
},
{
layerId = "9DB0CBB1-7450-4B3A-8CA7-A9658A1D8B6A";
widthMetricsKey = "=space*2";
paths = (
{
closed = 1;
nodes = (
"803 376 OFFCURVE",
"1000 573 OFFCURVE",
"1000 816 CURVE SMOOTH",
"1000 1059 OFFCURVE",
"803 1256 OFFCURVE",
"560 1256 CURVE SMOOTH",
"317 1256 OFFCURVE",
"120 1059 OFFCURVE",
"120 816 CURVE SMOOTH",
"120 573 OFFCURVE",
"317 376 OFFCURVE",
"560 376 CURVE SMOOTH"
);
}
);
width = 1120;
}
);
unicode = 2022;
},
{
glyphname = asterisk;
lastChange = "2019-07-06 09:26:24 +0000";
layers = (
{
layerId = "C0526DEC-9643-4CF7-8966-9E991C4F7D8C";
paths = (
{
closed = 1;
nodes = (
"736 896 LINE",
"736 1416 LINE",
"1188 1156 LINE",
"1220 1212 LINE",
"768 1472 LINE",
"1220 1732 LINE",
"1188 1788 LINE",
"736 1528 LINE",
"736 2048 LINE",
"672 2048 LINE",
"672 1528 LINE",
"220 1788 LINE",
"188 1732 LINE",
"640 1472 LINE",
"188 1212 LINE",
"220 1156 LINE",
"672 1416 LINE",
"672 896 LINE"
);
}
);
width = 1408;
},
{
layerId = "4AC57EC0-C61C-4EDF-B407-033FA33D6AD3";
paths = (
{
closed = 1;
nodes = (
"736 896 LINE",
"736 1416 LINE",
"1188 1156 LINE",
"1220 1212 LINE",
"768 1472 LINE",
"1220 1732 LINE",
"1188 1788 LINE",
"736 1528 LINE",
"736 2048 LINE",
"672 2048 LINE",
"672 1528 LINE",
"220 1788 LINE",
"188 1732 LINE",
"640 1472 LINE",
"188 1212 LINE",
"220 1156 LINE",
"672 1416 LINE",
"672 896 LINE"
);
}
);
width = 1408;
},
{
layerId = "4005C4E1-7659-4C5E-9D78-13D17D50B24B";
paths = (
{
closed = 1;
nodes = (
"800 896 LINE",
"784 1336 LINE",
"1156 1100 LINE",
"1252 1268 LINE",
"860 1472 LINE",
"1252 1676 LINE",
"1156 1844 LINE",
"784 1608 LINE",
"800 2048 LINE",
"608 2048 LINE",
"624 1608 LINE",
"252 1844 LINE",
"156 1676 LINE",
"548 1472 LINE",
"156 1268 LINE",
"252 1100 LINE",
"624 1336 LINE",
"608 896 LINE"
);
}
);
width = 1408;
},
{
layerId = "CC8C8B2E-19C7-4699-A4BA-C120989B4E7F";
paths = (
{
closed = 1;
nodes = (
"800 896 LINE",
"784 1336 LINE",
"1156 1100 LINE",
"1252 1268 LINE",
"860 1472 LINE",
"1252 1676 LINE",
"1156 1844 LINE",
"784 1608 LINE",
"800 2048 LINE",
"608 2048 LINE",
"624 1608 LINE",
"252 1844 LINE",
"156 1676 LINE",
"548 1472 LINE",
"156 1268 LINE",
"252 1100 LINE",
"624 1336 LINE",
"608 896 LINE"
);
}
);
width = 1408;
},
{
layerId = "C8AA7CDC-6A04-46C8-87C6-418EC6DD01BE";
paths = (
{
closed = 1;
nodes = (
"1016 896 LINE",
"984 1248 LINE",
"1276 1044 LINE",
"1436 1324 LINE",
"1116 1472 LINE",
"1436 1620 LINE",
"1276 1900 LINE",
"984 1696 LINE",
"1016 2048 LINE",
"696 2048 LINE",
"728 1696 LINE",
"436 1900 LINE",
"276 1620 LINE",
"596 1472 LINE",
"276 1324 LINE",
"436 1044 LINE",
"728 1248 LINE",
"696 896 LINE"
);
}
);
width = 1712;
},
{
layerId = "9DB0CBB1-7450-4B3A-8CA7-A9658A1D8B6A";
paths = (
{
closed = 1;
nodes = (
"1016 896 LINE",
"984 1248 LINE",
"1276 1044 LINE",
"1436 1324 LINE",
"1116 1472 LINE",
"1436 1620 LINE",
"1276 1900 LINE",
"984 1696 LINE",
"1016 2048 LINE",
"696 2048 LINE",
"728 1696 LINE",
"436 1900 LINE",
"276 1620 LINE",
"596 1472 LINE",
"276 1324 LINE",
"436 1044 LINE",
"728 1248 LINE",
"696 896 LINE"
);
}
);
width = 1712;
}
);
unicode = 002A;
},
{
glyphname = numbersign;
lastChange = "2019-07-06 09:23:23 +0000";
layers = (
{
layerId = "C0526DEC-9643-4CF7-8966-9E991C4F7D8C";
paths = (
{
closed = 1;
nodes = (
"1116 0 LINE",
"1452 2048 LINE",
"1388 2048 LINE",
"1052 0 LINE"
);
},
{
closed = 1;
nodes = (
"1592 636 LINE",
"1604 700 LINE",
"76 700 LINE",
"64 636 LINE"
);
},
{
closed = 1;
nodes = (
"396 0 LINE",
"732 2048 LINE",
"668 2048 LINE",
"332 0 LINE"
);
},
{
closed = 1;
nodes = (
"1708 1348 LINE",
"1720 1412 LINE",
"192 1412 LINE",
"180 1348 LINE"
);
}
);
width = 1784;
},
{
layerId = "4AC57EC0-C61C-4EDF-B407-033FA33D6AD3";
paths = (
{
closed = 1;
nodes = (
"1116 0 LINE",
"1452 2048 LINE",
"1388 2048 LINE",
"1052 0 LINE"
);
},
{
closed = 1;
nodes = (
"1592 636 LINE",
"1604 700 LINE",
"76 700 LINE",
"64 636 LINE"
);
},
{
closed = 1;
nodes = (
"396 0 LINE",
"732 2048 LINE",
"668 2048 LINE",
"332 0 LINE"
);
},
{
closed = 1;
nodes = (
"1708 1348 LINE",
"1720 1412 LINE",
"192 1412 LINE",
"180 1348 LINE"
);
}
);
width = 1784;
},
{
layerId = "4005C4E1-7659-4C5E-9D78-13D17D50B24B";
paths = (
{
closed = 1;
nodes = (
"1180 0 LINE",
"1516 2048 LINE",
"1316 2048 LINE",
"980 0 LINE"
);
},
{
closed = 1;
nodes = (
"1576 568 LINE",
"1608 768 LINE",
"80 768 LINE",
"48 568 LINE"
);
},
{
closed = 1;
nodes = (
"460 0 LINE",
"796 2048 LINE",
"596 2048 LINE",
"260 0 LINE"
);
},
{
closed = 1;
nodes = (
"1696 1280 LINE",
"1728 1480 LINE",
"200 1480 LINE",
"168 1280 LINE"
);
}
);
width = 1776;
},
{
layerId = "CC8C8B2E-19C7-4699-A4BA-C120989B4E7F";
paths = (
{
closed = 1;
nodes = (
"1180 0 LINE",
"1516 2048 LINE",
"1316 2048 LINE",
"980 0 LINE"
);
},
{
closed = 1;
nodes = (
"1576 568 LINE",
"1608 768 LINE",
"80 768 LINE",
"48 568 LINE"
);
},
{
closed = 1;
nodes = (
"460 0 LINE",
"796 2048 LINE",
"596 2048 LINE",
"260 0 LINE"
);
},
{
closed = 1;
nodes = (
"1696 1280 LINE",
"1728 1480 LINE",
"200 1480 LINE",
"168 1280 LINE"
);
}
);
width = 1776;
},
{
layerId = "C8AA7CDC-6A04-46C8-87C6-418EC6DD01BE";
paths = (
{
closed = 1;
nodes = (
"1324 0 LINE",
"1660 2048 LINE",
"1260 2048 LINE",
"924 0 LINE"
);
},
{
closed = 1;
nodes = (
"1664 468 LINE",
"1732 868 LINE",
"84 868 LINE",
"16 468 LINE"
);
},
{
closed = 1;
nodes = (
"604 0 LINE",
"940 2048 LINE",
"540 2048 LINE",
"204 0 LINE"
);
},
{
closed = 1;
nodes = (
"1780 1180 LINE",
"1848 1580 LINE",
"200 1580 LINE",
"132 1180 LINE"
);
}
);
width = 1864;
},
{
layerId = "9DB0CBB1-7450-4B3A-8CA7-A9658A1D8B6A";
paths = (
{
closed = 1;
nodes = (
"1324 0 LINE",
"1660 2048 LINE",
"1260 2048 LINE",
"924 0 LINE"
);
},
{
closed = 1;
nodes = (
"1664 468 LINE",
"1732 868 LINE",
"84 868 LINE",
"16 468 LINE"
);
},
{
closed = 1;
nodes = (
"604 0 LINE",
"940 2048 LINE",
"540 2048 LINE",
"204 0 LINE"
);
},
{
closed = 1;
nodes = (
"1780 1180 LINE",
"1848 1580 LINE",
"200 1580 LINE",
"132 1180 LINE"
);
}
);
width = 1864;
}
);
unicode = 0023;
},
{
glyphname = slash;
lastChange = "2019-07-06 09:24:13 +0000";
layers = (
{
layerId = "C0526DEC-9643-4CF7-8966-9E991C4F7D8C";
paths = (
{
closed = 1;
nodes = (
"752 2144 LINE",
"92 -308 LINE",
"160 -308 LINE",
"820 2144 LINE"
);
}
);
width = 910;
},
{
layerId = "4AC57EC0-C61C-4EDF-B407-033FA33D6AD3";
paths = (
{
closed = 1;
nodes = (
"752 2144 LINE",
"92 -308 LINE",
"160 -308 LINE",
"820 2144 LINE"
);
}
);
width = 910;
},
{
layerId = "4005C4E1-7659-4C5E-9D78-13D17D50B24B";
paths = (
{
closed = 1;
nodes = (
"724 2144 LINE",
"64 -308 LINE",
"280 -308 LINE",
"940 2144 LINE"
);
}
);
width = 1004;
},
{
layerId = "CC8C8B2E-19C7-4699-A4BA-C120989B4E7F";
paths = (
{
closed = 1;
nodes = (
"724 2144 LINE",
"64 -308 LINE",
"280 -308 LINE",
"940 2144 LINE"
);
}
);
width = 1004;
},
{
layerId = "C8AA7CDC-6A04-46C8-87C6-418EC6DD01BE";
paths = (
{
closed = 1;
nodes = (
"676 2144 LINE",
"16 -308 LINE",
"484 -308 LINE",
"1144 2144 LINE"
);
}
);
width = 1160;
},
{
layerId = "9DB0CBB1-7450-4B3A-8CA7-A9658A1D8B6A";
paths = (
{
closed = 1;
nodes = (
"676 2144 LINE",
"16 -308 LINE",
"484 -308 LINE",
"1144 2144 LINE"
);
}
);
width = 1160;
}
);
unicode = 002F;
},
{
glyphname = backslash;
lastChange = "2019-07-06 09:24:49 +0000";
layers = (
{
layerId = "C0526DEC-9643-4CF7-8966-9E991C4F7D8C";
paths = (
{
closed = 1;
nodes = (
"652 -308 LINE",
"740 -308 LINE",
"164 2048 LINE",
"72 2048 LINE"
);
}
);
width = 816;
},
{
layerId = "4AC57EC0-C61C-4EDF-B407-033FA33D6AD3";
paths = (
{
closed = 1;
nodes = (
"652 -308 LINE",
"740 -308 LINE",
"164 2048 LINE",
"72 2048 LINE"
);
}
);
width = 816;
},
{
layerId = "4005C4E1-7659-4C5E-9D78-13D17D50B24B";
paths = (
{
closed = 1;
nodes = (
"684 -308 LINE",
"916 -308 LINE",
"320 2048 LINE",
"88 2048 LINE"
);
}
);
width = 1008;
},
{
layerId = "CC8C8B2E-19C7-4699-A4BA-C120989B4E7F";
paths = (
{
closed = 1;
nodes = (
"684 -308 LINE",
"916 -308 LINE",
"320 2048 LINE",
"88 2048 LINE"
);
}
);
width = 1008;
},
{
layerId = "C8AA7CDC-6A04-46C8-87C6-418EC6DD01BE";
paths = (
{
closed = 1;
nodes = (
"740 -308 LINE",
"1208 -308 LINE",
"584 2048 LINE",
"116 2048 LINE"
);
}
);
width = 1328;
},
{
layerId = "9DB0CBB1-7450-4B3A-8CA7-A9658A1D8B6A";
paths = (
{
closed = 1;
nodes = (
"740 -308 LINE",
"1208 -308 LINE",
"584 2048 LINE",
"116 2048 LINE"
);
}
);
width = 1328;
}
);
unicode = 005C;
},
{
glyphname = parenleft;
lastChange = "2019-07-06 09:27:39 +0000";
layers = (
{
layerId = "C0526DEC-9643-4CF7-8966-9E991C4F7D8C";
paths = (
{
closed = 1;
nodes = (
"328 436 OFFCURVE",
"432 -4 OFFCURVE",
"624 -416 CURVE",
"692 -416 LINE",
"495 -4 OFFCURVE",
"392 432 OFFCURVE",
"392 864 CURVE SMOOTH",
"392 1293 OFFCURVE",
"493 1730 OFFCURVE",
"692 2144 CURVE",
"624 2144 LINE",
"432 1736 OFFCURVE",
"328 1296 OFFCURVE",
"328 864 CURVE SMOOTH"
);
}
);
width = 888;
},
{
layerId = "4AC57EC0-C61C-4EDF-B407-033FA33D6AD3";
paths = (
{
closed = 1;
nodes = (
"328 436 OFFCURVE",
"432 -4 OFFCURVE",
"624 -416 CURVE",
"692 -416 LINE",
"495 -4 OFFCURVE",
"392 432 OFFCURVE",
"392 864 CURVE SMOOTH",
"392 1293 OFFCURVE",
"493 1730 OFFCURVE",
"692 2144 CURVE",
"624 2144 LINE",
"432 1736 OFFCURVE",
"328 1296 OFFCURVE",
"328 864 CURVE SMOOTH"
);
}
);
width = 888;
},
{
layerId = "4005C4E1-7659-4C5E-9D78-13D17D50B24B";
paths = (
{
closed = 1;
nodes = (
"300 360 OFFCURVE",
"436 -60 OFFCURVE",
"680 -416 CURVE",
"888 -416 LINE",
"696 -152 OFFCURVE",
"544 388 OFFCURVE",
"544 864 CURVE SMOOTH",
"544 1340 OFFCURVE",
"696 1880 OFFCURVE",
"888 2144 CURVE",
"680 2144 LINE",
"436 1788 OFFCURVE",
"300 1368 OFFCURVE",
"300 864 CURVE SMOOTH"
);
}
);
width = 1020;
},
{
layerId = "CC8C8B2E-19C7-4699-A4BA-C120989B4E7F";
paths = (
{
closed = 1;
nodes = (
"300 360 OFFCURVE",
"436 -60 OFFCURVE",
"680 -416 CURVE",
"888 -416 LINE",
"696 -152 OFFCURVE",
"544 388 OFFCURVE",
"544 864 CURVE SMOOTH",
"544 1340 OFFCURVE",
"696 1880 OFFCURVE",
"888 2144 CURVE",
"680 2144 LINE",
"436 1788 OFFCURVE",
"300 1368 OFFCURVE",
"300 864 CURVE SMOOTH"
);
}
);
width = 1020;
},
{
layerId = "C8AA7CDC-6A04-46C8-87C6-418EC6DD01BE";
paths = (
{
closed = 1;
nodes = (
"240 300 OFFCURVE",
"368 -108 OFFCURVE",
"660 -464 CURVE",
"1200 -464 LINE",
"980 -200 OFFCURVE",
"816 320 OFFCURVE",
"816 792 CURVE SMOOTH",
"816 1264 OFFCURVE",
"980 1784 OFFCURVE",
"1200 2048 CURVE",
"660 2048 LINE",
"368 1692 OFFCURVE",
"240 1284 OFFCURVE",
"240 792 CURVE SMOOTH"
);
}
);
width = 1240;
},
{
layerId = "9DB0CBB1-7450-4B3A-8CA7-A9658A1D8B6A";
paths = (
{
closed = 1;
nodes = (
"240 300 OFFCURVE",
"368 -108 OFFCURVE",
"660 -464 CURVE",
"1200 -464 LINE",
"980 -200 OFFCURVE",
"816 320 OFFCURVE",
"816 792 CURVE SMOOTH",
"816 1264 OFFCURVE",
"980 1784 OFFCURVE",
"1200 2048 CURVE",
"660 2048 LINE",
"368 1692 OFFCURVE",
"240 1284 OFFCURVE",
"240 792 CURVE SMOOTH"
);
}
);
width = 1240;
}
);
unicode = 0028;
},
{
glyphname = braceleft;
lastChange = "2019-07-06 09:29:57 +0000";
layers = (
{
layerId = "C0526DEC-9643-4CF7-8966-9E991C4F7D8C";
paths = (
{
closed = 1;
nodes = (
"451 833 OFFCURVE",
"544 928 OFFCURVE",
"544 1192 CURVE SMOOTH",
"544 1716 LINE SMOOTH",
"544 1972 OFFCURVE",
"635 2081 OFFCURVE",
"844 2080 CURVE",
"844 2144 LINE",
"597 2145 OFFCURVE",
"480 2006 OFFCURVE",
"480 1716 CURVE SMOOTH",
"480 1192 LINE SMOOTH",
"480 963 OFFCURVE",
"415 897 OFFCURVE",
"184 896 CURVE",
"184 832 LINE"
);
},
{
closed = 1;
nodes = (
"844 -352 LINE",
"635 -353 OFFCURVE",
"544 -244 OFFCURVE",
"544 12 CURVE SMOOTH",
"544 536 LINE SMOOTH",
"544 799 OFFCURVE",
"451 894 OFFCURVE",
"184 896 CURVE",
"184 832 LINE",
"415 831 OFFCURVE",
"480 765 OFFCURVE",
"480 536 CURVE SMOOTH",
"480 12 LINE SMOOTH",
"480 -278 OFFCURVE",
"597 -417 OFFCURVE",
"844 -416 CURVE"
);
},
{
closed = 1;
nodes = (
"400 832 LINE",
"400 896 LINE",
"184 896 LINE",
"184 832 LINE"
);
}
);
width = 888;
},
{
layerId = "4AC57EC0-C61C-4EDF-B407-033FA33D6AD3";
paths = (
{
closed = 1;
nodes = (
"451 833 OFFCURVE",
"544 928 OFFCURVE",
"544 1192 CURVE SMOOTH",
"544 1716 LINE SMOOTH",
"544 1972 OFFCURVE",
"635 2081 OFFCURVE",
"844 2080 CURVE",
"844 2144 LINE",
"597 2145 OFFCURVE",
"480 2006 OFFCURVE",
"480 1716 CURVE SMOOTH",
"480 1192 LINE SMOOTH",
"480 963 OFFCURVE",
"415 897 OFFCURVE",
"184 896 CURVE",
"184 832 LINE"
);
},
{
closed = 1;
nodes = (
"844 -352 LINE",
"635 -353 OFFCURVE",
"544 -244 OFFCURVE",
"544 12 CURVE SMOOTH",
"544 536 LINE SMOOTH",
"544 799 OFFCURVE",
"451 894 OFFCURVE",
"184 896 CURVE",
"184 832 LINE",
"415 831 OFFCURVE",
"480 765 OFFCURVE",
"480 536 CURVE SMOOTH",
"480 12 LINE SMOOTH",
"480 -278 OFFCURVE",
"597 -417 OFFCURVE",
"844 -416 CURVE"
);
},
{
closed = 1;
nodes = (
"400 832 LINE",
"400 896 LINE",
"184 896 LINE",
"184 832 LINE"
);
}
);
width = 888;
},
{
layerId = "4005C4E1-7659-4C5E-9D78-13D17D50B24B";
paths = (
{
closed = 1;
nodes = (
"536 860 OFFCURVE",
"620 1000 OFFCURVE",
"620 1208 CURVE SMOOTH",
"620 1608 LINE SMOOTH",
"620 1842 OFFCURVE",
"692 1948 OFFCURVE",
"924 1948 CURVE",
"924 2144 LINE",
"532 2144 OFFCURVE",
"404 1976 OFFCURVE",
"404 1608 CURVE SMOOTH",
"404 1288 LINE SMOOTH",
"404 1069 OFFCURVE",
"327 984 OFFCURVE",
"104 984 CURVE",
"104 860 LINE"
);
},
{
closed = 1;
nodes = (
"924 -220 LINE",
"692 -220 OFFCURVE",
"620 -114 OFFCURVE",
"620 120 CURVE SMOOTH",
"620 520 LINE SMOOTH",
"620 728 OFFCURVE",
"536 868 OFFCURVE",
"104 868 CURVE",
"104 744 LINE",
"327 744 OFFCURVE",
"404 659 OFFCURVE",
"404 440 CURVE SMOOTH",
"404 120 LINE SMOOTH",
"404 -248 OFFCURVE",
"532 -416 OFFCURVE",
"924 -416 CURVE"
);
},
{
closed = 1;
nodes = (
"340 744 LINE",
"340 984 LINE",
"104 984 LINE",
"104 744 LINE"
);
}
);
width = 1020;
},
{
layerId = "CC8C8B2E-19C7-4699-A4BA-C120989B4E7F";
paths = (
{
closed = 1;
nodes = (
"536 860 OFFCURVE",
"620 1000 OFFCURVE",
"620 1208 CURVE SMOOTH",
"620 1608 LINE SMOOTH",
"620 1842 OFFCURVE",
"692 1948 OFFCURVE",
"924 1948 CURVE",
"924 2144 LINE",
"532 2144 OFFCURVE",
"404 1976 OFFCURVE",
"404 1608 CURVE SMOOTH",
"404 1288 LINE SMOOTH",
"404 1069 OFFCURVE",
"327 984 OFFCURVE",
"104 984 CURVE",
"104 860 LINE"
);
},
{
closed = 1;
nodes = (
"924 -220 LINE",
"692 -220 OFFCURVE",
"620 -114 OFFCURVE",
"620 120 CURVE SMOOTH",
"620 520 LINE SMOOTH",
"620 728 OFFCURVE",
"536 868 OFFCURVE",
"104 868 CURVE",
"104 744 LINE",
"327 744 OFFCURVE",
"404 659 OFFCURVE",
"404 440 CURVE SMOOTH",
"404 120 LINE SMOOTH",
"404 -248 OFFCURVE",
"532 -416 OFFCURVE",
"924 -416 CURVE"
);
},
{
closed = 1;
nodes = (
"340 744 LINE",
"340 984 LINE",
"104 984 LINE",
"104 744 LINE"
);
}
);
width = 1020;
},
{
layerId = "C8AA7CDC-6A04-46C8-87C6-418EC6DD01BE";
paths = (
{
closed = 1;
nodes = (
"787 780 OFFCURVE",
"924 980 OFFCURVE",
"924 1180 CURVE SMOOTH",
"924 1400 LINE SMOOTH",
"924 1567 OFFCURVE",
"956 1648 OFFCURVE",
"1196 1648 CURVE",
"1196 2048 LINE",
"784 2048 OFFCURVE",
"388 2048 OFFCURVE",
"388 1472 CURVE SMOOTH",
"388 1316 LINE SMOOTH",
"388 1120 OFFCURVE",
"310 1032 OFFCURVE",
"76 1032 CURVE",
"76 780 LINE"
);
},
{
closed = 1;
nodes = (
"1196 -64 LINE",
"956 -64 OFFCURVE",
"924 17 OFFCURVE",
"924 184 CURVE SMOOTH",
"924 404 LINE SMOOTH",
"924 604 OFFCURVE",
"787 804 OFFCURVE",
"76 804 CURVE",
"76 552 LINE",
"310 552 OFFCURVE",
"388 464 OFFCURVE",
"388 268 CURVE SMOOTH",
"388 112 LINE SMOOTH",
"388 -464 OFFCURVE",
"784 -464 OFFCURVE",
"1196 -464 CURVE"
);
},
{
closed = 1;
nodes = (
"516 552 LINE",
"516 1032 LINE",
"76 1032 LINE",
"76 552 LINE"
);
}
);
width = 1240;
},
{
layerId = "9DB0CBB1-7450-4B3A-8CA7-A9658A1D8B6A";
paths = (
{
closed = 1;
nodes = (
"787 780 OFFCURVE",
"924 980 OFFCURVE",
"924 1180 CURVE SMOOTH",
"924 1400 LINE SMOOTH",
"924 1567 OFFCURVE",
"956 1648 OFFCURVE",
"1196 1648 CURVE",
"1196 2048 LINE",
"784 2048 OFFCURVE",
"388 2048 OFFCURVE",
"388 1472 CURVE SMOOTH",
"388 1316 LINE SMOOTH",
"388 1120 OFFCURVE",
"310 1032 OFFCURVE",
"76 1032 CURVE",
"76 780 LINE"
);
},
{
closed = 1;
nodes = (
"1196 -64 LINE",
"956 -64 OFFCURVE",
"924 17 OFFCURVE",
"924 184 CURVE SMOOTH",
"924 404 LINE SMOOTH",
"924 604 OFFCURVE",
"787 804 OFFCURVE",
"76 804 CURVE",
"76 552 LINE",
"310 552 OFFCURVE",
"388 464 OFFCURVE",
"388 268 CURVE SMOOTH",
"388 112 LINE SMOOTH",
"388 -464 OFFCURVE",
"784 -464 OFFCURVE",
"1196 -464 CURVE"
);
},
{
closed = 1;
nodes = (
"516 552 LINE",
"516 1032 LINE",
"76 1032 LINE",
"76 552 LINE"
);
}
);
width = 1240;
}
);
unicode = 007B;
},
{
glyphname = bracketleft;
lastChange = "2019-07-06 09:28:50 +0000";
layers = (
{
layerId = "C0526DEC-9643-4CF7-8966-9E991C4F7D8C";
paths = (
{
closed = 1;
nodes = (
"704 -416 LINE",
"704 -352 LINE",
"416 -352 LINE",
"416 2080 LINE",
"704 2080 LINE",
"704 2144 LINE",
"352 2144 LINE",
"352 -416 LINE"
);
}
);
width = 888;
},
{
layerId = "4AC57EC0-C61C-4EDF-B407-033FA33D6AD3";
paths = (
{
closed = 1;
nodes = (
"704 -416 LINE",
"704 -352 LINE",
"416 -352 LINE",
"416 2080 LINE",
"704 2080 LINE",
"704 2144 LINE",
"352 2144 LINE",
"352 -416 LINE"
);
}
);
width = 888;
},
{
layerId = "4005C4E1-7659-4C5E-9D78-13D17D50B24B";
paths = (
{
closed = 1;
nodes = (
"924 -416 LINE",
"924 -220 LINE",
"556 -220 LINE",
"556 1948 LINE",
"924 1948 LINE",
"924 2144 LINE",
"332 2144 LINE",
"332 -416 LINE"
);
}
);
width = 1020;
},
{
layerId = "CC8C8B2E-19C7-4699-A4BA-C120989B4E7F";
paths = (
{
closed = 1;
nodes = (
"924 -416 LINE",
"924 -220 LINE",
"556 -220 LINE",
"556 1948 LINE",
"924 1948 LINE",
"924 2144 LINE",
"332 2144 LINE",
"332 -416 LINE"
);
}
);
width = 1020;
},
{
layerId = "C8AA7CDC-6A04-46C8-87C6-418EC6DD01BE";
paths = (
{
closed = 1;
nodes = (
"1196 -464 LINE",
"1196 -64 LINE",
"812 -64 LINE",
"812 1648 LINE",
"1196 1648 LINE",
"1196 2048 LINE",
"276 2048 LINE",
"276 -464 LINE"
);
}
);
width = 1240;
},
{
layerId = "9DB0CBB1-7450-4B3A-8CA7-A9658A1D8B6A";
paths = (
{
closed = 1;
nodes = (
"1196 -464 LINE",
"1196 -64 LINE",
"812 -64 LINE",
"812 1648 LINE",
"1196 1648 LINE",
"1196 2048 LINE",
"276 2048 LINE",
"276 -464 LINE"
);
}
);
width = 1240;
}
);
unicode = 005B;
},
{
glyphname = hyphen;
lastChange = "2019-07-06 01:15:37 +0000";
layers = (
{
layerId = "C0526DEC-9643-4CF7-8966-9E991C4F7D8C";
paths = (
{
closed = 1;
nodes = (
"236 910 LINE",
"236 846 LINE",
"1000 846 LINE",
"1000 910 LINE"
);
}
);
width = 1236;
},
{
layerId = "4AC57EC0-C61C-4EDF-B407-033FA33D6AD3";
paths = (
{
closed = 1;
nodes = (
"236 910 LINE",
"236 846 LINE",
"1000 846 LINE",
"1000 910 LINE"
);
}
);
width = 1236;
},
{
layerId = "4005C4E1-7659-4C5E-9D78-13D17D50B24B";
paths = (
{
closed = 1;
nodes = (
"200 988 LINE",
"200 768 LINE",
"1096 768 LINE",
"1096 988 LINE"
);
}
);
width = 1296;
},
{
layerId = "CC8C8B2E-19C7-4699-A4BA-C120989B4E7F";
paths = (
{
closed = 1;
nodes = (
"200 988 LINE",
"200 768 LINE",
"1096 768 LINE",
"1096 988 LINE"
);
}
);
width = 1296;
},
{
layerId = "C8AA7CDC-6A04-46C8-87C6-418EC6DD01BE";
paths = (
{
closed = 1;
nodes = (
"188 1024 LINE",
"188 608 LINE",
"1148 608 LINE",
"1148 1024 LINE"
);
}
);
width = 1336;
},
{
layerId = "9DB0CBB1-7450-4B3A-8CA7-A9658A1D8B6A";
paths = (
{
closed = 1;
nodes = (
"188 1024 LINE",
"188 608 LINE",
"1148 608 LINE",
"1148 1024 LINE"
);
}
);
width = 1336;
}
);
unicode = 002D;
},
{
glyphname = endash;
lastChange = "2019-07-06 01:16:44 +0000";
layers = (
{
layerId = "C0526DEC-9643-4CF7-8966-9E991C4F7D8C";
paths = (
{
closed = 1;
nodes = (
"0 910 LINE",
"0 846 LINE",
"1408 846 LINE",
"1408 910 LINE"
);
}
);
width = 1408;
},
{
layerId = "4AC57EC0-C61C-4EDF-B407-033FA33D6AD3";
paths = (
{
closed = 1;
nodes = (
"0 910 LINE",
"0 846 LINE",
"1408 846 LINE",
"1408 910 LINE"
);
}
);
width = 1408;
},
{
layerId = "4005C4E1-7659-4C5E-9D78-13D17D50B24B";
paths = (
{
closed = 1;
nodes = (
"0 988 LINE",
"0 768 LINE",
"1408 768 LINE",
"1408 988 LINE"
);
}
);
width = 1408;
},
{
layerId = "CC8C8B2E-19C7-4699-A4BA-C120989B4E7F";
paths = (
{
closed = 1;
nodes = (
"0 988 LINE",
"0 768 LINE",
"1408 768 LINE",
"1408 988 LINE"
);
}
);
width = 1408;
},
{
layerId = "C8AA7CDC-6A04-46C8-87C6-418EC6DD01BE";
paths = (
{
closed = 1;
nodes = (
"0 1024 LINE",
"0 608 LINE",
"1408 608 LINE",
"1408 1024 LINE"
);
}
);
width = 1408;
},
{
layerId = "9DB0CBB1-7450-4B3A-8CA7-A9658A1D8B6A";
paths = (
{
closed = 1;
nodes = (
"0 1024 LINE",
"0 608 LINE",
"1408 608 LINE",
"1408 1024 LINE"
);
}
);
width = 1408;
}
);
unicode = 2013;
},
{
glyphname = emdash;
lastChange = "2019-07-06 01:17:44 +0000";
layers = (
{
layerId = "C0526DEC-9643-4CF7-8966-9E991C4F7D8C";
paths = (
{
closed = 1;
nodes = (
"0 910 LINE",
"0 846 LINE",
"2816 846 LINE",
"2816 910 LINE"
);
}
);
width = 2816;
},
{
layerId = "4AC57EC0-C61C-4EDF-B407-033FA33D6AD3";
paths = (
{
closed = 1;
nodes = (
"0 910 LINE",
"0 846 LINE",
"2816 846 LINE",
"2816 910 LINE"
);
}
);
width = 2816;
},
{
layerId = "4005C4E1-7659-4C5E-9D78-13D17D50B24B";
paths = (
{
closed = 1;
nodes = (
"0 988 LINE",
"0 768 LINE",
"2816 768 LINE",
"2816 988 LINE"
);
}
);
width = 2816;
},
{
layerId = "CC8C8B2E-19C7-4699-A4BA-C120989B4E7F";
paths = (
{
closed = 1;
nodes = (
"0 988 LINE",
"0 768 LINE",
"2816 768 LINE",
"2816 988 LINE"
);
}
);
width = 2816;
},
{
layerId = "C8AA7CDC-6A04-46C8-87C6-418EC6DD01BE";
paths = (
{
closed = 1;
nodes = (
"0 1024 LINE",
"0 608 LINE",
"2816 608 LINE",
"2816 1024 LINE"
);
}
);
width = 2816;
},
{
layerId = "9DB0CBB1-7450-4B3A-8CA7-A9658A1D8B6A";
paths = (
{
closed = 1;
nodes = (
"0 1024 LINE",
"0 608 LINE",
"2816 608 LINE",
"2816 1024 LINE"
);
}
);
width = 2816;
}
);
unicode = 2014;
},
{
glyphname = underscore;
lastChange = "2019-07-06 01:18:48 +0000";
layers = (
{
layerId = "C0526DEC-9643-4CF7-8966-9E991C4F7D8C";
paths = (
{
closed = 1;
nodes = (
"-8 0 LINE",
"-8 -116 LINE",
"1208 -116 LINE",
"1208 0 LINE"
);
}
);
width = 1202;
},
{
layerId = "4AC57EC0-C61C-4EDF-B407-033FA33D6AD3";
paths = (
{
closed = 1;
nodes = (
"-8 0 LINE",
"-8 -116 LINE",
"1208 -116 LINE",
"1208 0 LINE"
);
}
);
width = 1202;
},
{
layerId = "4005C4E1-7659-4C5E-9D78-13D17D50B24B";
paths = (
{
closed = 1;
nodes = (
"-4 0 LINE",
"-4 -220 LINE",
"1276 -220 LINE",
"1276 0 LINE"
);
}
);
width = 1272;
},
{
layerId = "CC8C8B2E-19C7-4699-A4BA-C120989B4E7F";
paths = (
{
closed = 1;
nodes = (
"-4 0 LINE",
"-4 -220 LINE",
"1276 -220 LINE",
"1276 0 LINE"
);
}
);
width = 1272;
},
{
layerId = "C8AA7CDC-6A04-46C8-87C6-418EC6DD01BE";
paths = (
{
closed = 1;
nodes = (
"0 0 LINE",
"0 -392 LINE",
"1388 -392 LINE",
"1388 0 LINE"
);
}
);
width = 1388;
},
{
layerId = "9DB0CBB1-7450-4B3A-8CA7-A9658A1D8B6A";
paths = (
{
closed = 1;
nodes = (
"0 0 LINE",
"0 -392 LINE",
"1388 -392 LINE",
"1388 0 LINE"
);
}
);
width = 1388;
}
);
unicode = 005F;
},
{
glyphname = quoteleft;
lastChange = "2019-07-06 09:31:15 +0000";
layers = (
{
layerId = "C0526DEC-9643-4CF7-8966-9E991C4F7D8C";
paths = (
{
closed = 1;
nodes = (
"204 1408 LINE",
"204 1588 LINE SMOOTH",
"204 1747 OFFCURVE",
"295 1935 OFFCURVE",
"428 2044 CURVE",
"392 2092 LINE",
"232 1964 OFFCURVE",
"140 1752 OFFCURVE",
"140 1588 CURVE SMOOTH",
"140 1408 LINE"
);
}
);
width = 484;
},
{
layerId = "4AC57EC0-C61C-4EDF-B407-033FA33D6AD3";
paths = (
{
closed = 1;
nodes = (
"204 1408 LINE",
"204 1588 LINE SMOOTH",
"204 1747 OFFCURVE",
"295 1935 OFFCURVE",
"428 2044 CURVE",
"392 2092 LINE",
"232 1964 OFFCURVE",
"140 1752 OFFCURVE",
"140 1588 CURVE SMOOTH",
"140 1408 LINE"
);
}
);
width = 484;
},
{
layerId = "4005C4E1-7659-4C5E-9D78-13D17D50B24B";
paths = (
{
closed = 1;
nodes = (
"360 1408 LINE",
"360 1592 LINE SMOOTH",
"360 1740 OFFCURVE",
"432 1868 OFFCURVE",
"516 1988 CURVE",
"388 2092 LINE",
"228 1964 OFFCURVE",
"136 1752 OFFCURVE",
"136 1588 CURVE SMOOTH",
"136 1408 LINE"
);
}
);
width = 560;
},
{
layerId = "CC8C8B2E-19C7-4699-A4BA-C120989B4E7F";
paths = (
{
closed = 1;
nodes = (
"360 1408 LINE",
"360 1592 LINE SMOOTH",
"360 1740 OFFCURVE",
"432 1868 OFFCURVE",
"516 1988 CURVE",
"388 2092 LINE",
"228 1964 OFFCURVE",
"136 1752 OFFCURVE",
"136 1588 CURVE SMOOTH",
"136 1408 LINE"
);
}
);
width = 560;
},
{
layerId = "C8AA7CDC-6A04-46C8-87C6-418EC6DD01BE";
paths = (
{
closed = 1;
nodes = (
"552 1408 LINE",
"552 1648 LINE SMOOTH",
"551 1812 OFFCURVE",
"591 1932 OFFCURVE",
"660 2048 CURVE",
"432 2164 LINE",
"307 2060 OFFCURVE",
"167 1844 OFFCURVE",
"168 1648 CURVE SMOOTH",
"168 1408 LINE"
);
}
);
width = 764;
},
{
layerId = "9DB0CBB1-7450-4B3A-8CA7-A9658A1D8B6A";
paths = (
{
closed = 1;
nodes = (
"552 1408 LINE",
"552 1648 LINE SMOOTH",
"551 1812 OFFCURVE",
"591 1932 OFFCURVE",
"660 2048 CURVE",
"432 2164 LINE",
"307 2060 OFFCURVE",
"167 1844 OFFCURVE",
"168 1648 CURVE SMOOTH",
"168 1408 LINE"
);
}
);
width = 764;
}
);
unicode = 2018;
},
{
glyphname = quoteright;
lastChange = "2019-07-06 09:31:51 +0000";
layers = (
{
layerId = "C0526DEC-9643-4CF7-8966-9E991C4F7D8C";
paths = (
{
closed = 1;
nodes = (
"280 2048 LINE",
"280 1868 LINE SMOOTH",
"280 1709 OFFCURVE",
"189 1521 OFFCURVE",
"56 1412 CURVE",
"92 1364 LINE",
"252 1492 OFFCURVE",
"344 1704 OFFCURVE",
"344 1868 CURVE SMOOTH",
"344 2048 LINE"
);
}
);
width = 484;
},
{
layerId = "4AC57EC0-C61C-4EDF-B407-033FA33D6AD3";
paths = (
{
closed = 1;
nodes = (
"280 2048 LINE",
"280 1868 LINE SMOOTH",
"280 1709 OFFCURVE",
"189 1521 OFFCURVE",
"56 1412 CURVE",
"92 1364 LINE",
"252 1492 OFFCURVE",
"344 1704 OFFCURVE",
"344 1868 CURVE SMOOTH",
"344 2048 LINE"
);
}
);
width = 484;
},
{
layerId = "4005C4E1-7659-4C5E-9D78-13D17D50B24B";
paths = (
{
closed = 1;
nodes = (
"200 2048 LINE",
"200 1864 LINE SMOOTH",
"200 1716 OFFCURVE",
"128 1588 OFFCURVE",
"44 1468 CURVE",
"172 1364 LINE",
"332 1492 OFFCURVE",
"424 1704 OFFCURVE",
"424 1868 CURVE SMOOTH",
"424 2048 LINE"
);
}
);
width = 560;
},
{
layerId = "CC8C8B2E-19C7-4699-A4BA-C120989B4E7F";
paths = (
{
closed = 1;
nodes = (
"200 2048 LINE",
"200 1864 LINE SMOOTH",
"200 1716 OFFCURVE",
"128 1588 OFFCURVE",
"44 1468 CURVE",
"172 1364 LINE",
"332 1492 OFFCURVE",
"424 1704 OFFCURVE",
"424 1868 CURVE SMOOTH",
"424 2048 LINE"
);
}
);
width = 560;
},
{
layerId = "C8AA7CDC-6A04-46C8-87C6-418EC6DD01BE";
paths = (
{
closed = 1;
nodes = (
"212 2048 LINE",
"212 1808 LINE SMOOTH",
"212 1624 OFFCURVE",
"160 1504 OFFCURVE",
"104 1408 CURVE",
"332 1292 LINE",
"460 1404 OFFCURVE",
"596 1612 OFFCURVE",
"596 1808 CURVE SMOOTH",
"596 2048 LINE"
);
}
);
width = 764;
},
{
layerId = "9DB0CBB1-7450-4B3A-8CA7-A9658A1D8B6A";
paths = (
{
closed = 1;
nodes = (
"212 2048 LINE",
"212 1808 LINE SMOOTH",
"212 1624 OFFCURVE",
"160 1504 OFFCURVE",
"104 1408 CURVE",
"332 1292 LINE",
"460 1404 OFFCURVE",
"596 1612 OFFCURVE",
"596 1808 CURVE SMOOTH",
"596 2048 LINE"
);
}
);
width = 764;
}
);
unicode = 2019;
},
{
glyphname = quotereversed;
lastChange = "2019-07-06 09:42:56 +0000";
layers = (
{
layerId = "C0526DEC-9643-4CF7-8966-9E991C4F7D8C";
paths = (
{
closed = 1;
nodes = (
"256 1904 LINE SMOOTH",
"253 1759 OFFCURVE",
"316 1550 OFFCURVE",
"500 1408 CURVE",
"568 1504 LINE",
"472 1626 OFFCURVE",
"381 1759 OFFCURVE",
"384 1900 CURVE SMOOTH",
"384 2048 LINE",
"256 2048 LINE"
);
}
);
width = 554;
},
{
layerId = "4AC57EC0-C61C-4EDF-B407-033FA33D6AD3";
paths = (
{
closed = 1;
nodes = (
"256 1904 LINE SMOOTH",
"253 1759 OFFCURVE",
"316 1550 OFFCURVE",
"500 1408 CURVE",
"568 1504 LINE",
"472 1626 OFFCURVE",
"381 1759 OFFCURVE",
"384 1900 CURVE SMOOTH",
"384 2048 LINE",
"256 2048 LINE"
);
}
);
width = 554;
},
{
layerId = "4005C4E1-7659-4C5E-9D78-13D17D50B24B";
paths = (
{
closed = 1;
nodes = (
"196 1868 LINE SMOOTH",
"196 1704 OFFCURVE",
"288 1492 OFFCURVE",
"448 1364 CURVE",
"576 1468 LINE",
"492 1588 OFFCURVE",
"420 1716 OFFCURVE",
"420 1864 CURVE SMOOTH",
"420 2048 LINE",
"196 2048 LINE"
);
}
);
width = 624;
},
{
layerId = "CC8C8B2E-19C7-4699-A4BA-C120989B4E7F";
paths = (
{
closed = 1;
nodes = (
"196 1868 LINE SMOOTH",
"196 1704 OFFCURVE",
"288 1492 OFFCURVE",
"448 1364 CURVE",
"576 1468 LINE",
"492 1588 OFFCURVE",
"420 1716 OFFCURVE",
"420 1864 CURVE SMOOTH",
"420 2048 LINE",
"196 2048 LINE"
);
}
);
width = 624;
},
{
layerId = "C8AA7CDC-6A04-46C8-87C6-418EC6DD01BE";
paths = (
{
closed = 1;
nodes = (
"100 1808 LINE SMOOTH",
"101 1612 OFFCURVE",
"241 1396 OFFCURVE",
"364 1292 CURVE",
"592 1408 LINE",
"525 1524 OFFCURVE",
"485 1644 OFFCURVE",
"484 1808 CURVE SMOOTH",
"484 2048 LINE",
"100 2048 LINE"
);
}
);
width = 740;
},
{
layerId = "9DB0CBB1-7450-4B3A-8CA7-A9658A1D8B6A";
paths = (
{
closed = 1;
nodes = (
"100 1808 LINE SMOOTH",
"101 1612 OFFCURVE",
"241 1396 OFFCURVE",
"364 1292 CURVE",
"592 1408 LINE",
"525 1524 OFFCURVE",
"485 1644 OFFCURVE",
"484 1808 CURVE SMOOTH",
"484 2048 LINE",
"100 2048 LINE"
);
}
);
width = 740;
}
);
unicode = 201B;
},
{
glyphname = guilsinglleft;
lastChange = "2019-07-06 09:39:45 +0000";
layers = (
{
layerId = "C0526DEC-9643-4CF7-8966-9E991C4F7D8C";
paths = (
{
closed = 1;
nodes = (
"296 840 LINE",
"232 840 LINE",
"232 820 LINE",
"636 220 LINE",
"712 220 LINE"
);
},
{
closed = 1;
nodes = (
"636 1448 LINE",
"232 848 LINE",
"232 828 LINE",
"296 828 LINE",
"712 1448 LINE"
);
}
);
width = 968;
},
{
layerId = "4AC57EC0-C61C-4EDF-B407-033FA33D6AD3";
paths = (
{
closed = 1;
nodes = (
"296 840 LINE",
"232 840 LINE",
"232 820 LINE",
"636 220 LINE",
"712 220 LINE"
);
},
{
closed = 1;
nodes = (
"636 1448 LINE",
"232 848 LINE",
"232 828 LINE",
"296 828 LINE",
"712 1448 LINE"
);
}
);
width = 968;
},
{
layerId = "4005C4E1-7659-4C5E-9D78-13D17D50B24B";
paths = (
{
closed = 1;
nodes = (
"416 840 LINE",
"188 840 LINE",
"188 820 LINE",
"592 220 LINE",
"800 220 LINE"
);
},
{
closed = 1;
nodes = (
"592 1448 LINE",
"188 848 LINE",
"188 828 LINE",
"416 828 LINE",
"800 1448 LINE"
);
}
);
width = 1008;
},
{
layerId = "CC8C8B2E-19C7-4699-A4BA-C120989B4E7F";
paths = (
{
closed = 1;
nodes = (
"416 840 LINE",
"188 840 LINE",
"188 820 LINE",
"592 220 LINE",
"800 220 LINE"
);
},
{
closed = 1;
nodes = (
"592 1448 LINE",
"188 848 LINE",
"188 828 LINE",
"416 828 LINE",
"800 1448 LINE"
);
}
);
width = 1008;
},
{
layerId = "C8AA7CDC-6A04-46C8-87C6-418EC6DD01BE";
paths = (
{
closed = 1;
nodes = (
"672 840 LINE",
"148 840 LINE",
"148 820 LINE",
"552 220 LINE",
"1056 220 LINE"
);
},
{
closed = 1;
nodes = (
"552 1448 LINE",
"148 848 LINE",
"148 828 LINE",
"672 828 LINE",
"1056 1448 LINE"
);
}
);
width = 1168;
},
{
layerId = "9DB0CBB1-7450-4B3A-8CA7-A9658A1D8B6A";
paths = (
{
closed = 1;
nodes = (
"672 840 LINE",
"148 840 LINE",
"148 820 LINE",
"552 220 LINE",
"1056 220 LINE"
);
},
{
closed = 1;
nodes = (
"552 1448 LINE",
"148 848 LINE",
"148 828 LINE",
"672 828 LINE",
"1056 1448 LINE"
);
}
);
width = 1168;
}
);
unicode = 2039;
},
{
glyphname = guilsinglright;
lastChange = "2019-07-06 09:40:24 +0000";
layers = (
{
layerId = "C0526DEC-9643-4CF7-8966-9E991C4F7D8C";
paths = (
{
closed = 1;
nodes = (
"332 220 LINE",
"736 820 LINE",
"736 840 LINE",
"672 840 LINE",
"256 220 LINE"
);
},
{
closed = 1;
nodes = (
"672 828 LINE",
"736 828 LINE",
"736 848 LINE",
"332 1448 LINE",
"256 1448 LINE"
);
}
);
width = 968;
},
{
layerId = "4AC57EC0-C61C-4EDF-B407-033FA33D6AD3";
paths = (
{
closed = 1;
nodes = (
"332 220 LINE",
"736 820 LINE",
"736 840 LINE",
"672 840 LINE",
"256 220 LINE"
);
},
{
closed = 1;
nodes = (
"672 828 LINE",
"736 828 LINE",
"736 848 LINE",
"332 1448 LINE",
"256 1448 LINE"
);
}
);
width = 968;
},
{
layerId = "4005C4E1-7659-4C5E-9D78-13D17D50B24B";
paths = (
{
closed = 1;
nodes = (
"396 220 LINE",
"800 820 LINE",
"800 840 LINE",
"572 840 LINE",
"188 220 LINE"
);
},
{
closed = 1;
nodes = (
"572 828 LINE",
"800 828 LINE",
"800 848 LINE",
"396 1448 LINE",
"188 1448 LINE"
);
}
);
width = 1008;
},
{
layerId = "CC8C8B2E-19C7-4699-A4BA-C120989B4E7F";
paths = (
{
closed = 1;
nodes = (
"396 220 LINE",
"800 820 LINE",
"800 840 LINE",
"572 840 LINE",
"188 220 LINE"
);
},
{
closed = 1;
nodes = (
"572 828 LINE",
"800 828 LINE",
"800 848 LINE",
"396 1448 LINE",
"188 1448 LINE"
);
}
);
width = 1008;
},
{
layerId = "C8AA7CDC-6A04-46C8-87C6-418EC6DD01BE";
paths = (
{
closed = 1;
nodes = (
"616 220 LINE",
"1020 820 LINE",
"1020 840 LINE",
"496 840 LINE",
"112 220 LINE"
);
},
{
closed = 1;
nodes = (
"496 828 LINE",
"1020 828 LINE",
"1020 848 LINE",
"616 1448 LINE",
"112 1448 LINE"
);
}
);
width = 1168;
},
{
layerId = "9DB0CBB1-7450-4B3A-8CA7-A9658A1D8B6A";
paths = (
{
closed = 1;
nodes = (
"616 220 LINE",
"1020 820 LINE",
"1020 840 LINE",
"496 840 LINE",
"112 220 LINE"
);
},
{
closed = 1;
nodes = (
"496 828 LINE",
"1020 828 LINE",
"1020 848 LINE",
"616 1448 LINE",
"112 1448 LINE"
);
}
);
width = 1168;
}
);
unicode = 203A;
},
{
glyphname = quotesingle;
lastChange = "2019-07-06 09:32:31 +0000";
layers = (
{
layerId = "C0526DEC-9643-4CF7-8966-9E991C4F7D8C";
paths = (
{
closed = 1;
nodes = (
"256 2048 LINE",
"256 1408 LINE",
"320 1408 LINE",
"320 2048 LINE"
);
}
);
width = 576;
},
{
layerId = "4AC57EC0-C61C-4EDF-B407-033FA33D6AD3";
paths = (
{
closed = 1;
nodes = (
"256 2048 LINE",
"256 1408 LINE",
"320 1408 LINE",
"320 2048 LINE"
);
}
);
width = 576;
},
{
layerId = "4005C4E1-7659-4C5E-9D78-13D17D50B24B";
paths = (
{
closed = 1;
nodes = (
"200 2048 LINE",
"200 1344 LINE",
"420 1344 LINE",
"420 2048 LINE"
);
}
);
width = 624;
},
{
layerId = "CC8C8B2E-19C7-4699-A4BA-C120989B4E7F";
paths = (
{
closed = 1;
nodes = (
"200 2048 LINE",
"200 1344 LINE",
"420 1344 LINE",
"420 2048 LINE"
);
}
);
width = 624;
},
{
layerId = "C8AA7CDC-6A04-46C8-87C6-418EC6DD01BE";
paths = (
{
closed = 1;
nodes = (
"100 2048 LINE",
"100 1220 LINE",
"460 1220 LINE",
"460 2048 LINE"
);
}
);
width = 564;
},
{
layerId = "9DB0CBB1-7450-4B3A-8CA7-A9658A1D8B6A";
paths = (
{
closed = 1;
nodes = (
"100 2048 LINE",
"100 1220 LINE",
"460 1220 LINE",
"460 2048 LINE"
);
}
);
width = 564;
}
);
unicode = 0027;
},
{
glyphname = plus;
lastChange = "2019-07-06 09:55:38 +0000";
layers = (
{
layerId = "C0526DEC-9643-4CF7-8966-9E991C4F7D8C";
paths = (
{
closed = 1;
nodes = (
"928 220 LINE",
"928 1380 LINE",
"864 1380 LINE",
"864 220 LINE"
);
},
{
closed = 1;
nodes = (
"1476 768 LINE",
"1476 832 LINE",
"316 832 LINE",
"316 768 LINE"
);
}
);
width = 1792;
},
{
layerId = "4AC57EC0-C61C-4EDF-B407-033FA33D6AD3";
paths = (
{
closed = 1;
nodes = (
"928 220 LINE",
"928 1380 LINE",
"864 1380 LINE",
"864 220 LINE"
);
},
{
closed = 1;
nodes = (
"1476 768 LINE",
"1476 832 LINE",
"316 832 LINE",
"316 768 LINE"
);
}
);
width = 1792;
},
{
layerId = "4005C4E1-7659-4C5E-9D78-13D17D50B24B";
paths = (
{
closed = 1;
nodes = (
"1040 140 LINE",
"1040 1460 LINE",
"816 1460 LINE",
"816 140 LINE"
);
},
{
closed = 1;
nodes = (
"1588 688 LINE",
"1588 912 LINE",
"268 912 LINE",
"268 688 LINE"
);
}
);
width = 1856;
},
{
layerId = "CC8C8B2E-19C7-4699-A4BA-C120989B4E7F";
paths = (
{
closed = 1;
nodes = (
"1040 140 LINE",
"1040 1460 LINE",
"816 1460 LINE",
"816 140 LINE"
);
},
{
closed = 1;
nodes = (
"1588 688 LINE",
"1588 912 LINE",
"268 912 LINE",
"268 688 LINE"
);
}
);
width = 1856;
},
{
layerId = "C8AA7CDC-6A04-46C8-87C6-418EC6DD01BE";
paths = (
{
closed = 1;
nodes = (
"1200 92 LINE",
"1200 1572 LINE",
"752 1572 LINE",
"752 92 LINE"
);
},
{
closed = 1;
nodes = (
"1716 608 LINE",
"1716 1056 LINE",
"236 1056 LINE",
"236 608 LINE"
);
}
);
width = 1952;
},
{
layerId = "9DB0CBB1-7450-4B3A-8CA7-A9658A1D8B6A";
paths = (
{
closed = 1;
nodes = (
"1200 92 LINE",
"1200 1572 LINE",
"752 1572 LINE",
"752 92 LINE"
);
},
{
closed = 1;
nodes = (
"1716 608 LINE",
"1716 1056 LINE",
"236 1056 LINE",
"236 608 LINE"
);
}
);
width = 1952;
}
);
unicode = 002B;
},
{
glyphname = minus;
lastChange = "2019-07-06 09:57:45 +0000";
layers = (
{
layerId = "C0526DEC-9643-4CF7-8966-9E991C4F7D8C";
paths = (
{
closed = 1;
nodes = (
"316 832 LINE",
"316 768 LINE",
"1476 768 LINE",
"1476 832 LINE"
);
}
);
width = 1792;
},
{
layerId = "4AC57EC0-C61C-4EDF-B407-033FA33D6AD3";
paths = (
{
closed = 1;
nodes = (
"316 832 LINE",
"316 768 LINE",
"1476 768 LINE",
"1476 832 LINE"
);
}
);
width = 1792;
},
{
layerId = "4005C4E1-7659-4C5E-9D78-13D17D50B24B";
paths = (
{
closed = 1;
nodes = (
"288 912 LINE",
"288 688 LINE",
"1568 688 LINE",
"1568 912 LINE"
);
}
);
width = 1856;
},
{
layerId = "CC8C8B2E-19C7-4699-A4BA-C120989B4E7F";
paths = (
{
closed = 1;
nodes = (
"288 912 LINE",
"288 688 LINE",
"1568 688 LINE",
"1568 912 LINE"
);
}
);
width = 1856;
},
{
layerId = "C8AA7CDC-6A04-46C8-87C6-418EC6DD01BE";
paths = (
{
closed = 1;
nodes = (
"236 1056 LINE",
"236 608 LINE",
"1716 608 LINE",
"1716 1056 LINE"
);
}
);
width = 1952;
},
{
layerId = "9DB0CBB1-7450-4B3A-8CA7-A9658A1D8B6A";
paths = (
{
closed = 1;
nodes = (
"236 1056 LINE",
"236 608 LINE",
"1716 608 LINE",
"1716 1056 LINE"
);
}
);
width = 1952;
}
);
widthMetricsKey = plus;
unicode = 2212;
},
{
glyphname = multiply;
lastChange = "2019-07-06 09:58:56 +0000";
layers = (
{
layerId = "C0526DEC-9643-4CF7-8966-9E991C4F7D8C";
paths = (
{
closed = 1;
nodes = (
"1484 260 LINE",
"356 1388 LINE",
"310 1342 LINE",
"1438 214 LINE"
);
},
{
closed = 1;
nodes = (
"1484 1342 LINE",
"1438 1388 LINE",
"310 260 LINE",
"356 214 LINE"
);
}
);
width = 1792;
},
{
layerId = "4AC57EC0-C61C-4EDF-B407-033FA33D6AD3";
paths = (
{
closed = 1;
nodes = (
"1484 260 LINE",
"356 1388 LINE",
"310 1342 LINE",
"1438 214 LINE"
);
},
{
closed = 1;
nodes = (
"1484 1342 LINE",
"1438 1388 LINE",
"310 260 LINE",
"356 214 LINE"
);
}
);
width = 1792;
},
{
layerId = "4005C4E1-7659-4C5E-9D78-13D17D50B24B";
paths = (
{
closed = 1;
nodes = (
"1568 312 LINE",
"440 1440 LINE",
"288 1288 LINE",
"1416 160 LINE"
);
},
{
closed = 1;
nodes = (
"1568 1288 LINE",
"1416 1440 LINE",
"288 312 LINE",
"440 160 LINE"
);
}
);
width = 1856;
},
{
layerId = "CC8C8B2E-19C7-4699-A4BA-C120989B4E7F";
paths = (
{
closed = 1;
nodes = (
"1568 312 LINE",
"440 1440 LINE",
"288 1288 LINE",
"1416 160 LINE"
);
},
{
closed = 1;
nodes = (
"1568 1288 LINE",
"1416 1440 LINE",
"288 312 LINE",
"440 160 LINE"
);
}
);
width = 1856;
},
{
layerId = "C8AA7CDC-6A04-46C8-87C6-418EC6DD01BE";
paths = (
{
closed = 1;
nodes = (
"1764 380 LINE",
"524 1620 LINE",
"188 1280 LINE",
"1428 44 LINE"
);
},
{
closed = 1;
nodes = (
"1764 1280 LINE",
"1428 1620 LINE",
"188 380 LINE",
"524 44 LINE"
);
}
);
width = 1952;
},
{
layerId = "9DB0CBB1-7450-4B3A-8CA7-A9658A1D8B6A";
paths = (
{
closed = 1;
nodes = (
"1764 380 LINE",
"524 1620 LINE",
"188 1280 LINE",
"1428 44 LINE"
);
},
{
closed = 1;
nodes = (
"1764 1280 LINE",
"1428 1620 LINE",
"188 380 LINE",
"524 44 LINE"
);
}
);
width = 1952;
}
);
widthMetricsKey = plus;
unicode = 00D7;
},
{
glyphname = divide;
lastChange = "2019-07-06 09:59:50 +0000";
layers = (
{
layerId = "C0526DEC-9643-4CF7-8966-9E991C4F7D8C";
paths = (
{
closed = 1;
nodes = (
"316 832 LINE",
"316 768 LINE",
"1476 768 LINE",
"1476 832 LINE"
);
},
{
closed = 1;
nodes = (
"936 272 OFFCURVE",
"968 304 OFFCURVE",
"968 344 CURVE SMOOTH",
"968 384 OFFCURVE",
"936 416 OFFCURVE",
"896 416 CURVE SMOOTH",
"856 416 OFFCURVE",
"824 384 OFFCURVE",
"824 344 CURVE SMOOTH",
"824 304 OFFCURVE",
"856 272 OFFCURVE",
"896 272 CURVE SMOOTH"
);
},
{
closed = 1;
nodes = (
"936 1184 OFFCURVE",
"968 1216 OFFCURVE",
"968 1256 CURVE SMOOTH",
"968 1296 OFFCURVE",
"936 1328 OFFCURVE",
"896 1328 CURVE SMOOTH",
"856 1328 OFFCURVE",
"824 1296 OFFCURVE",
"824 1256 CURVE SMOOTH",
"824 1216 OFFCURVE",
"856 1184 OFFCURVE",
"896 1184 CURVE SMOOTH"
);
}
);
width = 1792;
},
{
layerId = "4AC57EC0-C61C-4EDF-B407-033FA33D6AD3";
paths = (
{
closed = 1;
nodes = (
"316 832 LINE",
"316 768 LINE",
"1476 768 LINE",
"1476 832 LINE"
);
},
{
closed = 1;
nodes = (
"936 272 OFFCURVE",
"968 304 OFFCURVE",
"968 344 CURVE SMOOTH",
"968 384 OFFCURVE",
"936 416 OFFCURVE",
"896 416 CURVE SMOOTH",
"856 416 OFFCURVE",
"824 384 OFFCURVE",
"824 344 CURVE SMOOTH",
"824 304 OFFCURVE",
"856 272 OFFCURVE",
"896 272 CURVE SMOOTH"
);
},
{
closed = 1;
nodes = (
"936 1184 OFFCURVE",
"968 1216 OFFCURVE",
"968 1256 CURVE SMOOTH",
"968 1296 OFFCURVE",
"936 1328 OFFCURVE",
"896 1328 CURVE SMOOTH",
"856 1328 OFFCURVE",
"824 1296 OFFCURVE",
"824 1256 CURVE SMOOTH",
"824 1216 OFFCURVE",
"856 1184 OFFCURVE",
"896 1184 CURVE SMOOTH"
);
}
);
width = 1792;
},
{
layerId = "4005C4E1-7659-4C5E-9D78-13D17D50B24B";
paths = (
{
closed = 1;
nodes = (
"288 912 LINE",
"288 688 LINE",
"1568 688 LINE",
"1568 912 LINE"
);
},
{
closed = 1;
nodes = (
"1024 104 OFFCURVE",
"1104 184 OFFCURVE",
"1104 284 CURVE SMOOTH",
"1104 380 OFFCURVE",
"1024 460 OFFCURVE",
"928 460 CURVE SMOOTH",
"828 460 OFFCURVE",
"748 380 OFFCURVE",
"748 284 CURVE SMOOTH",
"748 184 OFFCURVE",
"828 104 OFFCURVE",
"928 104 CURVE SMOOTH"
);
},
{
closed = 1;
nodes = (
"1024 1140 OFFCURVE",
"1104 1220 OFFCURVE",
"1104 1320 CURVE SMOOTH",
"1104 1416 OFFCURVE",
"1024 1496 OFFCURVE",
"928 1496 CURVE SMOOTH",
"828 1496 OFFCURVE",
"748 1416 OFFCURVE",
"748 1320 CURVE SMOOTH",
"748 1220 OFFCURVE",
"828 1140 OFFCURVE",
"928 1140 CURVE SMOOTH"
);
}
);
width = 1856;
},
{
layerId = "CC8C8B2E-19C7-4699-A4BA-C120989B4E7F";
paths = (
{
closed = 1;
nodes = (
"288 912 LINE",
"288 688 LINE",
"1568 688 LINE",
"1568 912 LINE"
);
},
{
closed = 1;
nodes = (
"1024 104 OFFCURVE",
"1104 184 OFFCURVE",
"1104 284 CURVE SMOOTH",
"1104 380 OFFCURVE",
"1024 460 OFFCURVE",
"928 460 CURVE SMOOTH",
"828 460 OFFCURVE",
"748 380 OFFCURVE",
"748 284 CURVE SMOOTH",
"748 184 OFFCURVE",
"828 104 OFFCURVE",
"928 104 CURVE SMOOTH"
);
},
{
closed = 1;
nodes = (
"1024 1140 OFFCURVE",
"1104 1220 OFFCURVE",
"1104 1320 CURVE SMOOTH",
"1104 1416 OFFCURVE",
"1024 1496 OFFCURVE",
"928 1496 CURVE SMOOTH",
"828 1496 OFFCURVE",
"748 1416 OFFCURVE",
"748 1320 CURVE SMOOTH",
"748 1220 OFFCURVE",
"828 1140 OFFCURVE",
"928 1140 CURVE SMOOTH"
);
}
);
width = 1856;
},
{
layerId = "C8AA7CDC-6A04-46C8-87C6-418EC6DD01BE";
paths = (
{
closed = 1;
nodes = (
"236 1040 LINE",
"236 624 LINE",
"1716 624 LINE",
"1716 1040 LINE"
);
},
{
closed = 1;
nodes = (
"1130 -32 OFFCURVE",
"1256 94 OFFCURVE",
"1256 252 CURVE SMOOTH",
"1256 406 OFFCURVE",
"1130 532 OFFCURVE",
"976 532 CURVE SMOOTH",
"818 532 OFFCURVE",
"692 406 OFFCURVE",
"692 252 CURVE SMOOTH",
"692 94 OFFCURVE",
"818 -32 OFFCURVE",
"976 -32 CURVE SMOOTH"
);
},
{
closed = 1;
nodes = (
"1132 1132 OFFCURVE",
"1256 1260 OFFCURVE",
"1256 1416 CURVE SMOOTH",
"1256 1572 OFFCURVE",
"1132 1696 OFFCURVE",
"976 1696 CURVE SMOOTH",
"820 1696 OFFCURVE",
"692 1572 OFFCURVE",
"692 1416 CURVE SMOOTH",
"692 1260 OFFCURVE",
"820 1132 OFFCURVE",
"976 1132 CURVE SMOOTH"
);
}
);
width = 1952;
},
{
layerId = "9DB0CBB1-7450-4B3A-8CA7-A9658A1D8B6A";
paths = (
{
closed = 1;
nodes = (
"236 1040 LINE",
"236 624 LINE",
"1716 624 LINE",
"1716 1040 LINE"
);
},
{
closed = 1;
nodes = (
"1130 -32 OFFCURVE",
"1256 94 OFFCURVE",
"1256 252 CURVE SMOOTH",
"1256 406 OFFCURVE",
"1130 532 OFFCURVE",
"976 532 CURVE SMOOTH",
"818 532 OFFCURVE",
"692 406 OFFCURVE",
"692 252 CURVE SMOOTH",
"692 94 OFFCURVE",
"818 -32 OFFCURVE",
"976 -32 CURVE SMOOTH"
);
},
{
closed = 1;
nodes = (
"1132 1132 OFFCURVE",
"1256 1260 OFFCURVE",
"1256 1416 CURVE SMOOTH",
"1256 1572 OFFCURVE",
"1132 1696 OFFCURVE",
"976 1696 CURVE SMOOTH",
"820 1696 OFFCURVE",
"692 1572 OFFCURVE",
"692 1416 CURVE SMOOTH",
"692 1260 OFFCURVE",
"820 1132 OFFCURVE",
"976 1132 CURVE SMOOTH"
);
}
);
width = 1952;
}
);
widthMetricsKey = plus;
unicode = 00F7;
},
{
glyphname = equal;
lastChange = "2019-07-06 09:57:09 +0000";
layers = (
{
layerId = "C0526DEC-9643-4CF7-8966-9E991C4F7D8C";
paths = (
{
closed = 1;
nodes = (
"1372 1036 LINE",
"1372 1100 LINE",
"420 1100 LINE",
"420 1036 LINE"
);
},
{
closed = 1;
nodes = (
"1372 500 LINE",
"1372 564 LINE",
"420 564 LINE",
"420 500 LINE"
);
}
);
width = 1792;
},
{
layerId = "4AC57EC0-C61C-4EDF-B407-033FA33D6AD3";
paths = (
{
closed = 1;
nodes = (
"1372 1036 LINE",
"1372 1100 LINE",
"420 1100 LINE",
"420 1036 LINE"
);
},
{
closed = 1;
nodes = (
"1372 500 LINE",
"1372 564 LINE",
"420 564 LINE",
"420 500 LINE"
);
}
);
width = 1792;
},
{
layerId = "4005C4E1-7659-4C5E-9D78-13D17D50B24B";
paths = (
{
closed = 1;
nodes = (
"1544 988 LINE",
"1544 1204 LINE",
"312 1204 LINE",
"312 988 LINE"
);
},
{
closed = 1;
nodes = (
"1544 396 LINE",
"1544 612 LINE",
"312 612 LINE",
"312 396 LINE"
);
}
);
width = 1856;
},
{
layerId = "CC8C8B2E-19C7-4699-A4BA-C120989B4E7F";
paths = (
{
closed = 1;
nodes = (
"1544 988 LINE",
"1544 1204 LINE",
"312 1204 LINE",
"312 988 LINE"
);
},
{
closed = 1;
nodes = (
"1544 396 LINE",
"1544 612 LINE",
"312 612 LINE",
"312 396 LINE"
);
}
);
width = 1856;
},
{
layerId = "C8AA7CDC-6A04-46C8-87C6-418EC6DD01BE";
paths = (
{
closed = 1;
nodes = (
"1716 964 LINE",
"1716 1412 LINE",
"236 1412 LINE",
"236 964 LINE"
);
},
{
closed = 1;
nodes = (
"1716 252 LINE",
"1716 700 LINE",
"236 700 LINE",
"236 252 LINE"
);
}
);
width = 1952;
},
{
layerId = "9DB0CBB1-7450-4B3A-8CA7-A9658A1D8B6A";
paths = (
{
closed = 1;
nodes = (
"1716 964 LINE",
"1716 1412 LINE",
"236 1412 LINE",
"236 964 LINE"
);
},
{
closed = 1;
nodes = (
"1716 252 LINE",
"1716 700 LINE",
"236 700 LINE",
"236 252 LINE"
);
}
);
width = 1952;
}
);
widthMetricsKey = plus;
unicode = 003D;
},
{
glyphname = greater;
lastChange = "2019-07-06 09:56:35 +0000";
layers = (
{
layerId = "C0526DEC-9643-4CF7-8966-9E991C4F7D8C";
paths = (
{
closed = 1;
nodes = (
"1444 832 LINE",
"348 1544 LINE",
"348 1468 LINE",
"1384 796 LINE",
"1372 816 LINE",
"1372 784 LINE",
"1384 804 LINE",
"348 132 LINE",
"348 56 LINE",
"1444 768 LINE"
);
}
);
width = 1792;
},
{
layerId = "4AC57EC0-C61C-4EDF-B407-033FA33D6AD3";
paths = (
{
closed = 1;
nodes = (
"1444 832 LINE",
"348 1544 LINE",
"348 1468 LINE",
"1384 796 LINE",
"1372 816 LINE",
"1372 784 LINE",
"1384 804 LINE",
"348 132 LINE",
"348 56 LINE",
"1444 768 LINE"
);
}
);
width = 1792;
},
{
layerId = "4005C4E1-7659-4C5E-9D78-13D17D50B24B";
paths = (
{
closed = 1;
nodes = (
"1572 880 LINE",
"284 1536 LINE",
"284 1280 LINE",
"1272 804 LINE",
"1264 820 LINE",
"1264 780 LINE",
"1272 796 LINE",
"284 320 LINE",
"284 64 LINE",
"1572 720 LINE"
);
}
);
width = 1856;
},
{
layerId = "CC8C8B2E-19C7-4699-A4BA-C120989B4E7F";
paths = (
{
closed = 1;
nodes = (
"1572 880 LINE",
"284 1536 LINE",
"284 1280 LINE",
"1272 804 LINE",
"1264 820 LINE",
"1264 780 LINE",
"1272 796 LINE",
"284 320 LINE",
"284 64 LINE",
"1572 720 LINE"
);
}
);
width = 1856;
},
{
layerId = "C8AA7CDC-6A04-46C8-87C6-418EC6DD01BE";
paths = (
{
closed = 1;
nodes = (
"1720 1072 LINE",
"232 1668 LINE",
"232 1164 LINE",
"1180 836 LINE",
"1164 860 LINE",
"1164 804 LINE",
"1180 828 LINE",
"232 500 LINE",
"232 -4 LINE",
"1720 592 LINE"
);
}
);
width = 1952;
},
{
layerId = "9DB0CBB1-7450-4B3A-8CA7-A9658A1D8B6A";
paths = (
{
closed = 1;
nodes = (
"1720 1072 LINE",
"232 1668 LINE",
"232 1164 LINE",
"1180 836 LINE",
"1164 860 LINE",
"1164 804 LINE",
"1180 828 LINE",
"232 500 LINE",
"232 -4 LINE",
"1720 592 LINE"
);
}
);
width = 1952;
}
);
widthMetricsKey = plus;
unicode = 003E;
},
